<?xml version="1.0" encoding="UTF-8"?><svg id="Layer_1" xmlns="http://www.w3.org/2000/svg" viewBox="0 0 446.09 523.06"><defs><style>.cls-1{fill:none;stroke:#000;stroke-miterlimit:10;stroke-width:2px;}.cls-2,.cls-3{stroke-width:0px;}.cls-3{fill:#fff;}</style></defs><circle class="cls-3" cx="223.04" cy="242.78" r="223.04"/><circle class="cls-2" cx="223.04" cy="242.78" r="145.24"/><circle class="cls-1" cx="223.04" cy="242.78" r="213.06"/><path class="cls-3" d="m191.34,281.29c-.52.03-1.33-.18-1.62-.55l-2.44-1.03c-1.61-.42-2.98-1.25-4.57-1.54-.13,0-.53-.1-.8-.21-.57-.62-1.52-1.08-2.2-1.44-.82-.47-1.37-.83-2.04-1.05-1.26-1.1-2.75-1.8-3.76-3.18l-1.25-.97c0-.13-.28-.24-.56-.49-.14-.12-.29-.38-.44-.63-.74-1.27-2.1-1.97-2.72-3.37-.31-.64-.88-1.39-1.32-2.02-.48-1.28-1.32-2.02-1.92-3.17-.45-.89-.78-1.92-1.25-2.94l-.9-1.78c-.02-.26-.3-.51-.31-.77-.1-1.57-.98-2.96-1.22-4.66-.11-1.7-.34-3.27-.71-4.83-.2-1.04-.25-1.82.07-2.9l.14-3.96c.05-1.19.24-2.38.44-3.32.19-1.2.39-2.13.84-3.21.43-1.48,1.12-2.97,1.15-4.55.11-.27.22-.67.34-.81.7-1.36,1.16-2.44,1.32-4.03.11-.27.35-.68.6-.96.71-1.23,1.42-2.46,1.73-3.8.23-.54.47-.82.83-1.37.47-.82.95-1.64,1.28-2.58.11-.27.22-.67.46-1.08,1.34-1.67,2.53-3.59,3.86-5.38.61-.7,1.09-1.52,1.84-2.1.38-.29.73-.84,1.1-1.25.85-1.11,1.69-2.35,2.8-3.47.73-.97,1.72-1.82,2.45-2.79,1.5-1.15,2.72-2.68,4.47-4.11.5-.43,1.51-1.02,2.4-1.6.25-.15.51-.3.63-.44.89-.45,1.5-1.28,2.37-2,.62-.57,1.66-.77,2.27-1.46.25-.15.24-.41.09-.66-.14-.12-.28-.24-.41-.23-1.35-.57-2.94-.73-4.3-1.43-1.61-.42-3.22-.97-4.81-1.13-2.52-.36-5.05-.72-7.8-.54-2.36.15-4.72.31-7.2.6-.66.04-1.44.09-1.96.26l-3.24.74c-1.41.49-2.57.95-3.84,1.7-1.39.88-2.94,1.38-4.05,2.5-.87.72-1.75,1.43-2.07,2.5-.24.41-.6.96-.82,1.5-.6.96-1.04,2.17-1.75,3.4.06.92.09,1.44,0,1.98.02.26-.08.79-.05,1.19-.34.81-.82,1.5-1.73,1.69-.38.16-.91.19-1.56.23-.26.02-.53-.1-.67-.22l-1.28-1.5c-.43-.5-.58-.88-.63-1.54-.08-1.18-.01-2.24-.07-3.15.31-1.34.64-2.28,1.24-3.24.72-1.1,1.3-2.32,2.15-3.43.19-1.2,1.18-2.05,2.18-2.9,1.12-.99,2.23-2.12,3.36-2.98,1.01-.59,1.9-1.18,2.79-1.63,1.54-.63,2.67-1.49,4.08-1.98,1.28-.61,2.97-.85,4.39-1.21,1.93-.65,3.89-.91,5.99-.92l.79-.05c3.27-.34,6.69-.3,9.88.15.8.21,1.59.16,2.39.37,1.86.27,3.72.55,5.72.94.4.11.67.22,1.08.46,1.5.83,3.09.98,4.7,1.4,1.34.44,2.71,1.14,4.18,1.57.8.21,1.32.04,1.95-.39,1.64-1.16,3.02-2.17,4.56-2.8,1.36-1.27,2.92-1.64,4.31-2.52.77-.31,1.66-.77,2.55-1.22.75-.57,1.65-.9,2.68-1.23l2.94-1.38c.64-.3,1.4-.75,2.31-.94,1.43-.23,2.84-.84,4.12-1.45.52-.16,1.03-.33,1.56-.36,2.73-.44,5.32-1.14,8.07-1.32.92-.06,1.95-.39,2.87-.32,1.73.28,3.55.03,5.29.44,1.21.31,2.38.24,3.71.42,1.34.31,2.94.73,4.17,1.44,1.35.57,2.58,1.28,4.08,1.97.81.34,1.38.96,1.94,1.45,1.01,1.38,2.14,2.49,3.03,4.01.44.63.6,1.14.52,1.94.04.66-.04,1.32,0,1.97-.16,1.59-.6,2.93-1.3,4.3-.25.15-.37.42-.49.56-.87.85-1.62,1.42-2.21,2.38-.11.27-.38.29-.63.44-.12.14-.38.16-.51.3-1.51,1.02-3.16,2.05-4.79,3.21-.12.14-.38.29-.77.31-1.69.24-3.07,1.38-5.03,1.51-.26.02-.65.17-1.03.33-1.55.5-2.73.57-4.17.67-2.11,0-4.06.26-6.03.39-1.96.26-3.93.26-5.78.11-1.73-.28-3.31-.31-5.03-.46-2.96-.99-6.16-1.7-9.39-2.68-1.87-.4-3.61-.95-5.5-1.62-1.22-.58-2.83-1-4.17-1.44-1.06-.06-2.11,0-2.87.45-.5.43-1.14.73-1.77,1.17-.11.27-.49.56-.88.72-1.67.63-2.8,1.5-4.03,2.76-.49.56-1.13.86-1.64,1.16-1.51,1.02-3.02,2.04-4.12,3.43-.25.28-.49.56-.87.85-1.39.88-2.36,2.13-3.59,3.39-3.18,3.76-3.3,3.9-5.84,7.35-.47.82-1.08,1.65-1.56,2.34-1.58,1.95-2.37,3.97-3.69,5.9-.11.4-.34.81-.45,1.21-.19,1.07-.77,2.29-1.09,3.49-.32,1.07-.92,2.03-1.25,2.98-.11.4-.08.79-.19,1.2-.11.27-.09.66-.21.8-.82,1.5-1.38,3.12-1.65,4.98-.11.4-.22.67-.46,1.08-.68,1.62-.72,3.07-.63,4.51-.08.79.1,1.57.03,2.5,0,2.1.53,4.18.8,6.27.78,1.92,1.02,3.49,1.65,5.15l.29.38c.91,1.91,1.82,3.7,2.86,5.47l1.89,2.77c.58.75,1.14,1.37,1.71,1.99.03.39.31.64.72.87.85.87,1.81,1.46,2.77,2.19.56.49,1.38.96,2.19,1.3.28.25.82.47,1.36.7,1.49.69,2.98,1.25,4.73,1.93,1.09.59,2.04,1.05,3.34.84.26-.02.66.09,1.07.19.53.1.94.33,1.46.17,1.18-.08,4.18-.4,5.38-.22,2.35-.29,5.17-1.39,7.25-1.79,1.15-.47,3.99-1.44,4.12-1.45.88-.58,1.91-1.05,2.65-1.75.77-.31,1.52-.89,1.75-1.43.74-.71,1.37-1.27,1.85-1.83.48-.69,1.09-1.39,1.71-1.95.5-.43.87-.85.97-1.25.25-.15.25-.28.24-.41.22-.67.46-.95.95-1.64.11-.4.46-.95.58-1.22.17-1.46.6-2.93.91-4.27l-.06-.92c-.07-1.05-.54-2.2-1.25-3.08-.03-.52-.46-1.02-.77-1.66-.27-.11-1.11-.85-1.24-.84-.81-.34-1.77-.94-2.71-1.14-.54-.23-1.07-.32-1.74-.41l-3.14.21c-.52.03-1.17.21-1.42.36-.64.3-1.28.48-1.77,1.17-.25.15-.37.42-.75.58-1.03.33-2.35.28-3.05-.33-.56-.49-1-1.25-1.11-2.82-.02-.26.23-.54.35-.68.24-.28.23-.54.35-.68.63-.43,1.25-1,1.46-1.81.24-.41.5-.43.88-.58,1.8-.64,3.75-1.03,5.71-1.16.93.07,1.71.02,2.89-.06.65-.04,1.32.04,2.12.26.67.22,1.74.41,2.8.61.14.12.54.23.82.47.67.22,1.35.57,1.77.94.4.1.53.1.68.35,1.12,1.11,2.63,1.93,3.37,3.2.17.65.6,1.14,1.04,1.77.28.25.3.51.44.76.32.9.52,1.94.7,2.72.32.9.5,1.68.16,2.49-.08.79-.05,1.32,0,2.1.06.92.1,1.57.01,2.24,0,.13.02.26-.24.41-.73.97-.66,2.02-1.25,3.11-.73.84-1.34,1.67-1.8,2.62-.21.8-.95,1.64-1.68,2.48q0,.13-.11.27c-2.1,2.11-4.05,4.47-6.45,6.08-.52.16-.76.44-1,.85-.37.42-.6.83-.98,1.12-.12.14-.38.29-.51.3-1.38,1.01-2.8,1.5-4.35,1.86-1.05.07-1.68.5-2.7.96-.39.16-1.02.46-1.42.36-.52.03-1.18.08-1.43.22-.92.06-1.82.38-2.59.56-.78.18-1.56.36-2.6.43-1.04.2-3.15.07-4.18.53-.12.14-.26.02-.39.03-1.71-.02-3.56-.03-5.28-.18Zm48.98-90.44c2.64.09,5.35-.74,7.65-1.68,1.05-.07,1.77-1.17,2.81-1.37.38-.16.77-.31,1.14-.6.38-.16.76-.44,1.14-.6.25-.15.38-.29.5-.43.63-.44.99-.99,1.34-1.67.1-.53.33-1.07.43-1.48.1-.53.05-1.19-.36-1.56-.84-.73-1.67-1.47-2.67-2.59-1.34-.44-2.3-.9-3.5-1.22-2.14-.52-4.16-1.18-6.65-1.14-2.11-.13-4.22-.12-6.31.15-2.49.16-4.81.84-7.27,1.53-.77.31-1.68.5-2.32.81-1.53.76-2.95,1.11-4.62,1.75-1.15.47-2.43,1.08-3.56,1.94-1.28.61-2.4,1.47-3.7,1.82-.88.59-1.5,1.15-2.39,1.74-.13,0-.24.28-.36.55.28.24.42.37.69.48.67.22,1.2.32,1.89.67,2.02.66,4.02,1.19,6.02,1.58l2.28.64c1.08.46,2.13.39,3.2.71.27.11.53.1.8.21,3.45.43,7.15.72,10.66.09,1.04-.2,2.09-.27,3.14-.34Z"/><path class="cls-3" d="m239.73,315.53c-1.07-.19-1.59-.16-4.08,0-1.97.13-3.69-.02-5.68-.29-1.46-.17-2.91-.21-4.37-.37-.79-.08-1.34-.31-2.01-.53-.68-.35-1.23-.71-1.76-.81-2.01-.53-4.18-1.57-6.93-3.37-.84-.73-1.25-.97-1.66-1.21-.93-.2-1.47-.3-1.85-.14-.76.44-1.66.77-2.14,1.46-.36.55-.87.85-1.5,1.28-3.57,1.81-5.23,2.58-7.04,2.96l-1.79.78c-.92.06-1.71-.02-2.5.03-.79-.08-1.72-.15-2.39-.37-.66-.09-1.34-.44-2-.4-1.58-.03-2.82-.87-4.18-1.57-.53-.1-.96-.6-1.53-1.22-.85-.87-1.56-1.74-2.28-2.75-1.01-1.38-1.38-3.07-1.09-4.67.08-.79.3-1.47.37-2.39.99-.99,2.26-1.73,3.24-2.84,1.37-1.14,2.78-1.76,4.17-2.64.38-.29,2.96-.98,3.88-1.04,1.05-.07,2.11,0,3.28-.08,1.47.3,2.97,1.12,4.56,1.28.53.1.94.33,1.48.56,2.04,1.05,4.32,1.69,6.35,2.48.65-.17,1.15-.47,1.64-1.03.59-1.09,1.32-1.93,1.93-2.76,1.35-1.53,2.43-3.05,3.74-5.24.21-.8.69-1.49,1.79-2.75.49-.56.84-1.24,1.04-2.17.6-.96.9-2.3,1.64-3.13.72-1.1,1.06-1.91,1.49-3.39.2-.93.68-1.62,1.02-2.57.1-.53-.36-1.55-.9-1.65l-1.76-.81c-1.87-.4-3.37-1.23-5-2.04l-.84-.73c-.28-.25-.55-.36-.97-.73-1.94-1.45-3.62-3.05-4.79-4.82-1.57-1.87-2.88-3.76-4.31-5.51-.17-.52-.45-.89-.74-1.27-.54-2.2-1.58-4.11-2.26-6.43-.09-1.44-.08-3.28-.32-4.98l-.06-.92c-.07-1.05.11-2.38.16-3.56l.4-1.87c.56-1.48,1.13-2.84,1.43-4.3.32-1.21.67-1.88,1.15-2.57.91-2.16,2.24-3.96,3.3-5.87,1.82-2.35,3.24-4.82,5.49-6.54.24-.28.5-.43.62-.57.82-1.5,2.47-2.53,3.58-3.65.74-.84,1.49-1.41,2.25-1.86,2.66-1.62,5.18-3.36,7.98-4.73.38-.16.76-.44,1.15-.47,1.42-.49,2.69-1.1,4.11-1.58.52-.17,1.02-.46,1.41-.62.25-.15.38-.16.91-.19,1.42-.36,2.85-.71,4.28-.94.52-.17,1.04-.2,2.48-.29,1.04-.2,2.09-.27,3.13-.47.38-.16.78-.18,1.56-.23,2.5-.03,4.86-.19,7.35-.22,1.18-.08,2.36-.15,3.57.29,1.33.18,2.66.49,4,.79.67.22,1.34.31,1.99.27,2.77.08,5.34,1.23,7.89,1.99l2.85,1.39c.54.23.95.46,1.5.82,2.47,1.55,4.95,3.23,7.41,4.65.95.46,1.4,1.23,2.22,1.83,1.23.71,1.8,1.33,2.09,1.84.17.52.44.76.85.87,1.51.95,2.26,2.35,3.26,3.6.99,1.12,1.6,2.4,2.09,3.81.5,1.55.97,2.83,1.59,4.24.34,1.16.81,2.32,1.02,3.49.06.92.26,1.96.57,2.73.45.89.51,1.81.7,2.72.1,1.57.34,3.27.45,4.84.15.25.05.78-.03,1.58-.13,2.11-.18,3.3.03,4.47.18.78.12,1.84.07,3.15l-.34,2.92c.02.26.03.52.05.79-.74,2.81-.82,5.58-1.96,8.28-.23.54-.32,1.21-.5,2.4l-.67,1.88c-.92,2.03-1.7,4.19-2.61,6.35-.11.27-.35.68-.33,1.07-.31,1.33-.9,2.3-1.36,3.38-1.22,1.53-1.75,3.4-2.98,4.8-.61.7-.83,1.37-1.18,2.05-.72,1.1-1.44,2.07-2.07,2.5-.87.85-1.49,1.41-1.97,2.1-.35.68-.71,1.23-1.45,1.94-2.85,2.69-4.58,4.38-6.97,6.11-.99.99-2.36,2.13-4.13,3.3-.88.58-1.75,1.43-2.64,1.88-.9.32-1.52.89-2.4,1.47-1.64,1.16-3.57,1.81-5.49,2.59l-3.09.99c-.52.17-1.29.35-1.93.65-1.68.51-3.36,1.01-5.05,1.25-.64.3-1.16.34-1.95.39-1.17.21-2.06.66-3.24.74-1.84-.01-3.67.24-5.52.1Zm-40.57-6.7c.52-.17,1.17-.21,1.68-.51,1.54-.63,3.07-1.38,4.2-2.12.37-.42.6-.96.45-1.21-.14-.12-.3-.51-.57-.62-3.25-1.37-5.81-2.25-8.35-2.88-.54-.23-.93-.2-1.97,0-1.55.5-2.81,1.24-3.68,2.08-.38.29-.61.7-.86.98-.37.42-.48.69-.19,1.06.3.64.46,1.02.76,1.53l.84.73c1.91,1.06,3.65,1.47,5.61,1.21.52-.03,1.43-.23,2.09-.27Zm46.07.16c3.12-.6,4.68-.83,6.37-1.2.52-.03.78-.18,1.16-.34,2.05-.92,4.38-1.47,6.44-2.13,1.28-.48,2.18-.93,2.93-1.51,2.42-1.21,4.55-2.93,6.83-4.26.38-.16.76-.44,1.01-.72,1.11-1.12,1.74-1.56,2.49-2.14,1.38-1.01,2.48-2.4,3.85-3.54l.87-.85c.25-.28.38-.29.62-.57,2.06-2.76,4.39-5.29,6.02-8.55.83-1.37,1.55-2.47,2.11-3.95.81-1.76,1.73-3.8,2.86-6.63.88-2.69,1.41-4.57,2.15-7.38.18-1.2.39-2.13.71-3.2.76-2.42,1-4.8.85-7.16-.22-1.3-.27-2.09.08-2.77.24-.41.08-.79.05-1.19-.09-1.31-.11-1.7,0-2.1.25-2.25-.42-4.45-.57-6.81.11-.4-.18-.78-.2-1.04l-.5-1.68c-1.08-4.4-2.66-8.51-5-12.17-1.26-1.1-2.39-2.35-3.64-3.32-.71-.74-1.4-1.36-2.1-1.97-1.48-.56-2.48-1.68-3.72-2.52-1.11-.85-2.21-1.57-3.43-2.15-1.36-.7-2.85-1.39-4.35-2.09-.8-.21-1.35-.57-2.29-.77-1.75-.54-3.63-1.21-5.36-1.49-2.02-.66-4.93-.99-6.37-.9-4.09-.13-7.1.07-9.7.63-1.56.23-3,.46-4.45.42-.92.06-1.83.25-2.86.58-.65.17-1.29.48-2.57.96-1.04.2-2.04.92-2.95,1.11-1.29.35-2.18.93-3.17,1.79-.63.44-1,.85-1.64,1.16-2.17,1.06-4.18,2.51-5.9,4.33-1.87,1.57-3.23,2.97-4.19,4.35-1.38,1.01-2.34,2.52-3.29,4.03-.83,1.37-1.8,2.62-2.09,4.35-.1.53-.33.94-.9,2.3-1.03,2.44-1.69,4.32-1.84,6.04-.46,1.08-.53,2.01-.39,4.11.4,4.05-.15,3.83,2.48,9.84l4.59,5.89c.57.62,1.13,1.24,2.1,1.97.4.11.82.47,1.25.97,1.81,1.46,4.1,2.36,7.43,2.94q.26-.02.38-.16c.38-.16.63-.44.87-.85.48-.69.83-1.37,1.04-2.17.34-.81.81-1.63,1.02-2.57.18-1.2.92-2.03,1.11-3.1.11-.27.23-.54.21-.8.17-1.46.62-2.54,1.47-3.65.47-.82.68-1.63,1.01-2.7.19-1.07.3-1.47.54-1.88.81-1.63,2.03-3.16,2.71-4.91l.59-1.09c.73-.84,1.48-1.54,2.07-2.5.59-1.09,1.31-2.06,1.9-3.15.24-.41.23-.54.35-.68,2.33-2.65,3.95-4.07,5.58-5.23.75-.58,1.51-1.02,2.4-1.6l1.8-.64c2.05-.79,4.4-1.08,7.31-.87,0,0,.14.12.27.11.93.2,1.67,1.34,1.32,2.15-.34.81-.58,1.22-.82,1.5-.23.54-.48.69-.87.72-1.83.12-3.5.75-5.05,1.25-.38.16-.9.32-1.15.47-2.4,1.47-3.15,2.18-3.74,3.14-1.33,1.8-2.79,3.6-4.11,5.53-.61.7-.96,1.38-1.31,2.06-.23.54-.33.94-.7,1.36-.95,1.51-1.51,3.12-2.45,4.76-.69,1.49-1.25,3.11-2.05,4.87-.45,1.21-.74,2.81-1.45,4.04-.87,2.82-1.79,4.85-2.86,6.63-.11.27-.1.53-.21.8-.22.67.24,1.69.77,1.66,1.83-.12,2.88-.19,4.47-.03,1.97-.13,3.79-.38,5.61-.76,1.55-.49,2.82-1.1,4.08-1.98.87-.71,2.03-1.19,2.9-1.9.51-.3,1.01-.72,1.24-1.13,1.47-1.67,1.96-2.23,2.59-2.67.75-.57,1.24-1.13,1.59-1.81.6-.96,1.21-1.66,1.94-2.49.49-.56,1.13-.87,1.78-.91l2.1-.14c.39-.03.94.33,1.23.71.43.5.59,1.01.23,1.56-.35.68-.82,1.5-1.04,2.17-.12.14-.49.56-1.21,1.66-1,.85-1.48,1.54-1.94,2.49-.36.55-.73.97-1.1,1.26-1.36,1.27-2.48,2.4-3.61,3.13-1.26.87-2.39,1.74-3.79,2.48-1.5,1.15-3.03,1.91-4.71,2.41-.52.17-1.3.22-1.82.38-1.4.75-2.97.85-4.27,1.07-.79.05-1.45-.04-2.11,0-1.56.23-2.88.19-4.35-.11-.66-.09-1.59-.16-2.51-.1-.52.03-1.03.33-1.27.74l-.47.82c-.59,1.09-1.02,2.44-1.73,3.67-.71,1.23-1.28,2.58-1.98,3.94-1.27,2.72-3.21,5.34-4.61,8.07-.11.27-.24.41-.73.97-1.09,1.52-2.03,3.16-3.26,4.55-.48.69-.96,1.38-1.31,2.06-.24.28-.23.54.05.79,1.99,2.24,4.69,3.38,7.42,4.78,1.19.06,2.41.63,3.6.69.79.08,1.47.3,2.4.5.8.21,1.33.17,1.98.13.66.09,1.32.05,1.98.13,3.18.32,6.45-.03,9.73-.11.79-.05.92-.06,1.17-.21Z"/><path class="cls-2" d="m136.87,107.34c-3.07.23-5.92-.3-8.54-1.58-2.62-1.28-4.71-3.28-6.28-5.99-1.48-2.57-2.17-5.38-2.06-8.42.11-3.04,1.06-5.98,2.86-8.8,1.8-2.83,4.37-5.21,7.73-7.14,2.43-1.4,5.26-2.4,8.5-3,.7-.07,1.26.15,1.67.66,1.19,1.55,2.27,3.16,3.24,4.84.13.22.16.44.09.64-.07.21-.2.37-.39.48-.45.26-.89.2-1.33-.18-.69-.68-1.34-1.23-1.95-1.64-.61-.41-1.28-.71-2.02-.88-2.08-.51-4.42-.02-7.02,1.48-1.87,1.08-3.22,2.55-4.05,4.41-.83,1.86-1.14,3.87-.93,6.04.21,2.17.89,4.25,2.03,6.23,2.23,3.86,4.84,6.49,7.86,7.9,3.01,1.41,6.04,1.24,9.09-.52,2.04-1.18,3.46-2.56,4.25-4.16.79-1.59,1.1-3.59.91-5.97-.02-.29.02-.54.12-.77.1-.22.23-.38.39-.48s.35-.12.55-.07c.2.05.36.19.49.42.72,1.26,1.34,3.03,1.83,5.31.08.4.09.74.03,1.02-.06.28-.21.58-.44.89-1.74,2.35-4.3,4.49-7.68,6.44-2.88,1.66-5.86,2.61-8.93,2.83Z"/><path class="cls-2" d="m169.35,92.59c-.23-.09-.36-.23-.41-.42-.06-.22-.02-.44.12-.66.14-.22.34-.42.59-.59,1.04-.61,1.71-1.17,2.03-1.68.32-.5.35-1.21.11-2.11l-5.77-21.4c-.28-1.03-.66-1.68-1.15-1.95-.49-.27-1.4-.38-2.72-.32-.7.02-1.11-.22-1.25-.72-.06-.22-.01-.41.14-.59.15-.17.36-.29.61-.36,1.15-.31,2.35-.58,3.59-.82,1.51-.34,2.56-.59,3.16-.75.62-.17,1.74-.5,3.34-1,1.73-.53,2.93-.89,3.62-1.08.56-.15.9,0,1.02.43.08.28.05.51-.06.7-.12.18-.34.37-.65.55-1.21.73-1.98,1.34-2.31,1.85-.33.51-.38,1.21-.13,2.12l5.67,21.03c.24.87.59,1.45,1.07,1.72.47.27,1.18.28,2.11.03l4.77-1.29c1.28-.35,2.27-1.06,2.98-2.16.69-1.16,1.18-2.61,1.48-4.36.12-.67.25-1.13.38-1.38.13-.25.29-.4.48-.45.22-.06.41,0,.57.17.16.17.28.37.33.59.03.09.03.23.01.42-.02.19,0,.38.05.56-.01,1.81,0,3.11.03,3.9.03.79.14,1.72.32,2.77.1.61-.07.97-.51,1.09l-5.4,1.36c-6.85,1.74-10.48,2.67-10.88,2.78-1.18.32-2.42.7-3.7,1.15l-2.87.88c-.28.07-.53.07-.76-.02Z"/><path class="cls-2" d="m213.62,80.88c-2.33-2.34-3.48-5.49-3.46-9.46l.06-13.8c0-.93-.21-1.76-.64-2.47-.43-.71-1.04-1.18-1.81-1.41-.9-.26-1.35-.62-1.35-1.07,0-.22.12-.4.36-.53.24-.13.54-.19.9-.19,1.1,0,2.18.06,3.24.16,1.42.07,2.44.11,3.05.11.58,0,1.68-.02,3.29-.08,1.55-.06,2.63-.08,3.24-.08.87,0,1.31.25,1.3.73,0,.23-.12.41-.37.56-.24.14-.56.29-.95.43-.39.14-.71.28-.97.41-.55.22-.99.64-1.31,1.25-.33.61-.49,1.43-.5,2.46l-.06,12.68c-.01,3.16.71,5.55,2.17,7.17,1.46,1.62,3.34,2.44,5.63,2.45,2.94.01,5.13-.86,6.57-2.61,1.44-1.75,2.17-4.4,2.19-7.95l.08-6.1c0-1.45,0-2.5-.03-3.15-.02-2.1-.22-3.57-.58-4.41-.37-.84-1.02-1.5-1.95-1.99-.19-.1-.47-.2-.82-.32s-.63-.24-.82-.37c-.19-.13-.29-.29-.29-.49,0-.45.49-.67,1.46-.67l2.86.06c.39.04.98.05,1.79.06.58,0,1.29-.03,2.13-.09.9-.06,1.65-.09,2.23-.09.84,0,1.26.25,1.25.73,0,.42-.44.76-1.31,1.01-1.07.29-1.82.77-2.26,1.44-.44.68-.69,1.61-.76,2.8-.18,4.06-.28,8.4-.3,13.02-.01,2.58-.6,4.89-1.78,6.91s-2.75,3.6-4.74,4.72-4.18,1.68-6.57,1.66c-4.45-.02-7.84-1.2-10.17-3.53Z"/><path class="cls-2" d="m253.02,86c-.13-.19-.17-.38-.12-.56.05-.19.19-.35.42-.48s.52-.2.89-.2c1.21,0,2.07-.11,2.6-.37.53-.25.93-.86,1.2-1.82l6.05-21.18c.29-1.02.3-1.8.04-2.33s-.93-1.08-1.97-1.65c-.68-.33-.94-.76-.79-1.28.05-.19.19-.32.42-.41.23-.09.48-.09.76,0,1.05.3,2.22.7,3.48,1.2.28.08.68.22,1.21.42.53.2,1.04.38,1.54.52.62.18,1.51.36,2.66.56,1.81.35,3.17.65,4.07.91,3.82,1.09,6.5,2.43,8.04,4.03,1.54,1.6,1.96,3.64,1.25,6.12-.27.93-.73,1.76-1.39,2.5-.66.73-1.44,1.29-2.32,1.68-1.21.6-2.51.86-3.9.8-.13,0-.22.05-.25.18-.04.12,0,.22.12.29,2.04,1.09,3.6,2.37,4.69,3.86,1.09,1.48,1.29,3.42.61,5.81-.45,1.58-1.08,2.81-1.88,3.69-.8.88-1.61,1.49-2.41,1.83-.8.34-1.74.61-2.8.81-2.36.4-5.22.12-8.57-.84-.65-.19-1.65-.51-3-.96-1.41-.47-2.52-.82-3.33-1.05-1.02-.29-2.14-.56-3.34-.8-1.57-.38-2.68-.66-3.33-.85-.28-.08-.48-.21-.62-.4Zm17.26,1.43c.98-.32,1.85-.9,2.61-1.72s1.3-1.83,1.64-3c.65-2.27.38-4.27-.8-6.02-.26-.38-.68-.76-1.26-1.14s-1.29-.7-2.12-.93c-.56-.16-1.1-.16-1.61,0-.51.16-.84.47-.97.93l-2.34,8.19c-.57,1.99.1,3.25,1.99,3.79.93.27,1.89.24,2.87-.09Zm2.58-14.67c.69,0,1.39-.16,2.12-.45.46-.2.95-.61,1.46-1.22.51-.61.92-1.47,1.24-2.59.56-1.96.59-3.53.09-4.73-.5-1.2-1.58-2.04-3.26-2.52-.87-.25-1.54-.26-2.02-.05-.48.21-.81.65-1,1.3l-2.22,7.77c-.16.56-.08,1.03.23,1.4.31.38.7.63,1.17.76.78.22,1.51.33,2.2.32Z"/><path class="cls-2" d="m291.98,98.99c-.1-.22-.09-.42,0-.59.1-.17.27-.29.52-.37.25-.08.55-.07.91.03,1.17.3,2.04.4,2.61.28.57-.12,1.11-.61,1.61-1.47l11.06-19.05c.53-.92.74-1.67.61-2.25-.13-.58-.65-1.28-1.55-2.1-.56-.51-.71-.99-.45-1.44.1-.17.27-.27.51-.29.24-.03.5.04.78.2,1.06.62,2.11,1.28,3.15,2,1.42.9,2.42,1.52,3.01,1.86,3.43,1.99,6.47,3.7,9.12,5.12.87.5,1.63.88,2.3,1.14.67.26,1.05.41,1.13.46.22.13.41.32.56.58.15.26.16.53.02.83-.25.56-.6,1.42-1.05,2.58-.65,1.64-1.13,2.72-1.44,3.25-.15.25-.32.41-.51.49-.19.07-.36.07-.5,0-.36-.21-.5-.59-.41-1.13.03-.24.09-.68.17-1.3.08-.62.13-1.13.16-1.53.02-.4,0-.75-.08-1.06-.36-1.37-1.12-2.38-2.26-3.05l-3.14-1.82c-.62-.36-1.24-.5-1.88-.42-.64.07-1.12.39-1.45.95l-4.59,7.91c-.39.67-.23,1.21.46,1.61l3.68,2.14c.67.39,1.28.47,1.84.26.55-.22,1.24-.67,2.05-1.36.47-.43.91-.54,1.3-.31.14.08.22.24.23.47.01.23-.07.48-.26.74-.92,1.33-1.63,2.43-2.13,3.29-.68,1.17-1.29,2.33-1.84,3.46l-.15.36c-.29.5-.59.66-.9.49-.2-.11-.33-.32-.39-.62-.07-.3-.05-.63.04-.99.27-1.04.36-1.86.29-2.46-.08-.6-.38-1.06-.91-1.37l-3.89-2.26c-.7-.41-1.23-.29-1.6.36l-4.62,7.95c-.47.81-.63,1.49-.47,2.05.16.56.62,1.06,1.37,1.5l3.6,2.09c1.34.78,2.58,1.09,3.72.93,1.14-.16,2.58-.82,4.33-1.96.39-.22.75-.23,1.09-.04.14.08.2.22.18.41-.02.19-.09.4-.22.62-.29.5-.72,1.05-1.28,1.63-.56.59-1.31,1.3-2.25,2.14-.37.31-.68.59-.94.85-.15.14-.35.2-.59.19s-.46-.07-.65-.18c-1.14-.67-2.24-1.32-3.28-1.96-5.81-3.49-9.23-5.53-10.27-6.13-.92-.54-1.91-1.05-2.96-1.55-1.37-.72-2.35-1.25-2.94-1.6-.25-.14-.42-.33-.52-.55Z"/><path class="cls-2" d="m98.3,394.18c-1.07-.98-1.94-1.74-2.59-2.26l-2.52-1.96c-1.35-1-2.31-1.73-2.89-2.2-.2-.16-.34-.35-.41-.58-.07-.22-.04-.41.08-.56.34-.43.82-.48,1.43-.16,1.14.59,2.01.85,2.62.8.6-.05,1.22-.47,1.84-1.25l13.75-17.15c.67-.83.97-1.54.9-2.13-.06-.59-.51-1.4-1.33-2.44-.43-.55-.48-1.03-.16-1.43.14-.17.33-.25.56-.23.23.02.45.11.65.27.93.75,1.83,1.53,2.7,2.35,1.17,1.02,2,1.73,2.51,2.13.43.34,1.64,1.23,3.63,2.66,1.81,1.25,3.26,2.3,4.34,3.17,2.52,2.02,4.39,4.37,5.61,7.04,1.22,2.68,1.67,5.42,1.35,8.22-.32,2.8-1.42,5.37-3.3,7.71-1.84,2.29-4.09,3.99-6.76,5.1-2.67,1.11-5.51,1.44-8.52.99-3.01-.45-5.89-1.78-8.63-3.97-1.21-.97-2.83-2.35-4.86-4.15Zm13.75,3.71c2.75-.73,5.38-2.64,7.86-5.74,1.8-2.24,3.05-4.46,3.76-6.67.71-2.2.82-4.26.33-6.18-.49-1.92-1.57-3.56-3.26-4.91-1.39-1.11-2.41-1.79-3.07-2.05s-1.24-.08-1.75.55l-13.2,16.47c-.97,1.21-1.32,2.34-1.04,3.38.28,1.05,1.09,2.12,2.45,3.21,2.52,2.02,5.15,2.67,7.91,1.94Z"/><path class="cls-2" d="m145.27,422.32c-1.89-2.19-3.11-4.69-3.65-7.5-.54-2.81-.24-5.66.9-8.54,1.09-2.76,2.73-5.1,4.93-7.01,2.19-1.91,4.79-3.12,7.78-3.62,2.99-.5,6.15-.1,9.48,1.22,2.79,1.1,5.13,2.75,7.03,4.93,1.89,2.19,3.11,4.69,3.65,7.5.54,2.81.23,5.66-.9,8.54-1.09,2.76-2.73,5.1-4.93,7-2.19,1.91-4.79,3.11-7.8,3.61s-6.17.09-9.51-1.23c-2.76-1.09-5.09-2.73-6.98-4.92Zm15.57,2.35c2.15-1.53,3.9-4.02,5.27-7.47,1.02-2.58,1.65-5.14,1.89-7.68.24-2.54-.03-4.79-.82-6.75s-2.17-3.33-4.15-4.11c-2.49-.99-4.8-.72-6.93.8-2.13,1.52-3.87,3.99-5.22,7.41-1.02,2.58-1.65,5.15-1.9,7.71-.25,2.56.01,4.82.78,6.79.77,1.97,2.14,3.34,4.12,4.13,2.49.98,4.81.71,6.96-.82Z"/><path class="cls-2" d="m199.62,437.47c-2.46-1.55-4.34-3.6-5.65-6.13-1.31-2.54-1.83-5.34-1.58-8.39.25-2.99,1.24-5.71,2.97-8.15,1.73-2.45,4.04-4.33,6.94-5.66,2.9-1.33,6.13-1.84,9.7-1.54,1.29.11,2.94.44,4.97.98,2.03.54,3.55,1.07,4.58,1.57.53.24.82.65.87,1.24.17,2.57.21,4.49.1,5.74-.03.32-.12.56-.28.71-.16.15-.37.21-.62.19-.36-.03-.62-.14-.8-.33-.18-.19-.32-.46-.42-.79-.57-1.67-1.24-2.97-2-3.91-.65-.77-1.43-1.4-2.34-1.9-.91-.5-2.11-.81-3.59-.93-2.25-.19-4.24.25-5.96,1.32-1.73,1.07-3.1,2.57-4.12,4.49-1.02,1.92-1.63,4.06-1.83,6.4-.38,4.47.15,8.08,1.59,10.82,1.44,2.74,3.7,4.24,6.79,4.5.71.06,1.32,0,1.84-.18.52-.18,1.05-.43,1.59-.74.34-.23.64-.62.9-1.19.26-.56.42-1.18.47-1.85.16-1.09.3-2.4.43-3.95.07-.84-.24-1.43-.92-1.78-.58-.4-1.58-.83-3-1.27-.28-.09-.54-.24-.76-.45-.23-.21-.33-.45-.3-.71.02-.19.14-.35.38-.48.24-.12.47-.18.69-.16,1.19.1,2.46.25,3.8.46,1.73.21,2.92.34,3.56.4.64.05,1.61.1,2.9.15,1.42.05,2.45.11,3.09.16.22.02.41.1.56.24.15.14.21.33.2.55-.04.51-.39.82-1.05.93-.89.15-1.51.38-1.88.69-.37.31-.64.79-.83,1.46-.32,1.07-.53,2.27-.64,3.59l-.13,1.54c-.02.22.16.56.55,1.02.29.41.42.76.4,1.05-.02.26-.11.48-.27.66-.16.18-.4.27-.73.28-.23.01-.69.15-1.4.42-1.47.59-3.05,1.05-4.73,1.4-1.68.34-3.58.43-5.7.25-3.09-.26-5.86-1.17-8.32-2.72Z"/><path class="cls-2" d="m250.75,435.51c-2.76-1.8-4.54-4.65-5.34-8.54l-2.78-13.51c-.19-.92-.57-1.68-1.14-2.29-.57-.61-1.26-.94-2.06-1.01-.94-.07-1.45-.33-1.54-.77-.05-.22.04-.42.25-.6.21-.17.49-.3.84-.37,1.07-.22,2.14-.39,3.21-.51,1.4-.22,2.41-.4,3.01-.52.57-.12,1.64-.37,3.21-.76,1.5-.38,2.56-.62,3.16-.75.85-.18,1.33-.03,1.43.45.05.22-.04.43-.24.62-.21.19-.49.4-.84.62-.35.22-.64.42-.87.6-.49.33-.83.83-1.03,1.5-.19.67-.18,1.5.02,2.52l2.56,12.42c.64,3.1,1.84,5.29,3.6,6.57,1.76,1.29,3.77,1.7,6.01,1.23,2.88-.59,4.84-1.89,5.89-3.91,1.05-2.01,1.22-4.75.51-8.23l-1.18-5.98c-.29-1.42-.52-2.45-.68-3.07-.45-2.05-.95-3.44-1.48-4.19-.53-.75-1.31-1.26-2.32-1.55-.21-.06-.5-.1-.87-.14-.37-.04-.66-.1-.88-.19-.22-.09-.34-.22-.38-.42-.09-.44.34-.76,1.29-.96l2.81-.53c.39-.04.97-.15,1.76-.31.57-.12,1.26-.29,2.07-.52.87-.25,1.59-.43,2.16-.54.82-.17,1.28-.02,1.38.46.08.41-.27.83-1.08,1.26-.98.5-1.62,1.12-1.91,1.88-.29.75-.35,1.72-.17,2.9.66,4.02,1.46,8.28,2.39,12.8.52,2.53.42,4.91-.31,7.13-.73,2.22-1.95,4.09-3.67,5.6-1.72,1.51-3.74,2.5-6.08,2.98-4.36.9-7.92.44-10.68-1.36Z"/><path class="cls-2" d="m297.57,425.25c-.24-.04-.4-.15-.49-.33-.09-.17-.09-.38-.02-.64.07-.25.25-.5.52-.75.9-.8,1.45-1.48,1.67-2.02.22-.54.1-1.26-.34-2.16l-9.81-19.72c-.47-.96-.99-1.54-1.54-1.75s-1.42-.17-2.61.13c-.74.19-1.22.05-1.45-.41-.09-.18-.08-.37.03-.59.11-.21.31-.4.6-.54,1.1-.55,2.23-1.06,3.4-1.53,1.53-.69,2.6-1.19,3.21-1.49,3.55-1.77,6.65-3.37,9.3-4.79.9-.45,1.64-.88,2.22-1.29s.92-.65,1.01-.69c.23-.11.49-.16.79-.15.3.02.53.16.7.44.33.52.86,1.29,1.58,2.3,1.01,1.45,1.65,2.44,1.92,2.99.13.26.17.49.13.69-.04.2-.14.34-.28.41-.38.19-.77.09-1.17-.28-.19-.16-.52-.45-1-.86-.47-.41-.87-.74-1.19-.98-.32-.24-.63-.41-.93-.51-1.34-.45-2.61-.38-3.79.21l-3.25,1.62c-.64.32-1.1.76-1.39,1.34-.29.58-.29,1.15,0,1.73l4.08,8.19c.34.69.88.86,1.6.5l3.81-1.9c.69-.35,1.1-.81,1.23-1.39.12-.58.12-1.4,0-2.46-.1-.63.05-1.05.46-1.25.14-.07.32-.05.52.06.2.12.36.33.47.63.6,1.5,1.13,2.7,1.57,3.6.6,1.21,1.23,2.36,1.88,3.45l.21.32c.26.52.23.86-.09,1.02-.2.1-.45.1-.74-.01-.29-.11-.55-.3-.8-.57-.72-.79-1.35-1.33-1.9-1.6-.55-.27-1.1-.27-1.65,0l-4.03,2c-.72.36-.92.87-.59,1.54l4.1,8.23c.42.84.9,1.34,1.46,1.52.55.17,1.22.07,2-.32l3.73-1.85c1.39-.69,2.33-1.55,2.82-2.59.49-1.04.74-2.6.75-4.7.03-.45.22-.76.56-.93.14-.07.29-.04.44.08.15.12.29.3.4.53.26.52.48,1.18.66,1.97.18.8.36,1.81.54,3.05.06.48.12.9.19,1.26.03.2-.03.4-.16.59-.14.2-.31.34-.51.44-1.18.59-2.33,1.14-3.45,1.66-6.11,2.93-9.7,4.66-10.77,5.2-.95.47-1.93,1.01-2.93,1.62-1.36.75-2.34,1.27-2.95,1.57-.26.13-.51.17-.75.13Zm-10.04-32.69c-.2-.03-.33-.12-.4-.26-.13-.26-.12-.53.02-.82l2.52-6.34c.29-.79.53-1.33.71-1.62.18-.29.46-.53.83-.71.38-.19.74-.27,1.09-.25.35.02.93.16,1.74.4l6.51,1.79c.3.1.52.28.65.54.07.14.07.31,0,.49-.07.18-.21.32-.41.42-.35.17-1.35.35-3.01.52-1.66.18-2.95.24-3.88.2-.2-.04-.41-.02-.61.08-.2.1-.35.25-.43.43-.48.71-1.3,1.67-2.45,2.89-1.16,1.22-1.9,1.92-2.21,2.07-.26.13-.49.18-.68.15Z"/><path class="cls-2" d="m337.92,400.12c-.6.08-1.11,0-1.53-.24-.76-.46-1.6-1.12-2.52-1.99s-1.78-1.83-2.58-2.89c-.27-.32-.16-.69.34-1.1.22-.19.41-.29.56-.31.15-.02.35.02.59.1,2.14,1.45,4.22,2.27,6.24,2.47,2.02.2,3.74-.29,5.15-1.47,1.09-.91,1.64-2,1.66-3.26.02-1.26-.37-2.36-1.15-3.3-.64-.77-1.33-1.29-2.08-1.57-.74-.28-1.58-.4-2.51-.36-.93.04-2.19.23-3.78.55-2.07.39-3.77.63-5.08.72-1.31.09-2.66-.09-4.02-.54s-2.61-1.35-3.73-2.68c-1.18-1.41-1.85-2.97-2.01-4.7-.16-1.72.17-3.43.98-5.12.81-1.69,2.04-3.22,3.67-4.59.87-.72,1.8-1.36,2.79-1.9,1-.54,1.9-.94,2.7-1.19.4-.12.73-.17.99-.14.26.03.6.2,1,.48,1.29.94,2.65,2.26,4.08,3.97.1.12.14.29.09.49-.04.21-.16.39-.36.55-.22.19-.47.3-.75.35-.28.04-.51,0-.71-.13-1.67-1.13-3.23-1.74-4.68-1.82-1.46-.08-2.78.38-3.97,1.37-2.3,1.93-2.52,4.01-.65,6.23.67.79,1.69,1.21,3.08,1.27,1.39.05,3.39-.15,6-.61,3.02-.47,5.41-.48,7.18-.02s3.35,1.51,4.74,3.16c2.07,2.47,2.85,4.99,2.33,7.56-.52,2.57-2.16,5-4.9,7.3-2.25,1.89-4.64,3.01-7.17,3.36Z"/><path class="cls-3" d="m176.9,143.19c-.07-.05-.11-.12-.11-.19s.03-.14.1-.22.17-.13.3-.16c.43-.12.73-.25.9-.4.16-.14.25-.4.25-.78v-8.25c0-.4-.08-.68-.23-.84-.15-.16-.45-.29-.9-.39-.28-.06-.42-.19-.42-.38,0-.07.04-.14.11-.19.07-.05.17-.08.29-.08.46,0,.92.02,1.4.05.63.03,1.07.04,1.32.04,1.49,0,2.79-.02,3.92-.05.37,0,.69-.02.96-.06.27-.04.42-.06.45-.06.1,0,.19.03.29.08.1.05.15.14.16.26.02.23.07.57.14,1.03.1.65.15,1.09.15,1.32,0,.11-.02.19-.07.25-.05.06-.1.09-.16.09-.16,0-.27-.1-.34-.29-.04-.08-.1-.24-.19-.45-.09-.22-.17-.39-.24-.53-.07-.13-.14-.24-.23-.33-.38-.38-.81-.56-1.31-.56h-1.36c-.27,0-.5.07-.69.22s-.29.34-.29.58v3.43c0,.29.15.44.45.44h1.59c.29,0,.5-.09.64-.26.14-.17.27-.45.41-.82.07-.23.19-.34.36-.34.06,0,.11.04.16.11.05.07.07.17.05.29-.05.6-.07,1.09-.07,1.47,0,.51.02,1,.05,1.47l.02.15c0,.22-.07.33-.2.33-.08,0-.17-.04-.24-.13-.08-.08-.14-.19-.17-.33-.11-.39-.23-.67-.37-.85-.14-.18-.32-.27-.55-.27h-1.69c-.3,0-.45.14-.45.42v3.44c0,.35.08.6.24.75.16.15.4.23.72.23h1.56c.58,0,1.04-.13,1.38-.4.34-.27.68-.75,1.03-1.45.08-.15.2-.22.34-.22.06,0,.11.03.14.1s.05.15.05.25c0,.22-.04.47-.11.77-.07.3-.18.67-.33,1.12-.06.17-.11.32-.14.45-.02.07-.08.13-.15.17-.08.04-.16.06-.25.06-.5,0-.97,0-1.43-.02-2.54-.04-4.03-.05-4.48-.05-.4,0-.82.02-1.25.05-.58.02-1,.04-1.25.04-.11,0-.2-.03-.27-.08Z"/><path class="cls-3" d="m189.77,142.67c-.19-.12-.32-.27-.38-.43-.11-.31-.19-.71-.24-1.18-.05-.47-.07-.95-.05-1.45,0-.16.12-.24.36-.24.11,0,.19.02.24.05.05.03.1.09.14.17.27.93.67,1.67,1.2,2.21.53.54,1.14.82,1.83.82.53,0,.95-.18,1.26-.54.31-.36.46-.76.46-1.22,0-.37-.07-.69-.22-.95-.15-.26-.36-.5-.63-.71s-.68-.46-1.21-.75c-.69-.39-1.23-.72-1.63-1.02-.4-.29-.74-.66-1.02-1.12s-.43-1.02-.43-1.67c0-.69.18-1.3.55-1.83.37-.53.87-.94,1.51-1.23.64-.29,1.36-.44,2.16-.44.42,0,.84.04,1.26.13s.77.19,1.06.31c.14.06.25.13.32.2s.12.2.17.38c.14.58.22,1.29.22,2.12,0,.06-.03.11-.09.16s-.14.07-.24.07c-.11,0-.21-.03-.3-.08-.09-.05-.15-.12-.17-.21-.21-.73-.51-1.28-.91-1.65-.4-.38-.89-.56-1.47-.56-1.12,0-1.69.54-1.69,1.63,0,.39.19.75.58,1.11.39.35,1.01.77,1.87,1.27.98.59,1.67,1.17,2.07,1.72.4.56.6,1.24.6,2.05,0,1.21-.38,2.12-1.15,2.73-.77.61-1.82.91-3.16.91-1.1,0-2.05-.25-2.86-.76Z"/><path class="cls-3" d="m202.88,143.16c-.09-.05-.14-.11-.14-.18,0-.19.14-.32.43-.38.48-.11.83-.24,1.02-.41.2-.16.3-.43.3-.79v-7.49c0-.65-.02-1.08-.06-1.28s-.12-.32-.23-.37c-.14-.07-.43-.11-.85-.11h-.4c-.37,0-.74.09-1.09.27-.35.18-.63.42-.83.71-.18.27-.35.49-.52.66-.16.17-.32.26-.48.26-.17,0-.25-.11-.25-.33,0-.18.04-.33.11-.45.24-.47.41-.87.52-1.2.1-.33.17-.7.21-1.11.04-.31.19-.47.45-.47.06,0,.12.04.19.13s.11.14.12.16c.1.13.19.24.27.33.11.08.3.15.57.21.27.05.52.08.73.08h6.82c.28,0,.53-.03.75-.08.22-.05.39-.12.5-.19.08-.06.21-.16.38-.29.07-.07.15-.13.24-.19s.17-.08.25-.08c.13,0,.2.1.2.31,0,.08-.01.21-.04.38-.06.22-.1.36-.13.44-.01.07-.06.26-.14.57-.08.31-.12.6-.12.86v.34c0,.45-.1.67-.31.67-.11,0-.2-.05-.27-.16-.07-.11-.15-.3-.24-.56-.14-.45-.35-.77-.62-.97s-.65-.3-1.16-.3h-.94c-.23,0-.41.04-.53.13-.12.09-.21.27-.26.54-.05.27-.08.69-.08,1.24v7.3c0,.34.1.59.29.76.19.17.53.32,1.01.45.15.05.25.1.33.15.07.05.11.12.11.22,0,.08-.04.15-.11.2-.07.05-.16.07-.27.07-.45,0-.92-.02-1.43-.05-.65-.02-1.09-.04-1.32-.04-.24,0-.68.01-1.31.04-.5.04-.97.05-1.41.05-.1,0-.19-.02-.28-.07Z"/><path class="cls-3" d="m212.85,143.3c-.28-.29-.43-.63-.43-1.03s.14-.76.43-1.06c.28-.29.62-.44,1.02-.44.42,0,.78.14,1.07.44.29.29.43.65.43,1.07,0,.4-.14.74-.43,1.03-.29.28-.65.43-1.07.43-.4,0-.74-.14-1.02-.43Z"/><path class="cls-3" d="m231.97,143.24c-.13,0-.32,0-.57,0-1.14-.05-2.11-.07-2.92-.07-.53,0-1.4.02-2.59.05l-.38.02s-.12-.03-.22-.1-.14-.14-.14-.21c0-.08.02-.16.06-.23.04-.07.09-.12.15-.17l2.65-2.94c.65-.73,1.13-1.44,1.44-2.14.31-.7.46-1.46.46-2.29,0-.52-.13-.95-.4-1.29-.27-.34-.63-.51-1.09-.51-.39,0-.77.11-1.14.33-.38.22-.71.49-1.02.81-.22.25-.41.38-.58.38s-.25-.14-.25-.44.18-.63.54-1.07c.36-.44.84-.82,1.43-1.14.59-.33,1.21-.49,1.87-.49.6,0,1.13.13,1.57.41.44.27.78.64,1.01,1.1s.34.97.34,1.52c0,.48-.15,1.04-.44,1.66-.3.62-.63,1.14-1.01,1.57-.28.33-.69.74-1.23,1.25s-.88.82-1,.94c-.67.64-1,.97-1,1,0,.05.09.08.27.11.39.05.93.07,1.63.07.6,0,1.14-.02,1.61-.07.41-.04.74-.14,1-.31.25-.17.46-.43.63-.78.05-.1.12-.19.21-.27.09-.08.19-.13.3-.13.08,0,.15.04.18.11s.04.16.02.25c-.18.51-.35,1.04-.52,1.59-.16.55-.25.9-.26,1.06-.01.12-.06.22-.15.3-.09.08-.17.12-.23.12-.04,0-.12,0-.24,0Z"/><path class="cls-3" d="m237.85,142.59c-.64-.56-1.12-1.28-1.44-2.16-.32-.88-.48-1.79-.48-2.73,0-.99.16-1.94.48-2.85.32-.91.82-1.65,1.49-2.24.67-.59,1.5-.88,2.49-.88.91,0,1.68.28,2.33.84.65.56,1.13,1.28,1.45,2.16.32.88.48,1.77.48,2.69,0,.98-.16,1.93-.48,2.85-.32.92-.82,1.67-1.49,2.27-.67.59-1.5.89-2.49.89-.92,0-1.7-.28-2.34-.84Zm3.82-1.35c.27-.92.4-2.08.4-3.48,0-.87-.08-1.7-.24-2.5-.16-.8-.38-1.45-.68-1.95-.3-.5-.65-.75-1.06-.75-.54,0-.94.45-1.2,1.36-.25.91-.38,2.07-.38,3.48s.17,2.61.51,3.65c.34,1.04.82,1.57,1.43,1.57.54,0,.95-.46,1.21-1.38Z"/><path class="cls-3" d="m248.76,143.16c-.07-.05-.1-.11-.1-.18,0-.19.11-.32.34-.38.41-.11.72-.2.93-.28.21-.08.38-.19.51-.33.13-.15.19-.35.19-.6v-6.56c0-.39-.13-.66-.4-.81s-.65-.27-1.16-.35c-.31-.06-.47-.2-.47-.42,0-.13.05-.24.16-.32s.24-.12.4-.14c.7-.05,1.33-.16,1.89-.33.56-.18,1.13-.43,1.71-.75.07-.04.14-.05.2-.05.08,0,.17.02.25.05.08.04.12.08.12.13,0,.07-.01.22-.04.43-.04.47-.05.77-.05.89v8.25c0,.33.13.56.39.71.26.14.72.31,1.37.49.11.04.19.08.25.14.05.05.08.13.08.23,0,.17-.09.25-.27.25-.28,0-.8-.01-1.58-.04-.75-.02-1.25-.04-1.49-.04-.25,0-.73.01-1.43.04-.58.04-1.11.05-1.58.05-.08,0-.16-.02-.23-.07Z"/><path class="cls-3" d="m260.93,143.56c-.1-.11-.14-.25-.14-.42,0-.1.1-.3.31-.62l.18-.31,4.37-7.81s.04-.08.04-.12c0-.09-.08-.13-.24-.13h-4.06c-.3,0-.54.05-.73.14-.18.1-.36.28-.54.54-.04.05-.11.15-.22.32-.11.16-.22.3-.33.43s-.23.18-.33.18c-.07,0-.14-.03-.2-.09-.06-.06-.09-.13-.09-.22,0-.1.03-.25.09-.46.06-.21.1-.34.11-.39.02-.16.05-.3.08-.44s.06-.25.08-.35c.17-.82.26-1.39.27-1.7,0-.12.04-.21.13-.25.08-.05.17-.07.25-.05.06,0,.13,0,.21.02.08.01.16.02.24.04.53.09.97.13,1.31.14l3.06.04c1.2,0,2.16-.02,2.88-.07.05,0,.09.04.13.13.04.08.05.17.05.25,0,.06-.04.15-.11.28s-.16.27-.25.43l-.31.49-5.44,9.59c-.07.13-.15.26-.24.39-.08.13-.15.19-.18.19-.16,0-.28-.05-.38-.16Z"/><path class="cls-3" d="m178.32,355.36c-.54-.04-.97-.05-1.29-.05l-1.2.02c-.63.02-1.08.04-1.36.04-.1,0-.18-.02-.25-.07-.07-.05-.11-.11-.11-.18,0-.21.13-.33.38-.38.47-.1.79-.22.95-.38.16-.16.25-.42.25-.8v-8.23c0-.4-.08-.68-.24-.83-.16-.16-.48-.29-.96-.4-.25-.06-.38-.19-.38-.38,0-.09.04-.15.11-.2.07-.05.16-.07.25-.07.45,0,.89.02,1.34.05.58.03.99.04,1.23.04.21,0,.77-.02,1.69-.07.82-.06,1.49-.09,2.01-.09,1.21,0,2.31.25,3.29.74.99.5,1.76,1.19,2.32,2.08.56.89.84,1.9.84,3.03s-.26,2.12-.78,3.07-1.27,1.71-2.26,2.28c-.98.57-2.14.86-3.45.86-.58,0-1.38-.02-2.39-.07Zm4.88-2.14c.63-.86.95-2.03.95-3.52,0-1.08-.15-2.02-.46-2.83-.31-.81-.76-1.44-1.35-1.88-.59-.45-1.29-.67-2.1-.67-.67,0-1.12.04-1.38.12-.25.08-.38.27-.38.57v7.9c0,.58.16.99.49,1.23.33.24.82.36,1.47.36,1.21,0,2.13-.43,2.76-1.29Z"/><path class="cls-3" d="m188.65,355.11c0-.11.04-.19.11-.25s.18-.11.33-.14c.74-.22,1.24-.62,1.5-1.21,1.09-2.53,2.14-5.18,3.15-7.97.15-.4.25-.74.33-1.02.07-.28.11-.43.13-.45.45-.11.86-.23,1.23-.36.33-.13.62-.34.89-.63.06-.04.11-.05.15-.05.07,0,.12.04.14.11.08.18.15.35.18.49.8,2.56,1.85,5.84,3.17,9.84.21.65.71,1.08,1.5,1.27.15.04.25.08.33.14.07.06.11.14.11.24,0,.08-.03.15-.1.2s-.15.07-.26.07l-1.38-.04c-.56-.04-1.08-.05-1.56-.05-.23,0-.67.01-1.32.04-.68.03-1.14.04-1.4.04-.11,0-.2-.02-.28-.06-.08-.04-.12-.11-.12-.19,0-.18.15-.31.44-.38.42-.08.73-.19.92-.32s.29-.3.29-.52c0-.05-.01-.13-.04-.25l-.33-1.3-.25-.96c-.02-.1-.06-.17-.11-.21-.05-.04-.12-.06-.22-.06h-3.21c-.08,0-.15.02-.2.07-.05.05-.08.13-.11.24-.33.99-.54,1.66-.63,2.01-.04.12-.05.24-.05.36,0,.24.09.44.27.58.18.15.48.27.91.36.29.06.44.19.44.38,0,.17-.14.25-.42.25l-.98-.02c-.41-.03-.74-.04-1-.04-.17,0-.36,0-.57.03-.21.02-.37.03-.46.03-.34.04-.69.05-1.05.05-.31,0-.47-.1-.47-.29Zm7.2-5c.18,0,.27-.04.27-.13,0-.03-.01-.08-.04-.18l-1.21-4.1c-.04-.13-.07-.2-.11-.2-.01,0-.05.07-.13.2l-1.43,4.1s-.04.1-.04.14c0,.11.11.16.33.16h2.36Z"/><path class="cls-3" d="m205.34,355.33c-.1-.05-.15-.12-.15-.21,0-.18.18-.31.54-.38.45-.09.76-.25.95-.48.19-.24.28-.55.28-.95v-2.5c0-.38-.05-.7-.14-.96-.1-.27-.24-.56-.42-.87l-2.34-3.61c-.21-.33-.41-.6-.62-.82-.21-.22-.47-.37-.79-.45-.16-.06-.27-.12-.33-.16-.07-.05-.1-.13-.1-.23,0-.07.04-.13.11-.18.07-.05.16-.07.27-.07.5,0,.98.02,1.45.05.16.01.39.02.69.04s.57.02.8.02c.37,0,.74-.02,1.11-.05.12-.01.3-.03.53-.04.24-.01.44-.02.63-.02.12,0,.23.02.33.07s.15.11.15.18c0,.1-.05.17-.15.23s-.23.11-.37.15c-.35.08-.59.17-.73.26-.13.09-.2.23-.2.43,0,.18.07.39.2.63l1.87,3.21c.1.22.21.33.33.33.1,0,.21-.11.33-.33.53-.92,1.06-1.93,1.6-3.04.14-.27.22-.51.22-.74,0-.22-.1-.39-.29-.51s-.42-.19-.69-.22c-.13-.02-.26-.07-.38-.14s-.18-.16-.18-.25c0-.07.05-.13.15-.17.1-.04.23-.06.37-.06.23,0,.55.01.96.04.39.02.68.04.89.04s.38,0,.53-.02c.15-.01.27-.02.38-.04.39-.05.7-.07.94-.07.16,0,.29.03.39.07.1.05.15.12.15.22s-.04.17-.13.21c-.08.04-.23.1-.43.17-.65.17-1.18.58-1.58,1.23-.4.64-.65,1.05-.76,1.23-.46.71-.94,1.49-1.43,2.34-.17.29-.3.57-.38.84-.08.27-.13.58-.13.92v2.66c0,.44.09.75.26.95.17.2.5.36.99.48.18.05.31.1.4.14.08.05.13.12.13.22,0,.09-.04.15-.14.21s-.2.08-.33.08c-.29,0-.76-.03-1.41-.07-.18-.01-.38-.03-.6-.04-.22-.01-.45-.02-.69-.02-.23,0-.66.02-1.29.07-.63.05-1.08.07-1.36.07-.16,0-.28-.03-.38-.08Z"/><path class="cls-3" d="m219.23,354.81c-1.04-.5-1.86-1.21-2.47-2.11-.61-.91-.92-1.95-.92-3.12s.3-2.15.91-3.12,1.46-1.74,2.57-2.32c1.11-.58,2.39-.87,3.84-.87,1.05,0,2.16.21,3.32.62.24.11.38.28.42.53.1.72.14,1.45.14,2.17,0,.1-.03.17-.09.23s-.13.08-.22.08c-.19,0-.33-.1-.4-.31-.1-.35-.21-.65-.33-.9s-.28-.47-.49-.66c-.58-.55-1.43-.83-2.56-.83-.81,0-1.52.22-2.14.67-.62.45-1.09,1.04-1.43,1.79-.34.74-.51,1.54-.51,2.4,0,1.67.36,3.01,1.07,4.03.71,1.02,1.73,1.53,3.04,1.53.88,0,1.6-.19,2.16-.55.56-.37,1.03-.96,1.41-1.77.05-.1.11-.17.18-.23s.15-.08.22-.08.14.03.19.08c.05.05.08.13.08.23,0,.54-.13,1.23-.4,2.07-.05.14-.11.26-.18.33-.07.08-.17.15-.31.21-1,.44-2.24.65-3.7.65-1.24,0-2.39-.25-3.43-.75Z"/><path class="cls-3" d="m229.76,355.11c0-.11.04-.19.11-.25s.18-.11.33-.14c.74-.22,1.24-.62,1.5-1.21,1.09-2.53,2.14-5.18,3.15-7.97.15-.4.25-.74.33-1.02.07-.28.11-.43.13-.45.45-.11.86-.23,1.23-.36.33-.13.62-.34.89-.63.06-.04.11-.05.15-.05.07,0,.12.04.14.11.08.18.15.35.18.49.8,2.56,1.85,5.84,3.17,9.84.21.65.71,1.08,1.5,1.27.15.04.25.08.33.14.07.06.11.14.11.24,0,.08-.03.15-.1.2s-.15.07-.26.07l-1.38-.04c-.56-.04-1.08-.05-1.56-.05-.23,0-.67.01-1.32.04-.68.03-1.14.04-1.4.04-.11,0-.2-.02-.28-.06-.08-.04-.12-.11-.12-.19,0-.18.15-.31.44-.38.42-.08.73-.19.92-.32s.29-.3.29-.52c0-.05-.01-.13-.04-.25l-.33-1.3-.25-.96c-.02-.1-.06-.17-.11-.21-.05-.04-.12-.06-.22-.06h-3.21c-.08,0-.15.02-.2.07-.05.05-.08.13-.11.24-.33.99-.54,1.66-.63,2.01-.04.12-.05.24-.05.36,0,.24.09.44.27.58.18.15.48.27.91.36.29.06.44.19.44.38,0,.17-.14.25-.42.25l-.98-.02c-.41-.03-.74-.04-1-.04-.17,0-.36,0-.57.03-.21.02-.37.03-.46.03-.34.04-.69.05-1.05.05-.31,0-.47-.1-.47-.29Zm7.2-5c.18,0,.27-.04.27-.13,0-.03-.01-.08-.04-.18l-1.21-4.1c-.04-.13-.07-.2-.11-.2-.01,0-.05.07-.13.2l-1.43,4.1s-.04.1-.04.14c0,.11.11.16.33.16h2.36Z"/><path class="cls-3" d="m254.12,355.26c-.51-.28-.97-.7-1.38-1.24-.45-.57-.84-1.12-1.19-1.67-.34-.54-.7-1.19-1.08-1.94-.12-.27-.28-.46-.49-.56-.21-.12-.41-.18-.62-.18-.13,0-.2.12-.2.36v3.46c0,.38.1.65.3.82.2.17.56.31,1.08.42.13.03.23.06.3.12.07.05.1.13.1.24,0,.18-.11.27-.34.27-.46,0-.96-.02-1.49-.05-.65-.02-1.09-.04-1.32-.04s-.66.01-1.29.04c-.47.04-.92.05-1.36.05-.1,0-.18-.02-.25-.07s-.11-.11-.11-.18c0-.21.13-.33.38-.38.47-.1.79-.23.96-.39.17-.16.25-.43.25-.81v-8.14c0-.44-.07-.74-.21-.92-.14-.17-.43-.3-.88-.39-.28-.05-.42-.18-.42-.38,0-.07.04-.14.11-.19.07-.05.17-.08.29-.08.41,0,.87.03,1.38.07.1,0,.25,0,.45.03.21.02.41.03.62.03.23,0,.55-.02.96-.07.63-.06,1.14-.09,1.54-.09,1.43,0,2.52.24,3.27.73.75.49,1.13,1.22,1.13,2.18,0,.74-.22,1.34-.67,1.79-.45.46-1,.8-1.65,1.02-.08.04-.09.11-.02.22.6.92,1.16,1.71,1.67,2.38.51.66,1.03,1.25,1.58,1.76.35.34.72.55,1.12.64.39.09.87.14,1.42.14.18,0,.27.11.27.33,0,.38-.2.65-.59.83s-.92.27-1.59.27c-.86,0-1.54-.14-2.05-.43Zm-2.73-6.82c.36-.44.54-1.01.54-1.72,0-1.68-.67-2.52-1.99-2.52-.28,0-.47.11-.58.34-.11.22-.16.67-.16,1.33-.01.36-.02,1.21-.02,2.56,0,.24.06.41.17.52.11.1.29.15.52.15.66,0,1.17-.22,1.53-.65Z"/><path class="cls-3" d="m260.54,355.32c-.07-.05-.11-.12-.11-.19s.03-.14.1-.22.17-.13.3-.16c.43-.12.73-.25.9-.4.16-.14.25-.4.25-.78v-8.25c0-.4-.08-.68-.23-.84-.15-.16-.45-.29-.9-.39-.28-.06-.42-.19-.42-.38,0-.07.04-.14.11-.19.07-.05.17-.08.29-.08.46,0,.92.02,1.4.05.63.03,1.07.04,1.32.04,1.49,0,2.79-.02,3.92-.05.37,0,.69-.02.96-.06.27-.04.42-.06.45-.06.1,0,.19.03.29.08.1.05.15.14.16.26.02.23.07.57.14,1.03.1.65.15,1.09.15,1.32,0,.11-.02.19-.07.25-.05.06-.1.09-.16.09-.16,0-.27-.1-.34-.29-.04-.08-.1-.24-.19-.45-.09-.22-.17-.39-.24-.53-.07-.13-.14-.24-.23-.33-.38-.38-.81-.56-1.31-.56h-1.36c-.27,0-.5.07-.69.22s-.29.34-.29.58v3.43c0,.29.15.44.45.44h1.59c.29,0,.5-.09.64-.26.14-.17.27-.45.41-.82.07-.23.19-.34.36-.34.06,0,.11.04.16.11.05.07.07.17.05.29-.05.6-.07,1.09-.07,1.47,0,.51.02,1,.05,1.47l.02.15c0,.22-.07.33-.2.33-.08,0-.17-.04-.24-.13-.08-.08-.14-.19-.17-.33-.11-.39-.23-.67-.37-.85-.14-.18-.32-.27-.55-.27h-1.69c-.3,0-.45.14-.45.42v3.44c0,.35.08.6.24.75.16.15.4.23.72.23h1.56c.58,0,1.04-.13,1.38-.4.34-.27.68-.75,1.03-1.45.08-.15.2-.22.34-.22.06,0,.11.03.14.1s.05.15.05.25c0,.22-.04.47-.11.77-.07.3-.18.67-.33,1.12-.06.17-.11.32-.14.45-.02.07-.08.13-.15.17-.08.04-.16.06-.25.06-.5,0-.97,0-1.43-.02-2.54-.04-4.03-.05-4.48-.05-.4,0-.82.02-1.25.05-.58.02-1,.04-1.25.04-.11,0-.2-.03-.27-.08Z"/><path class="cls-2" d="m411.55,253.95c.16,6.86-.09,13.69-1.48,20.42-.36,1.72-.84,3.46-1.64,5.07-.35.2-.71.33-1.12.23-.02,0-.04-.02-.06-.03-.05-.02-.09-.04-.13-.06-.76-.45-.59-1.22-.48-1.93.9-5.81,1.48-11.66,1.75-17.51.27-6.09.15-12.21.27-18.31.3-15.05-3.82-29.27-8.12-43.43-.9-2.97-2.14-5.9-3.55-8.69-1.24-2.45-1.05-4.64.27-6.9,1.36-2.31,2.36-4.78,3.02-7.38.92-3.65-.16-6.22-3.25-7.99-2.53-1.45-5.14-.82-6.73,1.64-1.28,1.97-1.98,4.27-3.55,6.07-1.04,1.19-2.13,2.31-3.69,2.8-.53.16-1.11.28-1.55-.17-.44-.46-.38-1.05-.06-1.52,1.28-1.82.16-2.45-1.37-3.01-3.77-1.38-6.03-1.04-8.18,1.29-3.47,3.77-3.19,7.72.82,10.93,2.81,2.26,5.65,4.5,9.25,5.43.92.23,1.36.89,1.72,1.75,4.28,9.98,5.66,20.63,7.19,31.23,1.83,12.64,3.15,25.33,3,38.14-.05,4.72-.46,9.38-1.89,13.91-.3.95-.43,2.03-1.58,2.28-.02,0-.03,0-.05.01-.09.02-.18.03-.28.03-1.7-1.47-.63-3.29-.63-4.97v-.07c.72-8.58.54-17.17.51-25.76-.01-2.4-.2-4.8-.34-7.19-.16-2.95-.36-5.89-.53-8.84-.22-3.9-.66-7.79-1.26-11.64-.59-3.82-1.39-7.62-2.18-11.41-.32-1.51-.77-3.02-1.32-4.47-1.13-2.97-1.55-6.18-3.19-9-.42-.73-.72-1.26-1.53-1.52-4.03-1.31-7.34-3.78-10.34-6.67-3.33-3.22-4.16-7.62-2.01-11.77,1.59-3.08,3.64-5.5,7.25-6,2.83-.39,5.38.57,7.73,2.09.72.46,1.39,1,2.24,1.62.85-1.7,1.8-3.27,2.44-4.95,1.81-4.73,8.04-6.3,11.75-4.05,1.35.82,2.54,1.78,3.76,2.74.58.45.86,1.08,1.11,1.74,1.01,2.68.9,5.37.06,8.04-1.12,3.54-3.22,6.53-5.47,9.5,1.23,1.31,1.74,3.07,2.4,4.71,2.19,5.35,4.32,10.75,5.53,16.39.8,3.72,1.69,7.44,2.33,11.21.83,4.83,1.81,9.65,2.44,14.51.45,3.47.6,6.98.7,10.48.1,3.66-.11,7.32-.03,10.98Z"/><path class="cls-2" d="m365.19,117.41c-5.84-1.79-10.94-.42-15.31,3.67-3.77,3.53-5.07,8.22-5.08,13.15-.01,6.16,2.59,11.21,7.48,15.14,3.34,2.68,7,3.64,11.12,3.02,1.36-.21,2.62-.93,3.95-1.36,1.88-.61,3.45-1.71,4.87-3.04,3.72-3.51,5.45-7.87,5.5-12.57.32-8.13-4.57-15.56-12.54-17.99Zm-17.96,18.42c-.13-1-.21-2.03-.13-3.04.54-6.62,3.06-10.81,9.39-13.14,1.34-.49,2.74-.37,4.44-.59-.64,3.84-1.77,7.19-4.07,10.01-2.15,2.65-4.24,5.39-7.18,7.28-.19.13-.36.3-.56.42-1.29.83-1.69.66-1.9-.95Zm12.27,13.1c-4.94-.22-9.85-4.81-11.26-9.5,9.06-3.61,14.53-9.94,16.34-19.54,3.95,1.99,7.01,4.56,8.75,8.55.36.84.36,1.21-.48,1.61-1.83.85-3.41,2.06-4.89,3.47-4.83,4.6-7.1,9.37-8.46,15.42Zm11.95-3.19c-1.07,1.26-2.38,2.21-3.72,3.11-1.91,1.28-4.06.66-6.33.66,3.33-7.95,7.89-13.29,13.37-15.91.66,4.6-.32,8.61-3.32,12.14Z"/><path class="cls-2" d="m396.35,334.34c-2.26-6.34-7.13-9.69-13.35-11.17-4.8-1.15-9.46-.23-13.74,2.27-4.01,2.34-6.88,5.57-7.94,10.25-.55,2.41.16,4.64.51,6.94.28,1.89,1.05,3.59,2.12,5.12,4.55,6.49,10.95,8.75,18.58,7.7,4.23-.59,7.64-2.78,10.48-6.05,2.71-3.11,3.9-6.65,4.04-10.66-.12-1.5-.19-2.98-.7-4.41Zm-29.93,13.18c-1.14-1.32-1.92-2.81-2.58-4.38-.86-2.04.09-3.95.44-6.3,6.23,4.09,11.13,8.8,13.68,15.88-4.83-.06-8.56-1.76-11.54-5.2Zm16.49,4.69c-.88.22-1.08-.21-1.33-.83-.64-1.57-1.09-3.17-2.14-4.61-2.34-3.2-4.57-6.33-8.18-8.4-2.02-1.16-3.98-2.37-6.24-3.29,2.02-5.58,6.6-8.81,11.4-9.43,1.95,9.41,7.35,15.85,16.53,19.27-2.59,3.66-5.75,6.21-10.04,7.29Zm11.31-10.78c-4.34-1.58-7.87-3.91-10.63-7.48-1.68-2.17-3.45-4.23-4.57-6.77-.76-1.72-.56-2.1,1.29-1.97,4.7.33,8.9,1.83,11.77,5.79,2.18,3.02,3.12,6.4,2.14,10.43Z"/><path class="cls-2" d="m400.95,297.96s0,.08-.01.12c0,.01,0,.03,0,.04-.08.68-.39,1.21-1.1,1.46-.31-.31-.62-.62-.92-.92.05-.8-.58-1.04-1.12-1.35-.81-.89-1.38-1.17-2.63-.23-2.34,1.76-5.17,2.74-7.97,3.66-.83.28-1.53-.08-2.29-.13-2.11-.13-3.85-1.27-5.4-2.47-1.91-1.47-1.99-3.77-1.77-6,.43-4.56,2.49-8.2,6.13-11.02,1.55-1.2,2.93-2.54,5.09-2.71.24-1.71-.31-3.53.52-5.19v.07c0,1.15.03,2.29.02,3.44,0,.74.28,1.19,1.04,1.28-.03.07-.06.14-.1.2-1.06,2.2-3.14,3.56-4.64,5.4-1.89,2.31-3.8,4.54-4.35,7.63-.63,3.64,1.98,6.55,5.65,5.87,4.39-.81,7.96-3.13,10.64-6.71.95-1.27,1.92-3.14,3.56-2.02,1.82,1.24-.1,2.72-.72,4.02-.16.35-.44.65-.72.92-1.24,1.2-1.59,2.3.22,3.3.48.26.79.75.89,1.33Z"/><path class="cls-2" d="m413.47,300.23c-3.06,2.17-6.16,2.4-9.47,2.02-1.65-.19-3.12-1.25-4.18-2.67.3-.53.46-1.16,1.06-1.47.02-.01.04-.02.06-.03.7-.38,1.35-.02,1.96.25,3.03,1.33,5.7.4,8.16-1.36,2.45-1.75,3.05-4.95,1.46-7.53-1.25-2.02-2.92-3.67-4.89-5.02-2.38-1.64-2.51-2.65-.5-4.85.06-.06.11-.12.16-.18.38.01.76.03,1.14.04-.24.88-.28,1.51.87,1.93,2.39.88,4.1,2.74,5.86,4.5,3.25,3.27,2.66,11.28-1.68,14.36Z"/><path class="cls-2" d="m397.78,297.31c.37,0,.77-.09,1.09.03,1.01.38.82.86.02,1.32-.67-.2-.96-.72-1.12-1.35Z"/><path class="cls-2" d="m35.53,250.08c-.16,6.86.09,13.69,1.48,20.42.36,1.72.84,3.46,1.64,5.07.35.2.71.33,1.12.23.02,0,.04-.02.06-.03.05-.02.09-.04.13-.06.76-.45.59-1.22.48-1.93-.9-5.81-1.48-11.66-1.75-17.51-.27-6.09-.15-12.21-.27-18.31-.3-15.05,3.82-29.27,8.12-43.43.9-2.97,2.14-5.9,3.55-8.69,1.24-2.45,1.05-4.64-.27-6.9-1.36-2.31-2.36-4.78-3.02-7.38-.92-3.65.16-6.22,3.25-7.99,2.53-1.45,5.14-.82,6.73,1.64,1.28,1.97,1.98,4.27,3.55,6.07,1.04,1.19,2.13,2.31,3.69,2.8.53.16,1.11.28,1.55-.17.44-.46.38-1.05.06-1.52-1.28-1.82-.16-2.45,1.37-3.01,3.77-1.38,6.03-1.04,8.18,1.29,3.47,3.77,3.19,7.72-.82,10.93-2.81,2.26-5.65,4.5-9.25,5.43-.92.23-1.36.89-1.72,1.75-4.28,9.98-5.66,20.63-7.19,31.23-1.83,12.64-3.15,25.33-3,38.14.05,4.72.46,9.38,1.89,13.91.3.95.43,2.03,1.58,2.28.02,0,.03,0,.05.01.09.02.18.03.28.03,1.7-1.47.63-3.29.63-4.97v-.07c-.72-8.58-.54-17.17-.51-25.76.01-2.4.2-4.8.34-7.19.16-2.95.36-5.89.53-8.84.22-3.9.66-7.79,1.26-11.64.59-3.82,1.39-7.62,2.18-11.41.32-1.51.77-3.02,1.32-4.47,1.13-2.97,1.55-6.18,3.19-9,.42-.73.72-1.26,1.53-1.52,4.03-1.31,7.34-3.78,10.34-6.67,3.33-3.22,4.16-7.62,2.01-11.77-1.59-3.08-3.64-5.5-7.25-6-2.83-.39-5.38.57-7.73,2.09-.72.46-1.39,1-2.24,1.62-.85-1.7-1.8-3.27-2.44-4.95-1.81-4.73-8.04-6.3-11.75-4.05-1.35.82-2.54,1.78-3.76,2.74-.58.45-.86,1.08-1.11,1.74-1.01,2.68-.9,5.37-.06,8.04,1.12,3.54,3.22,6.53,5.47,9.5-1.23,1.31-1.74,3.07-2.4,4.71-2.19,5.35-4.32,10.75-5.53,16.39-.8,3.72-1.69,7.44-2.33,11.21-.83,4.83-1.81,9.65-2.44,14.51-.45,3.47-.6,6.98-.7,10.48-.1,3.66.11,7.32.03,10.98Z"/><path class="cls-2" d="m69.36,131.53c.05,4.7,1.77,9.06,5.5,12.57,1.42,1.33,2.99,2.43,4.87,3.04,1.33.43,2.6,1.15,3.95,1.36,4.11.63,7.78-.34,11.12-3.02,4.9-3.93,7.5-8.97,7.48-15.14,0-4.92-1.31-9.62-5.08-13.15-4.37-4.09-9.47-5.46-15.31-3.67-7.96,2.43-12.86,9.86-12.54,17.99Zm28.6,1.37c-.2-.13-.37-.3-.56-.42-2.93-1.89-5.03-4.63-7.18-7.28-2.29-2.82-3.42-6.17-4.07-10.01,1.7.22,3.1.1,4.44.59,6.32,2.33,8.85,6.52,9.39,13.14.08,1.01,0,2.04-.13,3.04-.21,1.61-.6,1.77-1.9.95Zm-18.83-3.26c-1.48-1.41-3.06-2.61-4.89-3.47-.85-.39-.85-.77-.48-1.61,1.74-3.99,4.8-6.56,8.75-8.55,1.81,9.59,7.29,15.93,16.34,19.54-1.41,4.69-6.32,9.28-11.26,9.5-1.36-6.05-3.63-10.82-8.46-15.42Zm-6.81.09c5.47,2.62,10.04,7.96,13.37,15.91-2.27,0-4.42.62-6.33-.66-1.34-.9-2.64-1.85-3.72-3.11-3-3.53-3.98-7.54-3.32-12.14Z"/><path class="cls-2" d="m50.04,334.87c.14,4.01,1.33,7.54,4.04,10.66,2.84,3.26,6.25,5.46,10.48,6.05,7.63,1.06,14.03-1.2,18.58-7.7,1.07-1.54,1.85-3.24,2.12-5.12.34-2.3,1.05-4.53.51-6.94-1.07-4.68-3.93-7.92-7.94-10.25-4.28-2.5-8.93-3.41-13.74-2.27-6.22,1.48-11.09,4.83-13.35,11.17-.51,1.42-.58,2.9-.7,4.41Zm19.09,13.97c2.56-7.08,7.45-11.79,13.68-15.88.35,2.34,1.3,4.26.44,6.3-.66,1.57-1.45,3.06-2.58,4.38-2.98,3.44-6.71,5.14-11.54,5.2Zm-14.99-7.8c9.19-3.43,14.58-9.86,16.53-19.27,4.79.62,9.38,3.85,11.4,9.43-2.26.92-4.22,2.13-6.24,3.29-3.6,2.07-5.84,5.2-8.18,8.4-1.05,1.44-1.5,3.04-2.14,4.61-.25.63-.45,1.06-1.33.83-4.29-1.08-7.45-3.63-10.04-7.29Zm.87-13.92c2.87-3.97,7.07-5.46,11.77-5.79,1.85-.13,2.05.25,1.29,1.97-1.11,2.54-2.89,4.6-4.57,6.77-2.77,3.57-6.29,5.9-10.63,7.48-.99-4.03-.04-7.41,2.14-10.43Z"/><path class="cls-2" d="m46.14,294.09s0,.08.01.12c0,.01,0,.03,0,.04.08.68.39,1.21,1.1,1.46.31-.31.62-.62.92-.92-.05-.8.58-1.04,1.12-1.35.81-.89,1.38-1.17,2.63-.23,2.34,1.76,5.17,2.74,7.97,3.66.83.28,1.53-.08,2.29-.13,2.11-.13,3.85-1.27,5.4-2.47,1.91-1.47,1.99-3.77,1.77-6-.43-4.56-2.49-8.2-6.13-11.02-1.55-1.2-2.93-2.54-5.09-2.71-.24-1.71.31-3.53-.52-5.19v.07c0,1.15-.03,2.29-.02,3.44,0,.74-.28,1.19-1.04,1.28.03.07.06.14.1.2,1.06,2.2,3.14,3.56,4.64,5.4,1.89,2.31,3.8,4.54,4.35,7.63.63,3.64-1.98,6.55-5.65,5.87-4.39-.81-7.96-3.13-10.64-6.71-.95-1.27-1.92-3.14-3.56-2.02-1.82,1.24.1,2.72.72,4.02.16.35.44.65.72.92,1.24,1.2,1.59,2.3-.22,3.3-.48.26-.79.75-.89,1.33Z"/><path class="cls-2" d="m33.62,296.36c3.06,2.17,6.16,2.4,9.47,2.02,1.65-.19,3.12-1.25,4.18-2.67-.3-.53-.46-1.16-1.06-1.47-.02-.01-.04-.02-.06-.03-.7-.38-1.35-.02-1.96.25-3.03,1.33-5.7.4-8.16-1.36-2.45-1.75-3.05-4.95-1.46-7.53,1.25-2.02,2.92-3.67,4.89-5.02,2.38-1.64,2.51-2.65.5-4.85-.06-.06-.11-.12-.16-.18-.38.01-.76.03-1.14.04.24.88.28,1.51-.87,1.93-2.39.88-4.1,2.74-5.86,4.5-3.25,3.27-2.66,11.28,1.68,14.36Z"/><path class="cls-2" d="m49.31,293.44c-.37,0-.77-.09-1.09.03-1.01.38-.82.86-.02,1.32.67-.2.96-.72,1.12-1.35Z"/></svg>