<?xml version="1.0" encoding="UTF-8"?><svg id="Layer_1" xmlns="http://www.w3.org/2000/svg" viewBox="0 0 510.2 242.69"><defs><style>.cls-1{fill:#fffdf8;stroke-width:0px;}</style></defs><path class="cls-1" d="m139.18,236.91c-.54-.04-.97-.05-1.28-.05l-1.19.02c-.62.02-1.07.04-1.35.04-.1,0-.18-.02-.25-.07-.07-.05-.11-.11-.11-.18,0-.2.13-.33.38-.38.47-.1.78-.22.95-.38.16-.16.24-.42.24-.79v-8.17c0-.4-.08-.67-.23-.83-.16-.16-.47-.29-.95-.4-.25-.06-.38-.19-.38-.38,0-.08.04-.15.11-.2.07-.05.16-.07.25-.07.44,0,.89.02,1.33.05.58.02.98.04,1.22.04.2,0,.76-.02,1.67-.07.82-.06,1.48-.09,2-.09,1.2,0,2.29.25,3.27.74.98.49,1.75,1.18,2.3,2.07.56.89.84,1.89.84,3.01s-.26,2.11-.77,3.05c-.52.94-1.26,1.7-2.24,2.27-.98.57-2.12.85-3.43.85-.58,0-1.37-.02-2.38-.07Zm4.85-2.12c.63-.85.94-2.02.94-3.49,0-1.07-.15-2-.46-2.81-.31-.8-.75-1.43-1.34-1.87-.59-.44-1.28-.67-2.09-.67-.66,0-1.12.04-1.37.12s-.38.27-.38.57v7.85c0,.58.16.98.49,1.22.32.24.81.36,1.46.36,1.2,0,2.12-.43,2.75-1.28Z"/><path class="cls-1" d="m149.44,236.66c0-.11.04-.19.11-.25.07-.06.18-.11.32-.14.73-.22,1.23-.62,1.49-1.21,1.08-2.51,2.12-5.15,3.13-7.92.14-.4.25-.73.32-1.01.07-.28.11-.43.13-.45.44-.11.85-.23,1.22-.36.32-.13.62-.34.88-.63.06-.04.11-.05.14-.05.07,0,.12.04.14.11.08.18.14.34.18.49.79,2.54,1.84,5.8,3.15,9.77.2.65.7,1.07,1.49,1.26.14.04.25.08.32.14.07.06.11.14.11.23,0,.08-.03.15-.1.2-.07.05-.15.07-.26.07l-1.37-.04c-.55-.04-1.07-.05-1.55-.05-.23,0-.67.01-1.31.04-.67.02-1.13.04-1.39.04-.11,0-.2-.02-.28-.06s-.12-.1-.12-.19c0-.18.14-.31.43-.38.42-.08.73-.19.92-.32.19-.13.29-.3.29-.51,0-.05-.01-.13-.04-.25l-.32-1.3-.25-.95c-.02-.1-.06-.17-.11-.21s-.12-.06-.22-.06h-3.19c-.08,0-.15.02-.2.07s-.08.13-.11.23c-.32.98-.53,1.65-.63,2-.04.12-.05.24-.05.36,0,.24.09.43.27.58.18.14.48.26.9.36.29.06.43.19.43.38,0,.17-.14.25-.41.25l-.97-.02c-.41-.02-.74-.04-.99-.04-.17,0-.36,0-.57.03-.21.02-.36.03-.46.03-.34.04-.68.05-1.04.05-.31,0-.47-.1-.47-.29Zm7.15-4.97c.18,0,.27-.04.27-.13,0-.02-.01-.08-.04-.18l-1.21-4.07c-.04-.13-.07-.2-.11-.2-.01,0-.05.07-.13.2l-1.42,4.07s-.04.1-.04.14c0,.11.11.16.32.16h2.34Z"/><path class="cls-1" d="m166.02,236.88c-.1-.05-.14-.12-.14-.21,0-.18.18-.31.54-.38.44-.08.76-.24.94-.48.19-.23.28-.55.28-.95v-2.48c0-.37-.05-.69-.14-.95-.1-.26-.23-.55-.41-.86l-2.32-3.58c-.2-.32-.41-.59-.62-.81s-.47-.37-.78-.45c-.16-.06-.27-.11-.33-.16s-.1-.13-.1-.23c0-.07.04-.13.11-.18.07-.05.16-.07.27-.07.49,0,.97.02,1.44.05.16.01.38.02.68.04s.56.02.79.02c.37,0,.74-.02,1.1-.05.12-.01.3-.02.53-.04s.44-.02.62-.02c.12,0,.23.02.33.07.1.05.15.11.15.18,0,.1-.05.17-.15.23-.1.06-.23.11-.37.14-.35.08-.59.17-.72.26-.13.09-.2.23-.2.42,0,.18.07.39.2.63l1.85,3.19c.1.22.2.32.32.32.1,0,.2-.11.32-.32.53-.91,1.06-1.92,1.58-3.02.14-.26.22-.51.22-.74,0-.22-.1-.38-.29-.5-.19-.12-.42-.19-.68-.22-.13-.02-.26-.07-.38-.14-.12-.07-.18-.16-.18-.25,0-.07.05-.13.15-.17.1-.04.22-.06.37-.06.23,0,.55.01.95.04.38.02.68.04.88.04s.38,0,.52-.02c.14-.01.27-.02.38-.04.38-.05.7-.07.94-.07.16,0,.29.02.39.07.1.05.15.12.15.22s-.04.17-.13.21c-.08.04-.23.1-.43.17-.65.17-1.17.58-1.57,1.22-.4.64-.65,1.04-.76,1.22-.46.71-.93,1.48-1.42,2.32-.17.29-.29.57-.38.84-.08.27-.13.57-.13.91v2.65c0,.43.09.75.26.95.17.2.5.36.98.48.18.05.31.1.4.14s.13.12.13.22c0,.08-.04.15-.13.21-.09.05-.2.08-.33.08-.29,0-.76-.02-1.4-.07-.18-.01-.38-.02-.59-.04-.22-.01-.44-.02-.68-.02-.23,0-.65.02-1.28.07-.62.05-1.07.07-1.35.07-.16,0-.28-.03-.38-.08Z"/><path class="cls-1" d="m179.8,236.36c-1.03-.5-1.85-1.2-2.46-2.1-.61-.9-.91-1.93-.91-3.1,0-1.1.3-2.14.9-3.1.6-.96,1.45-1.73,2.56-2.3,1.1-.58,2.38-.86,3.82-.86,1.04,0,2.14.2,3.29.61.24.11.38.28.41.52.1.72.14,1.44.14,2.16,0,.1-.03.17-.09.23-.06.05-.13.08-.22.08-.19,0-.32-.1-.4-.31-.1-.35-.2-.64-.32-.89-.12-.25-.28-.46-.49-.66-.58-.55-1.42-.83-2.54-.83-.8,0-1.51.22-2.12.67-.61.44-1.09,1.04-1.42,1.77-.34.74-.5,1.53-.5,2.38,0,1.66.35,2.99,1.06,4,.71,1.01,1.72,1.52,3.02,1.52.88,0,1.59-.18,2.14-.55.55-.37,1.02-.95,1.4-1.75.05-.1.11-.17.18-.22.07-.05.14-.08.22-.08s.13.03.19.08.08.13.08.22c0,.54-.13,1.22-.4,2.05-.05.14-.11.25-.18.33s-.17.15-.31.21c-1,.43-2.22.65-3.67.65-1.24,0-2.37-.25-3.4-.75Z"/><path class="cls-1" d="m190.26,236.66c0-.11.04-.19.11-.25.07-.06.18-.11.32-.14.73-.22,1.23-.62,1.49-1.21,1.08-2.51,2.12-5.15,3.13-7.92.14-.4.25-.73.32-1.01.07-.28.11-.43.13-.45.44-.11.85-.23,1.22-.36.32-.13.62-.34.88-.63.06-.04.11-.05.14-.05.07,0,.12.04.14.11.08.18.14.34.18.49.79,2.54,1.84,5.8,3.15,9.77.2.65.7,1.07,1.49,1.26.14.04.25.08.32.14.07.06.11.14.11.23,0,.08-.03.15-.1.2-.07.05-.15.07-.26.07l-1.37-.04c-.55-.04-1.07-.05-1.55-.05-.23,0-.67.01-1.31.04-.67.02-1.13.04-1.39.04-.11,0-.2-.02-.28-.06-.08-.04-.12-.1-.12-.19,0-.18.14-.31.43-.38.42-.08.73-.19.92-.32.19-.13.29-.3.29-.51,0-.05-.01-.13-.04-.25l-.32-1.3-.25-.95c-.02-.1-.06-.17-.11-.21s-.12-.06-.22-.06h-3.19c-.08,0-.15.02-.2.07-.05.05-.08.13-.11.23-.32.98-.53,1.65-.63,2-.04.12-.05.24-.05.36,0,.24.09.43.27.58.18.14.48.26.9.36.29.06.43.19.43.38,0,.17-.14.25-.41.25l-.97-.02c-.41-.02-.74-.04-.99-.04-.17,0-.36,0-.57.03-.21.02-.36.03-.46.03-.34.04-.68.05-1.04.05-.31,0-.47-.1-.47-.29Zm7.15-4.97c.18,0,.27-.04.27-.13,0-.02-.01-.08-.04-.18l-1.21-4.07c-.04-.13-.07-.2-.11-.2-.01,0-.05.07-.13.2l-1.42,4.07s-.04.1-.04.14c0,.11.11.16.32.16h2.34Z"/><path class="cls-1" d="m214.46,236.81c-.5-.28-.96-.69-1.37-1.23-.44-.56-.84-1.12-1.18-1.66-.34-.54-.7-1.18-1.07-1.93-.12-.26-.28-.45-.49-.56-.2-.12-.41-.18-.61-.18-.13,0-.2.12-.2.36v3.44c0,.37.1.64.3.81s.55.31,1.07.41c.13.02.23.06.3.12.07.05.1.13.1.24,0,.18-.11.27-.34.27-.46,0-.95-.02-1.48-.05-.65-.02-1.09-.04-1.31-.04s-.65.01-1.28.04c-.47.04-.92.05-1.35.05-.1,0-.18-.02-.25-.07-.07-.05-.11-.11-.11-.18,0-.2.13-.33.38-.38.47-.1.79-.22.95-.39s.25-.43.25-.8v-8.08c0-.43-.07-.74-.21-.91s-.43-.3-.87-.39c-.28-.05-.41-.17-.41-.38,0-.07.04-.14.11-.19s.17-.08.29-.08c.41,0,.86.02,1.37.07.1,0,.25,0,.45.03.2.02.41.03.61.03.23,0,.55-.02.95-.07.62-.06,1.13-.09,1.53-.09,1.42,0,2.5.24,3.25.73.75.49,1.12,1.21,1.12,2.17,0,.73-.22,1.33-.67,1.78-.44.46-.99.79-1.64,1.01-.08.04-.09.11-.02.22.6.91,1.15,1.7,1.66,2.36.5.66,1.03,1.24,1.57,1.75.35.34.72.55,1.11.64.39.09.86.13,1.41.13.18,0,.27.11.27.32,0,.37-.2.65-.58.83-.39.18-.92.27-1.58.27-.85,0-1.53-.14-2.03-.42Zm-2.71-6.78c.35-.43.53-1,.53-1.71,0-1.67-.66-2.5-1.98-2.5-.28,0-.47.11-.58.33-.11.22-.16.66-.16,1.32-.01.36-.02,1.21-.02,2.54,0,.24.06.41.17.51.11.1.28.15.51.15.66,0,1.17-.22,1.52-.65Z"/><path class="cls-1" d="m220.83,236.86c-.07-.05-.11-.12-.11-.19s.03-.14.1-.22c.07-.07.17-.13.3-.16.43-.12.73-.25.89-.4.16-.14.24-.4.24-.77v-8.19c0-.4-.08-.67-.23-.84s-.45-.29-.89-.39c-.28-.06-.41-.19-.41-.38,0-.07.04-.14.11-.19.07-.05.17-.08.29-.08.46,0,.92.02,1.39.05.62.02,1.06.04,1.31.04,1.48,0,2.77-.02,3.89-.05.37,0,.69-.02.95-.06.26-.04.41-.06.45-.06.1,0,.19.03.29.08s.15.14.16.26c.02.23.07.57.14,1.03.1.65.14,1.09.14,1.31,0,.11-.02.19-.07.25-.05.06-.1.09-.16.09-.16,0-.27-.1-.34-.29-.04-.08-.1-.23-.19-.45-.09-.22-.17-.39-.23-.52-.07-.13-.14-.24-.22-.32-.37-.37-.8-.56-1.3-.56h-1.35c-.26,0-.49.07-.68.22-.19.14-.29.34-.29.58v3.4c0,.29.15.43.45.43h1.58c.29,0,.5-.09.64-.26.14-.17.27-.45.41-.82.07-.23.19-.34.36-.34.06,0,.11.04.16.11.05.07.07.17.05.29-.05.6-.07,1.09-.07,1.46,0,.5.02.99.05,1.46l.02.14c0,.22-.07.32-.2.32-.08,0-.17-.04-.24-.13s-.13-.19-.17-.32c-.11-.38-.23-.67-.37-.85-.14-.18-.32-.27-.55-.27h-1.67c-.3,0-.45.14-.45.41v3.42c0,.35.08.6.23.75.16.15.4.22.72.22h1.55c.58,0,1.03-.13,1.37-.4.33-.26.68-.74,1.03-1.44.08-.14.2-.22.34-.22.06,0,.11.03.14.1.03.07.04.15.04.24,0,.22-.04.47-.11.77s-.18.66-.32,1.11c-.06.17-.11.32-.14.45-.02.07-.08.13-.15.17s-.16.06-.24.06c-.49,0-.97,0-1.42-.02-2.52-.04-4-.05-4.45-.05-.4,0-.81.02-1.24.05-.58.02-.99.04-1.24.04-.11,0-.2-.03-.27-.08Z"/><path class="cls-1" d="m240.81,236.84c-.49-.2-.89-.5-1.21-.9-.31-.4-.47-.87-.47-1.42,0-.72.25-1.41.76-2.08s1.2-1.21,2.09-1.63l.36-.18-.14-.16s-.17-.17-.4-.41c-.23-.23-.42-.51-.58-.82-.16-.31-.23-.63-.23-.95,0-.42.14-.8.41-1.13s.66-.6,1.16-.8,1.06-.3,1.68-.3c.54,0,1.02.09,1.44.26s.75.41.99.71c.24.3.36.63.36.99,0,.52-.16.93-.48,1.24-.32.31-.79.59-1.43.83l-.4.14.36.38c.5.5,1.18,1.2,2.02,2.09l.32.36.25-.23c.34-.32.61-.67.83-1.05s.32-.67.32-.89c0-.28-.17-.47-.52-.59-.02-.01-.07-.04-.14-.07-.07-.04-.13-.08-.16-.12-.04-.04-.05-.09-.05-.15,0-.11.04-.18.14-.21.09-.03.22-.04.39-.04.13,0,.38.02.74.07.43.05.76.07.99.07.26,0,.7-.07,1.3-.22.53-.12.88-.18,1.04-.18.07,0,.14.02.2.07.06.05.09.1.09.16,0,.11-.06.21-.17.31s-.25.16-.42.18c-.58.1-1.13.41-1.66.94-.6.58-1.21,1.13-1.82,1.66l-.92.85.32.4c.47.56.86.98,1.17,1.25.31.27.64.41.97.41.5,0,.98-.09,1.42-.27.04-.01.1-.03.18-.06.08-.03.16-.04.23-.04.1,0,.17.02.22.05.05.04.08.1.08.2,0,.18-.13.4-.4.66-.27.26-.63.48-1.09.67-.46.19-.94.28-1.46.28-.68,0-1.24-.12-1.66-.37-.42-.25-.88-.67-1.37-1.27l-.32-.38-.11.11c-.53.62-1.11,1.1-1.75,1.43-.64.33-1.3.5-1.98.5-.52,0-1.02-.1-1.51-.31Zm3.86-1.55c.32-.1.61-.28.87-.54l.13-.13-.27-.34c-.9-1.09-1.72-2.05-2.45-2.86l-.22-.25-.32.18c-.6.34-.9.94-.9,1.82,0,.7.19,1.25.58,1.66.38.41.9.61,1.55.61.37,0,.72-.05,1.03-.14Zm-.1-5.67c.17-.13.29-.34.38-.64s.13-.62.13-.96c0-.37-.08-.68-.23-.94-.16-.25-.38-.38-.68-.38-.23,0-.43.09-.61.27-.18.18-.27.41-.27.68,0,.43.07.78.2,1.04.13.26.31.51.54.75l.36.36.2-.18Z"/><path class="cls-1" d="m264.25,236.84c-.09-.05-.14-.11-.14-.18,0-.19.14-.32.43-.38.48-.11.82-.24,1.02-.41.2-.16.3-.42.3-.78v-7.43c0-.65-.02-1.07-.06-1.27-.04-.2-.12-.32-.23-.37-.14-.07-.43-.11-.85-.11h-.4c-.37,0-.73.09-1.08.27-.35.18-.62.41-.83.7-.18.26-.35.48-.51.66-.16.17-.32.26-.48.26-.17,0-.25-.11-.25-.32,0-.18.04-.33.11-.45.24-.47.41-.86.51-1.19.1-.32.17-.69.21-1.1.04-.31.19-.47.45-.47.06,0,.12.04.19.13.07.08.11.14.12.16.1.13.19.24.27.32.11.08.3.15.57.21.27.05.51.08.73.08h6.77c.28,0,.52-.03.75-.08.22-.05.39-.12.5-.19.08-.06.21-.16.38-.29.07-.07.15-.13.23-.19.08-.05.17-.08.25-.08.13,0,.2.1.2.31,0,.08-.01.21-.04.38-.06.22-.1.36-.13.43-.01.07-.06.26-.13.57s-.12.59-.12.86v.34c0,.44-.1.67-.31.67-.11,0-.2-.05-.27-.16-.07-.11-.15-.29-.23-.56-.14-.44-.35-.77-.61-.96-.26-.2-.65-.3-1.15-.3h-.94c-.23,0-.4.04-.52.14-.12.09-.21.27-.26.54-.05.27-.08.68-.08,1.23v7.25c0,.34.1.59.29.76.19.17.53.32,1.01.45.14.05.25.1.32.14s.11.12.11.22c0,.08-.04.15-.11.2s-.16.07-.27.07c-.44,0-.92-.02-1.42-.05-.65-.02-1.09-.04-1.31-.04-.24,0-.67.01-1.3.04-.49.04-.96.05-1.4.05-.1,0-.19-.02-.28-.07Z"/><path class="cls-1" d="m284.71,236.81c-.5-.28-.96-.69-1.37-1.23-.44-.56-.84-1.12-1.18-1.66s-.7-1.18-1.07-1.93c-.12-.26-.28-.45-.49-.56-.21-.12-.41-.18-.61-.18-.13,0-.2.12-.2.36v3.44c0,.37.1.64.3.81.2.17.55.31,1.07.41.13.02.23.06.3.12.07.05.1.13.1.24,0,.18-.11.27-.34.27-.46,0-.95-.02-1.48-.05-.65-.02-1.09-.04-1.31-.04s-.65.01-1.28.04c-.47.04-.92.05-1.35.05-.1,0-.18-.02-.25-.07s-.11-.11-.11-.18c0-.2.13-.33.38-.38.47-.1.79-.22.95-.39.17-.16.25-.43.25-.8v-8.08c0-.43-.07-.74-.21-.91-.14-.17-.43-.3-.87-.39-.28-.05-.41-.17-.41-.38,0-.07.04-.14.11-.19.07-.05.17-.08.29-.08.41,0,.86.02,1.37.07.1,0,.25,0,.45.03.2.02.41.03.61.03.23,0,.55-.02.95-.07.62-.06,1.13-.09,1.53-.09,1.42,0,2.5.24,3.25.73.75.49,1.12,1.21,1.12,2.17,0,.73-.22,1.33-.67,1.78-.44.46-.99.79-1.64,1.01-.08.04-.09.11-.02.22.6.91,1.15,1.7,1.66,2.36.5.66,1.03,1.24,1.57,1.75.35.34.72.55,1.11.64.39.09.86.13,1.41.13.18,0,.27.11.27.32,0,.37-.2.65-.58.83-.39.18-.92.27-1.58.27-.85,0-1.53-.14-2.03-.42Zm-2.71-6.78c.35-.43.53-1,.53-1.71,0-1.67-.66-2.5-1.98-2.5-.28,0-.47.11-.58.33-.11.22-.16.66-.16,1.32-.01.36-.02,1.21-.02,2.54,0,.24.06.41.17.51.11.1.29.15.51.15.66,0,1.17-.22,1.52-.65Z"/><path class="cls-1" d="m290.67,236.66c0-.11.04-.19.11-.25.07-.06.18-.11.32-.14.73-.22,1.23-.62,1.49-1.21,1.08-2.51,2.12-5.15,3.13-7.92.14-.4.25-.73.32-1.01.07-.28.11-.43.13-.45.44-.11.85-.23,1.22-.36.32-.13.62-.34.88-.63.06-.04.11-.05.14-.05.07,0,.12.04.14.11.08.18.14.34.18.49.79,2.54,1.84,5.8,3.15,9.77.2.65.7,1.07,1.49,1.26.14.04.25.08.32.14.07.06.11.14.11.23,0,.08-.03.15-.1.2-.07.05-.15.07-.26.07l-1.37-.04c-.55-.04-1.07-.05-1.55-.05-.23,0-.67.01-1.31.04-.67.02-1.13.04-1.39.04-.11,0-.2-.02-.28-.06-.08-.04-.12-.1-.12-.19,0-.18.14-.31.43-.38.42-.08.73-.19.92-.32.19-.13.29-.3.29-.51,0-.05-.01-.13-.04-.25l-.32-1.3-.25-.95c-.02-.1-.06-.17-.11-.21s-.12-.06-.22-.06h-3.19c-.08,0-.15.02-.2.07-.05.05-.08.13-.11.23-.32.98-.53,1.65-.63,2-.04.12-.05.24-.05.36,0,.24.09.43.27.58.18.14.48.26.9.36.29.06.43.19.43.38,0,.17-.14.25-.41.25l-.97-.02c-.41-.02-.74-.04-.99-.04-.17,0-.36,0-.57.03-.21.02-.36.03-.46.03-.34.04-.68.05-1.04.05-.31,0-.47-.1-.47-.29Zm7.15-4.97c.18,0,.27-.04.27-.13,0-.02-.01-.08-.04-.18l-1.21-4.07c-.04-.13-.07-.2-.11-.2-.01,0-.05.07-.13.2l-1.42,4.07s-.04.1-.04.14c0,.11.11.16.32.16h2.34Z"/><path class="cls-1" d="m305.68,236.84c-.07-.05-.11-.11-.11-.18,0-.2.13-.33.38-.38.47-.11.79-.24.96-.39s.26-.41.26-.78v-8.17c0-.4-.08-.67-.23-.83s-.47-.29-.95-.4c-.25-.06-.38-.19-.38-.38,0-.08.04-.15.11-.2s.16-.07.25-.07c.43,0,.88.02,1.35.05.6.02,1.01.04,1.24.04.2,0,.62-.01,1.24-.04.65-.02,1.11-.04,1.39-.04.23,0,.34.08.34.25,0,.11-.03.19-.09.24-.06.05-.16.1-.31.14-.48.13-.8.28-.95.44s-.23.43-.23.8v8.14c0,.35.08.6.25.76.17.16.49.3.97.43.13.04.23.08.29.13.06.05.09.13.09.23,0,.18-.11.27-.32.27-.43,0-.89-.02-1.39-.05-.62-.02-1.05-.04-1.28-.04-.24,0-.66.01-1.26.04-.47.04-.92.05-1.37.05-.1,0-.18-.02-.25-.07Z"/><path class="cls-1" d="m325.06,236.88c-.35-.21-.69-.53-1.03-.95-1.1-1.18-2.26-2.43-3.46-3.76l-3.47-3.74c-.12-.14-.2-.22-.23-.22-.08,0-.13.12-.13.36-.01.43,0,1.02,0,1.76.02.74.03,1.28.03,1.62.02,1.37.04,2.33.04,2.9,0,.38.12.69.35.92.23.23.59.4,1.07.5.34.07.5.19.5.36,0,.08-.04.15-.13.2s-.2.07-.31.07c-.37,0-.76-.01-1.17-.04-.34-.02-.61-.04-.83-.04-.36,0-.71.01-1.04.04-.34.02-.55.04-.63.04-.1,0-.19-.02-.29-.07-.1-.05-.14-.11-.14-.18,0-.08.04-.15.12-.21.08-.05.2-.11.35-.17.55-.2.86-.7.92-1.48.1-.89.18-1.96.26-3.23.08-1.27.12-2.55.12-3.86,0-.56-.14-.99-.41-1.28-.28-.29-.68-.53-1.22-.74-.34-.1-.5-.23-.5-.4,0-.19.16-.29.47-.29.22,0,.68.01,1.4.04,1.3.04,1.99.05,2.09.05.14,0,.27.07.38.2.47.53,1.4,1.58,2.79,3.17,1.18,1.34,2.48,2.82,3.92,4.43.12.16.22.23.29.23.1,0,.14-.09.14-.27l.02-2.52c0-1.31-.02-2.47-.05-3.47-.01-.31-.13-.55-.34-.72-.22-.17-.55-.31-.99-.41-.32-.07-.49-.2-.49-.38,0-.07.04-.13.13-.18.09-.05.2-.07.32-.07l1.75.02.83-.02c.38-.02.75-.04,1.1-.04.13,0,.24.02.32.07s.13.11.13.2c0,.18-.16.3-.47.36-.43.08-.74.2-.91.36s-.27.41-.28.76c0,.54-.01,1.21-.04,2.03-.02.81-.04,1.39-.05,1.74-.06,1.4-.09,2.55-.09,3.44,0,.46.05,1.03.14,1.73l.05.65c0,.54-.17.81-.5.81-.19,0-.46-.11-.81-.31Z"/><path class="cls-1" d="m330.39,236.84c-.07-.05-.11-.11-.11-.18,0-.2.13-.33.38-.38.47-.11.79-.24.96-.39s.26-.41.26-.78v-8.17c0-.4-.08-.67-.23-.83-.16-.16-.47-.29-.95-.4-.25-.06-.38-.19-.38-.38,0-.08.04-.15.11-.2.07-.05.16-.07.25-.07.43,0,.88.02,1.35.05.6.02,1.01.04,1.24.04.2,0,.62-.01,1.24-.04.65-.02,1.11-.04,1.39-.04.23,0,.34.08.34.25,0,.11-.03.19-.09.24-.06.05-.16.1-.31.14-.48.13-.8.28-.95.44-.16.16-.23.43-.23.8v8.14c0,.35.08.6.25.76s.49.3.97.43c.13.04.23.08.29.13.06.05.09.13.09.23,0,.18-.11.27-.32.27-.43,0-.89-.02-1.39-.05-.62-.02-1.05-.04-1.28-.04-.24,0-.66.01-1.26.04-.47.04-.92.05-1.37.05-.1,0-.18-.02-.25-.07Z"/><path class="cls-1" d="m349.78,236.88c-.35-.21-.69-.53-1.03-.95-1.1-1.18-2.26-2.43-3.46-3.76l-3.47-3.74c-.12-.14-.2-.22-.23-.22-.08,0-.13.12-.13.36-.01.43,0,1.02,0,1.76.02.74.03,1.28.03,1.62.02,1.37.04,2.33.04,2.9,0,.38.12.69.35.92.23.23.59.4,1.07.5.34.07.5.19.5.36,0,.08-.04.15-.13.2s-.2.07-.31.07c-.37,0-.76-.01-1.17-.04-.34-.02-.61-.04-.83-.04-.36,0-.71.01-1.04.04-.34.02-.55.04-.63.04-.1,0-.19-.02-.29-.07-.1-.05-.14-.11-.14-.18,0-.08.04-.15.12-.21.08-.05.2-.11.35-.17.55-.2.86-.7.92-1.48.1-.89.18-1.96.26-3.23.08-1.27.12-2.55.12-3.86,0-.56-.14-.99-.41-1.28-.28-.29-.68-.53-1.22-.74-.34-.1-.5-.23-.5-.4,0-.19.16-.29.47-.29.22,0,.68.01,1.4.04,1.3.04,1.99.05,2.09.05.14,0,.27.07.38.2.47.53,1.4,1.58,2.79,3.17,1.18,1.34,2.48,2.82,3.92,4.43.12.16.22.23.29.23.1,0,.14-.09.14-.27l.02-2.52c0-1.31-.02-2.47-.05-3.47-.01-.31-.13-.55-.34-.72-.22-.17-.55-.31-.99-.41-.32-.07-.49-.2-.49-.38,0-.07.04-.13.13-.18.09-.05.2-.07.32-.07l1.75.02.83-.02c.38-.02.75-.04,1.1-.04.13,0,.24.02.32.07s.13.11.13.2c0,.18-.16.3-.47.36-.43.08-.74.2-.91.36s-.27.41-.28.76c0,.54-.01,1.21-.04,2.03-.02.81-.04,1.39-.05,1.74-.06,1.4-.09,2.55-.09,3.44,0,.46.05,1.03.14,1.73l.05.65c0,.54-.17.81-.5.81-.19,0-.46-.11-.81-.31Z"/><path class="cls-1" d="m358.36,236.36c-.96-.5-1.72-1.2-2.29-2.1-.56-.9-.85-1.92-.85-3.06s.28-2.15.85-3.11,1.36-1.73,2.39-2.31c1.03-.58,2.21-.87,3.55-.87.48,0,1.1.07,1.87.21.77.14,1.35.29,1.75.44.2.07.32.22.36.43.14.95.22,1.66.22,2.12,0,.12-.03.21-.08.27-.05.06-.13.09-.22.09-.13,0-.23-.03-.31-.1-.07-.07-.13-.16-.18-.28-.26-.6-.55-1.06-.86-1.39-.26-.26-.57-.47-.93-.63-.35-.16-.81-.23-1.36-.23-.84,0-1.56.22-2.17.67-.61.45-1.07,1.05-1.39,1.79-.32.74-.48,1.55-.48,2.43,0,1.67.31,2.99.93,3.96s1.5,1.46,2.66,1.46c.26,0,.49-.04.67-.13.19-.08.38-.19.57-.32.12-.1.22-.25.3-.47s.12-.45.12-.7c.02-.41.04-.9.04-1.48,0-.31-.13-.52-.4-.63-.23-.13-.61-.26-1.15-.38-.11-.02-.21-.07-.3-.14s-.13-.16-.13-.25c0-.07.04-.13.13-.19.08-.05.17-.08.25-.08.44,0,.92.02,1.42.05.65.02,1.09.04,1.33.04s.6-.01,1.08-.04c.53-.02.91-.04,1.15-.04.08,0,.16.02.22.07.06.05.09.11.09.2,0,.19-.12.32-.36.38-.32.08-.55.19-.67.31s-.21.32-.26.57c-.08.41-.13.86-.13,1.35v.58c0,.08.08.2.23.36.12.14.18.27.18.38,0,.1-.03.18-.08.25s-.14.11-.26.13c-.08.01-.25.08-.5.2-.53.26-1.1.49-1.71.67-.61.18-1.31.27-2.11.27-1.15,0-2.21-.25-3.17-.75Z"/><path class="cls-1" d="m37.81,163.66c-.43,0-1.09-.22-1.3-.54l-1.96-.98c-1.3-.43-2.39-1.19-3.69-1.52-.11,0-.43-.11-.65-.22-.43-.54-1.2-.98-1.74-1.3-.65-.43-1.09-.76-1.63-.98-.98-.98-2.17-1.63-2.93-2.83l-.98-.87c0-.11-.22-.22-.43-.43-.11-.11-.22-.33-.33-.54-.54-1.09-1.63-1.74-2.06-2.93-.22-.54-.65-1.2-.98-1.74-.33-1.09-.98-1.74-1.41-2.72-.33-.76-.54-1.63-.87-2.5l-.65-1.52c0-.22-.22-.43-.22-.65,0-1.3-.65-2.5-.76-3.91,0-1.41-.11-2.72-.33-4.02-.11-.87-.11-1.52.22-2.39l.33-3.26c.11-.98.33-1.96.54-2.72.22-.98.43-1.74.87-2.61.43-1.2,1.09-2.39,1.2-3.69.11-.22.22-.54.33-.65.65-1.09,1.09-1.96,1.3-3.26.11-.22.33-.54.54-.76.65-.98,1.3-1.96,1.63-3.04.22-.43.43-.65.76-1.09.43-.65.87-1.3,1.19-2.06.11-.22.22-.54.43-.87,1.2-1.3,2.28-2.83,3.48-4.24.54-.54.98-1.2,1.63-1.63.33-.22.65-.65.98-.98.76-.87,1.52-1.85,2.5-2.72.65-.76,1.52-1.41,2.17-2.17,1.3-.87,2.39-2.06,3.91-3.15.43-.33,1.3-.76,2.06-1.2.22-.11.43-.22.54-.33.76-.33,1.3-.98,2.06-1.52.54-.43,1.41-.54,1.96-1.09.22-.11.22-.33.11-.54-.11-.11-.22-.22-.33-.22-1.09-.54-2.39-.76-3.48-1.41-1.3-.43-2.61-.98-3.91-1.2-2.06-.43-4.13-.87-6.41-.87-1.96,0-3.91,0-5.98.11-.54,0-1.19,0-1.63.11l-2.72.44c-1.19.33-2.17.65-3.26,1.19-1.2.65-2.5.98-3.48,1.85-.76.54-1.52,1.09-1.85,1.96-.22.33-.54.76-.76,1.2-.54.76-.98,1.74-1.63,2.72,0,.76,0,1.2-.11,1.63,0,.22-.11.65-.11.98-.33.65-.76,1.2-1.52,1.3-.33.11-.76.11-1.3.11-.22,0-.43-.11-.54-.22l-.98-1.3c-.33-.43-.43-.76-.43-1.3,0-.98.11-1.85.11-2.61.33-1.09.65-1.85,1.2-2.61.65-.87,1.19-1.85,1.96-2.72.22-.98,1.09-1.63,1.96-2.28.98-.76,1.96-1.63,2.93-2.28.87-.43,1.63-.87,2.39-1.2,1.3-.43,2.28-1.09,3.48-1.41,1.09-.43,2.5-.54,3.69-.76,1.63-.43,3.26-.54,5-.43h.65c2.72-.11,5.54.11,8.15.65.65.22,1.3.22,1.96.43,1.52.33,3.04.65,4.67,1.09.33.11.54.22.87.43,1.2.76,2.5.98,3.8,1.41,1.09.44,2.17,1.09,3.37,1.52.65.22,1.09.11,1.63-.22,1.41-.87,2.61-1.63,3.91-2.06,1.19-.98,2.5-1.2,3.69-1.85.65-.22,1.41-.54,2.17-.87.65-.43,1.41-.65,2.28-.87l2.5-.98c.54-.22,1.2-.54,1.96-.65,1.19-.11,2.39-.54,3.48-.98.43-.11.87-.22,1.3-.22,2.28-.22,4.45-.65,6.74-.65.76,0,1.63-.22,2.39-.11,1.41.33,2.93.22,4.35.65.98.33,1.96.33,3.04.54,1.09.33,2.39.76,3.37,1.41,1.09.54,2.06,1.2,3.26,1.85.65.33,1.09.87,1.52,1.3.76,1.19,1.63,2.17,2.28,3.48.33.54.43.98.33,1.63,0,.54-.11,1.09-.11,1.63-.22,1.3-.65,2.39-1.3,3.48-.22.11-.33.33-.43.43-.76.65-1.41,1.09-1.96,1.85-.11.22-.33.22-.54.33-.11.11-.33.11-.43.22-1.3.76-2.72,1.52-4.13,2.39-.11.11-.33.22-.65.22-1.41.11-2.61.98-4.24.98-.22,0-.54.11-.87.22-1.3.33-2.28.33-3.48.33-1.74-.11-3.37,0-5,0-1.63.11-3.26,0-4.78-.22-1.41-.33-2.72-.43-4.13-.65-2.39-.98-5-1.74-7.61-2.72-1.52-.43-2.93-.98-4.45-1.63-.98-.54-2.28-.98-3.37-1.41-.87-.11-1.74-.11-2.39.22-.43.33-.98.54-1.52.87-.11.22-.43.43-.76.54-1.41.43-2.39,1.09-3.48,2.06-.43.43-.98.65-1.41.87-1.3.76-2.61,1.52-3.58,2.61-.22.22-.43.43-.76.65-1.2.65-2.06,1.63-3.15,2.61-2.83,2.93-2.93,3.04-5.21,5.76-.43.65-.98,1.3-1.41,1.85-1.41,1.52-2.17,3.15-3.37,4.67-.11.33-.33.65-.43.98-.22.87-.76,1.85-1.09,2.83-.33.87-.87,1.63-1.19,2.39-.11.33-.11.65-.22.98-.11.22-.11.54-.22.65-.76,1.2-1.3,2.5-1.63,4.02-.11.33-.22.54-.43.87-.65,1.3-.76,2.5-.76,3.69-.11.65,0,1.3-.11,2.06-.11,1.74.22,3.48.33,5.21.54,1.63.65,2.93,1.09,4.35l.22.33c.65,1.63,1.3,3.15,2.06,4.67l1.41,2.39c.43.65.87,1.19,1.3,1.74,0,.33.22.54.54.76.65.76,1.41,1.3,2.17,1.96.43.43,1.09.87,1.74,1.19.22.22.65.44,1.09.65,1.2.65,2.39,1.2,3.8,1.85.87.54,1.63.98,2.72.87.22,0,.54.11.87.22.43.11.76.33,1.2.22.98,0,3.48-.11,4.45.11,1.96-.11,4.35-.87,6.08-1.09.98-.33,3.37-.98,3.48-.98.76-.43,1.63-.76,2.28-1.3.65-.22,1.3-.65,1.52-1.09.65-.54,1.2-.98,1.63-1.41.43-.54.98-1.09,1.52-1.52.43-.33.76-.65.87-.98.22-.11.22-.22.22-.33.22-.54.43-.76.87-1.3.11-.33.43-.76.54-.98.22-1.19.65-2.39.98-3.48v-.76c0-.87-.33-1.85-.87-2.61,0-.43-.33-.87-.54-1.41-.22-.11-.87-.76-.98-.76-.65-.33-1.41-.87-2.17-1.09-.43-.22-.87-.33-1.41-.43h-2.61c-.43,0-.98.11-1.2.22-.54.22-1.09.33-1.52.87-.22.11-.33.33-.65.44-.87.22-1.96.11-2.5-.44-.43-.43-.76-1.09-.76-2.39,0-.22.22-.43.33-.54.22-.22.22-.43.33-.54.54-.33,1.09-.76,1.3-1.41.22-.33.43-.33.76-.43,1.52-.43,3.15-.65,4.78-.65.76.11,1.41.11,2.39.11.54,0,1.09.11,1.74.33.54.22,1.41.43,2.28.65.11.11.43.22.65.43.54.22,1.09.54,1.41.87.33.11.43.11.54.33.87.98,2.06,1.74,2.61,2.83.11.54.43.98.76,1.52.22.22.22.43.33.65.22.76.33,1.63.43,2.28.22.76.33,1.41,0,2.06-.11.65-.11,1.09-.11,1.74,0,.76,0,1.3-.11,1.85,0,.11,0,.22-.22.33-.65.76-.65,1.63-1.2,2.5-.65.65-1.2,1.3-1.63,2.06-.22.65-.87,1.3-1.52,1.96q0,.11-.11.22c-1.85,1.63-3.59,3.48-5.65,4.67-.43.11-.65.33-.87.65-.33.33-.54.65-.87.87-.11.11-.33.22-.43.22-1.2.76-2.39,1.09-3.69,1.3-.87,0-1.41.33-2.28.65-.33.11-.87.33-1.2.22-.43,0-.98,0-1.2.11-.76,0-1.52.22-2.17.33-.65.11-1.3.22-2.17.22-.87.11-2.61-.11-3.48.22-.11.11-.22,0-.33,0-1.41-.11-2.93-.22-4.35-.43Zm45.3-72.03c2.17.22,4.45-.33,6.41-.98.87,0,1.52-.87,2.39-.98.33-.11.65-.22.98-.44.33-.11.65-.33.98-.43.22-.11.33-.22.43-.33.54-.33.87-.76,1.19-1.3.11-.43.33-.87.43-1.2.11-.43.11-.98-.22-1.3-.65-.65-1.3-1.3-2.06-2.28-1.09-.43-1.85-.87-2.82-1.2-1.74-.54-3.37-1.2-5.43-1.3-1.74-.22-3.48-.33-5.21-.22-2.06,0-4.02.44-6.08.87-.65.22-1.41.33-1.96.54-1.3.54-2.5.76-3.91,1.19-.98.33-2.06.76-3.04,1.41-1.09.43-2.06,1.09-3.15,1.3-.76.43-1.3.87-2.06,1.3-.11,0-.22.22-.33.43.22.22.33.33.54.43.54.22.98.33,1.52.65,1.63.65,3.26,1.2,4.89,1.63l1.85.65c.87.44,1.74.44,2.61.76.22.11.43.11.65.22,2.82.54,5.87.98,8.8.65.87-.11,1.74-.11,2.61-.11Z"/><path class="cls-1" d="m85.17,147.58c-.76-.33-1.41-.87-2.06-1.3-.22-.22-.43-.54-.43-.87-.33-.76-.54-1.63-.76-2.39,0-.22,0-.43.11-.65.22-2.61.43-5.21,1.2-7.71.22-.54.22-1.09.43-1.74.11-.43.22-.87.43-1.3.76-1.85,1.3-3.8,2.17-5.65,1.09-2.39,2.06-5.11,3.15-7.71l.54-1.85c1.3-3.15,2.17-4.89,3.91-8.04.65-1.52,1.74-3.26,2.5-4.67.87-1.52,1.96-2.93,2.5-3.8.65-1.09,1.3-2.06,2.17-3.15l2.72-4.02c.43-.54.76-.87,1.2-1.3.43-.54.98-.98,1.52-1.41,1.52-1.41,2.39-1.96,3.8-1.41.87.22,1.41.76,1.63,1.41.33.98.65,2.93-.33,5.98-.43,1.2-.76,1.96-1.41,3.15-.87,1.41-.87,3.15-3.37,6.3-1.3,2.39-2.5,3.58-3.04,4.45-.33.33-.54.76-.76,1.09-.65.87-1.41,1.63-1.96,2.61-1.09,1.09-1.96,2.06-3.48,3.48-1.96,2.17-3.69,4.24-4.89,5.54-.33.65-1.41,2.93-1.63,3.59-.87,2.06-1.63,4.24-2.28,6.3-.87,2.17-1.3,4.35-1.74,6.52-.33,1.2-.22,2.39-.22,3.58,0,1.3,1.52,1.96,2.5,1.74.22-.11.76-.22.98-.33,1.63-1.09,4.89-3.26,6.08-4.45.33-.43.87-.76,1.2-1.19.76-.65,1.41-1.41,1.96-2.17.33-.33,1.09-1.41,1.3-1.63,1.96-2.39,2.93-4.13,4.46-6.52.65-.76.98-1.74,1.63-2.39.65-.76,1.09-1.63,1.52-2.28.43-.43.98-.54,1.3-.54.11,0,.54-.11.65,0,.22.11.65,0,.98.33.33.33.54.54.33,1.63-.11.33-1.3,2.93-1.63,3.48-1.2,1.96-1.52,3.15-3.04,4.78-.98,2.06-1.85,3.48-3.48,5.54-.65.76-1.52,1.63-2.28,2.39-.54.76-1.3,1.3-1.63,1.74-.43.33-.87.54-.87.76-1.2,1.09-2.28,1.96-3.26,2.61-.87.65-3.37,1.63-4.13,2.06-2.28.76-4.24.43-6.19-.54Z"/><path class="cls-1" d="m100.81,145.52c-.22-.22-.43-.54-.76-1.2-.11-.33-.22-.54-.22-.65l-.33-1.96c.22-1.41.33-2.61.54-3.91.22-1.19.65-2.28,1.63-4.67.87-1.85,1.52-3.69,2.61-5.32l.22-.33c1.3-3.04,3.15-6.52,4.89-9.23.76-1.2,1.3-2.28,1.96-3.48.76-1.2,1.41-2.5,2.17-3.69.43-.65.65-.87.87-1.09.33-.33.76-.54,1.19-.65.65-.33,1.52,0,1.85.54.22.22.43.54.76,1.2,0,.22.11.43,0,.65-.11.43-.22.98-.43,1.3-1.19,2.39-2.17,4.46-3.37,6.74-.98,1.74-2.06,4.13-3.04,5.87-1.09,1.96-1.96,3.91-3.04,5.87-.98,1.96-1.63,3.26-2.06,4.56s-.65,2.72-.98,4.02c-.22.54-.22,1.19-.11,2.17,0,.44.43.87.87.87.87.11,1.41.11,1.74-.22,1.3-.76,2.72-1.74,4.24-3.15,3.04-2.93,4.45-4.35,5.98-6.19.33-.33.54-.65.87-1.09.65-.65,1.2-1.41,1.85-2.06.76-.65,1.41-1.41,2.28-2.61.87-1.3,1.63-2.61,2.5-3.8,1.41-1.85,2.17-3.58,3.58-5.32.54-.76.98-1.63,1.52-2.39.33-.43.76-1.2,1.09-1.96.22-.54.54-1.09,1.41-2.39.54-.87,1.52-1.63,2.72-2.06.33-.22.76-.11,1.09-.11s.65.22.76.54c.33.65.43.98.43,1.3.11.98,0,2.06-.43,3.15-.54,1.09-1.09,1.85-1.63,2.83-.87.87-1.3,1.96-1.96,2.93-.87,1.3-1.52,2.39-3.69,6.52-.76,1.41-1.41,2.93-2.17,4.35-.33.54-.43,1.09-.65,1.63-.22.76-.33,1.41-.54,2.06-.33,1.3-.54,2.5-.54,3.48-.11.33-.11.65-.11,1.74-.11.54,0,1.2.22,2.06.11.65,1.09,1.2,2.17,1.2.98-.11,1.74-.44,2.17-.87,1.96-1.3,2.93-2.06,4.02-3.15.33-.43.76-.76,1.09-1.19.65-.54,1.2-1.09,2.17-2.17.33-.33,1.09-1.41,1.3-1.63,2.06-2.39,3.15-4.13,4.78-6.52.76-.76.76-1.74,1.41-2.39.65-.76,1.09-1.63,1.52-2.28.22-.33.76-.54,1.3-.54.11,0,.65-.11.76,0,.22.11.65,0,1.09.33.43.33.54.54.54,1.63,0,.22-.87,2.39-1.41,3.48-1.3,1.96-1.63,3.15-3.15,4.78-.87,1.85-1.85,3.26-3.91,5.54-.33.54-.87,1.09-2.28,2.39-.33.76-1.2,1.3-1.52,1.74-.54.33-.98.54-.98.76-1.3,1.09-2.28,1.96-3.26,2.61-.98.65-3.15,1.3-4.02,1.74-2.93.65-5.21.33-6.74-1.09-2.5-2.17-2.61-2.39-2.93-5.65v-2.06c0-.33-.11-.43-.33-.43-.33,0-1.09.43-1.52.87l-2.28,2.28c-1.63,2.28-3.26,3.48-4.78,4.78-1.2.76-2.28,1.2-3.26,1.3l-2.5.33c-1.74-.33-3.15-.98-5.21-2.61Z"/><path class="cls-1" d="m187.29,124.77c0,.33-1.2,2.93-1.52,3.48-1.41,1.96-1.85,3.15-3.48,4.78-1.09,2.06-2.17,3.48-4.13,5.54-.54.76-1.52,1.63-2.39,2.39-.43.76-1.3,1.3-1.63,1.74-.54.33-1.09.54-1.09.76-1.3,1.09-2.39,1.96-3.37,2.61-.98.65-3.26,1.3-4.13,1.74-1.74.54-1.85.54-3.8.65-2.72-.22-3.8-1.3-4.13-1.41-.87.65-3.04,1.3-5.98,1.3-.76,0-3.37-.54-3.91-1.09-1.09-.76-1.09-1.09-2.06-1.85l-.22-.22c-.54-.87-1.3-1.74-1.96-2.5-.65-1.52-1.85-4.35-.98-5.98.43-.43.33-.43.87-.98.65-.54.87-.54.54-.76-.22-.11-.43-.22-.54-.33-.54-.43-.54-.65-.65-1.3,0-.22,0-.43-.11-.65,0-.43,0-.98.33-1.3.87-.87,1.52-1.85,1.74-3.04,1.3-2.61,2.5-5.32,3.8-7.93l1.3-2.93c.22-.65.54-1.3.87-1.85.87-1.41,1.63-2.93,2.28-4.35.54-1.2.87-2.28,1.63-3.37,1.2-2.28,2.28-3.69,3.26-5.65.22-.33.22-.65.43-.87.98-1.09,1.41-2.39,2.06-3.58.65-1.09,1.41-2.28,1.96-3.58.33-.76,2.72-4.24,3.15-4.89.76-1.09,1.85-1.63,3.26-1.63.22,0,.43-.11.65-.11,1.2.11,2.06.65,2.17,1.96-.11.43-.11.76-.11,1.09-.22.98-.33,1.85-.54,2.72-.11.22,0,.43-.11.65-.43,1.63-2.17,5.21-3.15,6.52-1.41,1.63-2.61,3.48-4.13,4.89-.54.43-.98.98-1.41,1.52-.76.76-1.63,1.3-2.17,1.85-.33.22-.54.43-.98.65-.54.87-1.2,1.63-1.74,2.61-.76,1.2-1.41,2.39-1.85,3.8,0,.22.11.43.22.65.87-.43,1.63-1.09,2.28-1.74,1.3-1.2,2.93-2.61,4.46-3.37,1.63-.76,3.26-1.3,5.11-1.41.43,0,.87-.11,1.41-.22,1.41,0,2.72.33,3.91,1.41.43.33.76.76.98,1.3l1.3,3.37c-.11.65,0,1.41-.22,2.06-.22,1.41-.54,2.72-1.09,4.46-.43,1.3-.76,2.5-1.2,3.69-.22.33-.33.65-.43.98-.43,1.85-1.41,3.48-2.06,5.21-.54,1.19-1.3,2.17-1.96,3.37-.43.76-.98,1.3-1.41,1.96-1.41,1.74-3.04,3.26-4.56,4.89-.22.22-.22.43-.22.65.33,0,.76.11,1.52.11s1.3-.11,2.5-.54c.87-.33,3.48-1.96,4.67-3.15.33-.43.87-.76,1.19-1.19.87-.65,1.52-1.41,2.28-2.17.33-.33,1.19-1.41,1.41-1.63,2.17-2.39,3.37-4.13,5.11-6.52.76-.76.87-1.74,1.52-2.39.65-.76,1.2-1.63,1.63-2.28.33-.43.98-.54,1.3-.54.11,0,.65-.11.76,0,.22.11.65,0,1.09.33.43.33.54.54.43,1.63Zm-40.31,10.76c1.52.54,2.83,1.2,3.91,2.28.43.33.76.65,1.2.87,1.2.87,2.5,1.74,3.91,2.17.54.22.98.11,1.41-.11l.54-.33c.54-.54,1.09-.87,1.63-1.41,1.09-1.2,2.5-2.17,3.37-3.58l1.09-1.41c.76-.98,1.41-2.06,1.96-3.26.65-1.52,1.41-2.93,1.96-4.45.76-2.5,1.63-5.32,2.06-7.82-.11-.87-.33-1.63-.43-2.39l-.33-.65c-.22-.65-1.3-1.3-1.96-1.2-.98.33-2.06.54-3.04.87-.87.65-1.3.87-1.96,1.3-1.3.87-2.72,2.28-4.02,3.26-.87.65-1.63,1.63-2.39,2.5-1.2,1.3-2.28,2.61-3.37,4.02-.43.65-.76,1.41-1.2,2.06l-1.19,1.85c-1.09,1.52-2.17,3.04-3.15,4.56-.22.33-.22.87,0,.87Z"/><path class="cls-1" d="m185.66,147.8c-.76-.22-1.41-.76-2.06-1.3-.87-.87-1.74-1.85-2.61-2.82-.54-.65-.87-1.41-.98-2.28-.11-.22-.11-.43-.11-.65-.43-1.2-.65-2.5-.54-3.8,0-1.19,0-2.28.22-3.48.22-.65.22-1.41.33-2.06.43-.87.76-1.74,1.09-2.61.76-2.06,1.96-4.67,3.15-6.41.22-.33.33-.65.43-.98l.54-.98c.87-1.19,1.85-2.39,2.82-3.58,1.2-1.63,2.61-2.93,4.45-3.91,1.74-1.3,3.69-1.96,5.65-2.83.33-.11.65-.22.98-.22l2.82-.54c1.09-.22,2.06.11,3.04.65.76.54,1.52,1.09,2.17,1.74.87.65,1.41,1.63,1.52,2.72.11.65.22,1.41.22,2.17-.11.98-.43,1.85-.76,2.82l-.65,1.63c-.22.54-.76,1.09-.98,1.63-.22.43-1.09,1.52-1.3,1.85l-.54.98c-.65,1.09-1.63,1.96-2.39,3.04-.11.11-.33.22-.54.33-.54.43-1.2.87-1.63,1.3-1.63,1.52-3.48,2.72-6.41,3.8l-4.56,1.09c-.98.11-3.59.33-4.35.33,0,.11,0,.65-.11.76-.22,2.28,0,3.26.98,5.32.22.43.54.87.98,1.09q2.17,1.09,4.67,1.2c.98,0,1.85,0,2.72-.43.43-.22.98-.22,1.41-.33.33-.11,1.52-.76,1.85-.87,1.63-.98,4.89-2.82,6.08-3.91.33-.43.76-.76,1.09-1.2.76-.54,1.41-1.3,2.06-1.96.33-.33,1.09-1.3,1.3-1.52,2.06-2.17,3.15-3.8,4.78-5.97.65-.65.87-1.63,1.41-2.17.65-.76,1.09-1.52,1.52-2.06.33-.43.87-.54,1.2-.54.11,0,.54-.11.65,0,.22.11.65,0,.98.33.43.22.65.44.43,1.41,0,.33-1.09,2.72-1.41,3.26-1.3,1.74-1.63,2.93-3.15,4.35-1.09,1.96-2.06,3.26-3.8,5.11-.54.76-1.41,1.52-2.17,2.28-.54.65-1.3,1.2-1.63,1.52-.54.33-3.37,2.5-4.24,3.04-.54.43-1.63,1.2-2.28,1.52-2.93,1.74-6.19,2.61-9.67,2.83-1.85.11-2.93-.22-4.67-.65Zm7.06-18.9c2.06-.98,5.65-4.45,6.95-5.76,1.09-1.3,2.06-2.61,2.72-4.13.54-1.09.76-2.17.65-3.37,0-.98-1.09-1.74-1.96-1.52-.76.22-1.63.43-2.39.76-1.74.65-3.37,1.52-4.56,3.04-.33.33-.76.65-1.09.87-1.74,1.63-3.48,3.15-4.89,6.19-.33.76-.76,1.41-1.2,2.17-.22.43-.33.87-.43,1.19-.22.65-.43,1.52-.33,1.74,3.04,0,4.78-.43,6.52-1.19Z"/><path class="cls-1" d="m268.88,164.21c-.87-.22-1.3-.22-3.37-.22-1.63,0-3.04-.22-4.67-.54-1.2-.22-2.39-.33-3.58-.54-.65-.11-1.09-.33-1.63-.54-.54-.33-.98-.65-1.41-.76-1.63-.54-3.37-1.52-5.54-3.15-.65-.65-.98-.87-1.3-1.09-.76-.22-1.2-.33-1.52-.22-.65.33-1.41.54-1.85,1.09-.33.43-.76.65-1.3.98-3.04,1.3-4.45,1.85-5.98,2.06l-1.52.54c-.76,0-1.41-.11-2.06-.11-.65-.11-1.41-.22-1.96-.43-.54-.11-1.09-.43-1.63-.43-1.3-.11-2.28-.87-3.37-1.52-.43-.11-.76-.54-1.2-1.09-.65-.76-1.19-1.52-1.74-2.39-.76-1.2-.98-2.61-.65-3.91.11-.65.33-1.2.43-1.96.87-.76,1.96-1.3,2.82-2.17,1.2-.87,2.39-1.3,3.59-1.96.33-.22,2.5-.65,3.26-.65.87,0,1.74.11,2.72.11,1.2.33,2.39,1.09,3.69,1.3.43.11.76.33,1.2.54,1.63.98,3.48,1.63,5.11,2.39.54-.11.98-.33,1.41-.76.54-.87,1.19-1.52,1.74-2.17,1.19-1.19,2.17-2.39,3.37-4.13.22-.65.65-1.2,1.63-2.17.43-.43.76-.98.98-1.74.54-.76.87-1.85,1.52-2.5.65-.87.98-1.52,1.41-2.72.22-.76.65-1.3.98-2.06.11-.43-.22-1.3-.65-1.41l-1.41-.76c-1.52-.43-2.72-1.19-4.02-1.96l-.65-.65c-.22-.22-.43-.33-.76-.65-1.52-1.3-2.82-2.72-3.69-4.24-1.2-1.63-2.17-3.26-3.26-4.78-.11-.43-.33-.76-.54-1.09-.33-1.85-1.09-3.48-1.52-5.43,0-1.2.11-2.72,0-4.13v-.76c0-.87.22-1.96.33-2.93l.43-1.52c.54-1.2,1.09-2.28,1.41-3.48.33-.98.65-1.52,1.09-2.06.87-1.74,2.06-3.15,3.04-4.67,1.63-1.85,2.93-3.8,4.89-5.11.22-.22.43-.33.54-.43.76-1.2,2.17-1.96,3.15-2.82.65-.65,1.3-1.09,1.96-1.41,2.28-1.2,4.45-2.5,6.84-3.48.33-.11.65-.33.98-.33,1.2-.33,2.28-.76,3.48-1.09.43-.11.87-.33,1.2-.43.22-.11.33-.11.76-.11,1.19-.22,2.39-.43,3.58-.54.43-.11.87-.11,2.06-.11.87-.11,1.74-.11,2.61-.22.33-.11.65-.11,1.3-.11,2.06.11,4.02.11,6.08.22.98,0,1.96,0,2.93.43,1.09.22,2.17.54,3.26.87.54.22,1.09.33,1.63.33,2.28.22,4.35,1.3,6.41,2.06l2.28,1.3c.43.22.76.43,1.19.76,1.96,1.41,3.91,2.93,5.87,4.24.76.43,1.09,1.09,1.74,1.63.98.65,1.41,1.2,1.63,1.63.11.43.33.65.65.76,1.2.87,1.74,2.06,2.5,3.15.76.98,1.2,2.06,1.52,3.26.33,1.3.65,2.39,1.09,3.58.22.98.54,1.96.65,2.93,0,.76.11,1.63.33,2.28.33.76.33,1.52.43,2.28,0,1.3.11,2.72.11,4.02.11.22,0,.65-.11,1.3-.22,1.74-.33,2.72-.22,3.69.11.65,0,1.52-.11,2.61l-.43,2.39v.65c-.76,2.28-.98,4.56-2.06,6.74-.22.43-.33.98-.54,1.96l-.65,1.52c-.87,1.63-1.63,3.37-2.5,5.11-.11.22-.33.54-.33.87-.33,1.09-.87,1.85-1.3,2.72-1.09,1.2-1.63,2.72-2.72,3.8-.54.54-.76,1.09-1.09,1.63-.65.87-1.3,1.63-1.85,1.96-.76.65-1.3,1.09-1.74,1.63-.33.54-.65.98-1.3,1.52-2.5,2.06-4.02,3.37-6.08,4.67-.87.76-2.06,1.63-3.58,2.5-.76.43-1.52,1.09-2.28,1.41-.76.22-1.3.65-2.06,1.09-1.41.87-3.04,1.3-4.67,1.85l-2.61.65c-.43.11-1.09.22-1.63.43-1.41.33-2.83.65-4.24.76-.54.22-.98.22-1.63.22-.98.11-1.74.44-2.72.44-1.52-.11-3.04,0-4.56-.22Zm-33.14-7.71c.43-.11.98-.11,1.41-.33,1.3-.43,2.61-.98,3.59-1.52.33-.33.54-.76.43-.98-.11-.11-.22-.43-.43-.54-2.61-1.3-4.67-2.17-6.74-2.83-.43-.22-.76-.22-1.63-.11-1.3.33-2.39.87-3.15,1.52-.33.22-.54.54-.76.76-.33.33-.43.54-.22.87.22.54.33.87.54,1.3l.65.65c1.52.98,2.93,1.41,4.56,1.3.43,0,1.2-.11,1.74-.11Zm38.03,2.61c2.61-.33,3.91-.43,5.32-.65.43,0,.65-.11.98-.22,1.74-.65,3.69-.98,5.43-1.41,1.09-.33,1.85-.65,2.5-1.09,2.06-.87,3.91-2.17,5.87-3.15.33-.11.65-.33.87-.54.98-.87,1.52-1.2,2.17-1.63,1.2-.76,2.17-1.85,3.37-2.72l.76-.65c.22-.22.33-.22.54-.44,1.85-2.17,3.91-4.13,5.43-6.74.76-1.09,1.41-1.96,1.96-3.15.76-1.41,1.63-3.04,2.72-5.32.87-2.17,1.41-3.69,2.17-5.98.22-.98.43-1.74.76-2.61.76-1.96,1.09-3.91,1.09-5.87-.11-1.09-.11-1.74.22-2.28.22-.33.11-.65.11-.98,0-1.09,0-1.41.11-1.74.33-1.85-.11-3.69-.11-5.65.11-.33-.11-.65-.11-.87l-.33-1.41c-.65-3.69-1.74-7.17-3.48-10.32-.98-.98-1.85-2.06-2.83-2.93-.54-.65-1.09-1.2-1.63-1.74-1.2-.54-1.96-1.52-2.93-2.28-.87-.76-1.74-1.41-2.72-1.96-1.09-.65-2.28-1.3-3.48-1.96-.65-.22-1.09-.54-1.85-.76-1.41-.54-2.93-1.2-4.35-1.52-1.63-.65-4.02-1.09-5.21-1.09-3.37-.33-5.87-.33-8.04,0-1.3.11-2.5.22-3.69.11-.76,0-1.52.11-2.39.33-.54.11-1.09.33-2.17.65-.87.11-1.74.65-2.5.76-1.09.22-1.85.65-2.72,1.3-.54.33-.87.65-1.41.87-1.85.76-3.59,1.85-5.11,3.26-1.63,1.2-2.83,2.28-3.69,3.37-1.19.76-2.06,1.96-2.93,3.15-.76,1.09-1.63,2.06-1.96,3.48-.11.43-.33.76-.87,1.85-.98,1.96-1.63,3.48-1.85,4.89-.43.87-.54,1.63-.54,3.37.11,3.37-.33,3.15,1.52,8.26l3.48,5.11c.43.54.87,1.09,1.63,1.74.33.11.65.43.98.87,1.41,1.3,3.26,2.17,5.98,2.82q.22,0,.33-.11c.33-.11.54-.33.76-.65.43-.54.76-1.09.98-1.74.33-.65.76-1.3.98-2.06.22-.98.87-1.63,1.09-2.5.11-.22.22-.43.22-.65.22-1.19.65-2.06,1.41-2.93.43-.65.65-1.3.98-2.17.22-.87.33-1.2.54-1.52.76-1.3,1.85-2.5,2.5-3.91l.54-.87c.65-.65,1.3-1.19,1.85-1.96.54-.87,1.2-1.63,1.74-2.5.22-.33.22-.43.33-.54,2.06-2.06,3.48-3.15,4.89-4.02.65-.44,1.3-.76,2.06-1.2l1.52-.43c1.74-.54,3.69-.65,6.08-.33,0,0,.11.11.22.11.76.22,1.3,1.2.98,1.85-.33.65-.54.98-.76,1.19-.22.43-.43.54-.76.54-1.52,0-2.93.43-4.24.76-.33.11-.76.22-.98.33-2.06,1.09-2.72,1.63-3.26,2.39-1.2,1.41-2.5,2.82-3.69,4.35-.54.54-.87,1.09-1.19,1.63-.22.43-.33.76-.65,1.09-.87,1.19-1.41,2.5-2.28,3.8-.65,1.2-1.2,2.5-1.96,3.91-.43.98-.76,2.28-1.41,3.26-.87,2.28-1.74,3.91-2.72,5.32-.11.22-.11.43-.22.65-.22.54.11,1.41.54,1.41,1.52,0,2.39,0,3.69.22,1.63,0,3.15-.11,4.67-.33,1.3-.33,2.39-.76,3.48-1.41.76-.54,1.74-.87,2.5-1.41.43-.22.87-.54,1.09-.87,1.3-1.3,1.74-1.74,2.28-2.06.65-.43,1.09-.87,1.41-1.41.54-.76,1.09-1.3,1.74-1.96.43-.43.98-.65,1.52-.65h1.74c.33,0,.76.33.98.65.33.43.43.87.11,1.3-.33.54-.76,1.19-.98,1.74-.11.11-.43.43-1.09,1.3-.87.65-1.3,1.2-1.74,1.96-.33.43-.65.76-.98.98-1.2.98-2.17,1.85-3.15,2.39-1.09.65-2.06,1.3-3.26,1.85-1.3.87-2.61,1.41-4.02,1.74-.43.11-1.09.11-1.52.22-1.2.54-2.5.54-3.58.65-.65,0-1.2-.11-1.74-.11-1.3.11-2.39,0-3.58-.33-.54-.11-1.3-.22-2.06-.22-.43,0-.87.22-1.09.54l-.43.65c-.54.87-.98,1.96-1.63,2.93-.65.98-1.2,2.06-1.85,3.15-1.19,2.17-2.93,4.24-4.24,6.41-.11.22-.22.33-.65.76-.98,1.2-1.85,2.5-2.93,3.58-.43.54-.87,1.09-1.19,1.63-.22.22-.22.43,0,.65,1.52,1.96,3.69,3.04,5.87,4.35.98.11,1.96.65,2.93.76.65.11,1.2.33,1.96.54.65.22,1.09.22,1.63.22.54.11,1.09.11,1.63.22,2.61.44,5.32.33,8.04.44.65,0,.76,0,.98-.11Z"/><path class="cls-1" d="m329.49,148.34c-.33,0-.65-.11-.98-.33-1.09-.65-1.96-1.41-2.82-2.39-.22-.11-.33-.33-.43-.54-.11-.33-.22-.54-.43-.87-1.09-2.17-1.41-4.56-1.2-6.95,0-.43,0-.76.11-1.3.11-.98-.11-1.96.22-3.04l.98-4.13c.65-1.63,1.2-3.26,2.28-4.67.65-.98,1.2-2.17,1.74-3.15,1.09-2.06,2.61-4.02,4.24-5.65.33-.33.65-.65,1.09-.87,1.3-.98,2.72-2.06,3.91-3.26.54-.33,1.09-.65,1.74-.98,1.41-.54,2.93-1.09,4.56-1.2.98,0,2.06-.11,3.04.11.87.11,1.74.54,2.82.87.87.98,1.85,1.74,2.61,2.72.54.54.76,1.09.65,1.85,0,.54-.11,1.09.22,1.63l.65,1.52c.22.65.33,1.3.33,1.96v2.39c0,.33-.11.76-.22,1.09-.54,1.3-.87,2.72-1.41,4.13-.43,1.41-.98,2.72-1.74,4.02-.76,1.2-1.2,2.61-1.96,3.91-.11.33,0,.87.43,1.2.22.11.76.54,2.39.43.87-.11,1.63-.11,2.28-.65,1.74-1.09,2.93-1.85,4.13-3.04.33-.44.87-.76,1.19-1.2.87-.65,1.41-1.74,2.17-2.5.11-.33.76-1.09.98-1.63,1.41-1.96,1.85-2.82,2.5-3.8.87-1.63,2.5-1.41,3.15-.87.65.54.54,1.3-.11,3.15-.65,2.06-1.52,3.48-3.04,5.54-.87.87-2.72,3.48-4.24,4.78-1.63,1.41-1.41,1.3-3.48,2.72-.98.65-2.72,1.3-3.59,1.74-.76.33-2.5.43-3.8.43-1.74-.33-2.83-1.09-4.13-1.63-.22.11-.43.11-.65.33-.98,1.19-2.17,2.17-3.04,3.48-1.09,1.09-2.28,1.96-3.48,2.72-.22.11-.43.11-.65.33-3.04,1.74-3.58,1.74-7.71,1.74-.43,0-.98,0-1.3-.11Zm4.89-4.89c.43-.33,1.09-.43,1.85-.65.54-.22,1.09-.43,1.41-.76,1.74-1.2,3.37-2.61,4.45-4.35.33-.65.76-1.2,1.41-1.96l-.33-3.8c-.11-1.63,0-3.04.54-4.46.76-3.8,1.09-4.35,3.37-7.71.33-.33.65-.76.98-1.2.87-1.41.65-2.61,0-3.8,0-.22-.22-.33-.43-.33-.33-.22-.76-.43-1.3-.43s-1.3.11-1.96,0c-1.2,0-2.28.43-3.04.87-1.09.43-1.85,1.09-2.93,1.74-.22.11-.43.22-.54.33-1.09,1.3-2.61,2.39-3.48,3.8-1.09,1.52-1.85,3.37-3.15,5-.43.87-.98,1.63-1.3,2.5q-.98,2.72-1.3,5.76l-.33,1.85c-.22,1.63,0,3.26.54,4.89.11.22.11.65.22.98.54,1.09,1.2,1.74,2.28,2.06,1.09.22,1.96.22,3.04-.33Z"/><path class="cls-1" d="m354.81,181.16c-.54,0-1.09-.22-1.52-.65-.54-.33-.98-.76-1.3-1.19-.76-.65-1.3-1.3-1.3-2.39-.65-1.41-.54-2.93-.22-4.45.43-2.06,1.52-3.69,2.82-5.21l3.48-3.91c1.3-1.41,2.5-2.83,4.13-3.8.65-.33,1.09-.87,1.63-1.3,2.06-1.74,4.46-3.15,6.84-4.45,1.2-.65,2.39-1.41,3.58-2.28.76-.54,1.74-1.09,2.61-1.74.87-.65,1.52-1.41,1.96-2.39.43-1.09.98-2.17,1.41-3.26.11-.33.11-.65-.11-.98l-.22-.11c-.98.43-1.85.98-2.72,1.63-1.2,1.2-2.82,1.74-4.35,2.17l-1.74.33c-1.2.54-2.28.33-3.48,0-1.09-.33-2.17-.65-3.04-1.3-1.52-1.52-1.96-3.37-2.61-5.11-.11-1.74-.22-3.48.43-5.21.33-.98.11-2.06.65-3.04.43-2.39,1.52-4.45,2.39-6.63.11-.33.33-.65.54-.98,1.3-2.5,2.93-4.78,4.46-7.06.43-.76.98-1.3,1.63-1.96.87-.76,1.74-1.52,2.39-2.5,1.41-1.74,3.37-2.5,5.21-3.58.22-.11.65-.22.98-.22.76-.22,1.63-.33,2.39-.33.54.11.98.11,1.41.11,1.85-.54,3.48.33,5.11.98.43.11.76.54,1.19.76.76.76,1.63,1.3,2.61,1.85.11.11.76-.11.87-.33.54-.76,1.09-1.52,1.74-2.28.22-.22.54-.33.87-.43.43.11.87.33,1.3.54.87.33,1.3.87,1.63,1.74.11.22.22.43.22.65,0,1.41-.22,2.82-1.09,4.02-.54.76-.87,1.63-1.3,2.5-.65,1.3-1.85,3.58-3.37,5.32-1.3,1.63-2.28,3.48-3.37,5.32-.54.87-.98,1.85-1.2,2.93-.65,1.85-1.41,3.69-2.28,5.54-.65,1.41-1.2,3.04-1.52,4.67,0,.22.11.44.22.54.11.11.22.11.33,0,2.06-.87,3.91-2.17,5.65-3.48.43-.33.76-.65,1.09-.87,1.3-.98,2.93-2.39,4.35-3.58,2.72-2.72,3.58-3.69,4.02-4.35,1.52-2.28,3.15-4.46,4.78-6.52l.98-1.52c.43-.54,1.09-.65,1.96-.43.76.11,1.3.87,1.3,1.63,0,.43-.22.98-.22,1.41,0,.54-.65,1.41-.87,1.85-.54.87-.98,2.28-1.63,3.04-2.17,3.48-4.35,5.87-6.52,7.93-.22.33-.43.54-.65.76-1.85,1.63-.43.65-2.39,2.17-.98.76-2.17,1.41-3.04,2.28-.98.87-2.06,1.52-3.15,2.28-1.63.98-3.04,2.17-4.78,3.04-.33.11-.54.33-.87.54-1.63.65-3.15,1.63-4.35,2.82-.54.54-.65,1.3-.87,1.96-.33.65-.54,1.3-.87,1.96-.54,1.52-.98,3.04-1.85,4.45-.76,2.28-2.17,4.24-3.26,6.3-1.63,2.39-3.15,4.89-4.78,7.28-.22.43-.43.87-.76,1.2-.76.98-1.52,2.17-2.61,2.82-1.41.87-2.72,1.85-4.35,2.39-.43.11-.87.33-1.3.33-1.74.11-3.58,0-5.32-.22Zm4.02-4.56c.76,0,1.41-.22,2.06-.65.43-.33.87-.65,1.41-.98.98-.65,1.85-1.41,2.5-2.39,1.52-2.06,3.15-4.02,4.35-6.41.11-.44.43-.87.65-1.2,1.09-1.52,1.74-3.37,2.61-5,.33-.43.43-1.09.65-1.63.11-.22.11-.54-.11-.65-.22,0-.43,0-.65.11l-5.65,3.58c-1.2.76-2.28,1.63-3.26,2.61-1.41,1.41-2.82,2.83-4.35,4.13-.33.33-.65.76-.87,1.09l-1.96,2.5c-.54.98-.76,1.96-.54,3.04.22,1.52.87,1.63,1.74,1.74.33,0,.54,0,.87.11h.54Zm13.58-35.53c2.17-1.52,4.35-3.26,6.19-5.21,2.06-2.06,4.02-4.24,5.76-6.63.65-.87,1.3-1.85,1.74-3.04.43-1.09.87-2.06,1.52-3.15.65-1.09,1.09-2.28,1.63-3.48.33-.76.43-1.63,0-2.39-.22-.33-.33-.65-.54-.87-1.2-1.74-2.72-2.5-5-2.5-.65.11-1.41,0-2.17.11-1.09.22-2.61.43-3.37,1.2-1.63,1.2-3.15,2.93-3.48,3.26-.65.76-1.41,1.52-2.06,2.39-1.52,2.06-2.83,4.24-4.02,6.52-.98,2.06-1.74,4.13-2.5,6.19-.43,1.52-.76,3.04-.76,4.35-.11,1.52.22,2.72.98,3.91.43.65,1.09.98,1.74.87,1.52-.22,3.04-.65,4.35-1.52Z"/><path class="cls-1" d="m398.8,145.52c-.22-.22-.43-.54-.76-1.2-.11-.33-.22-.54-.22-.65l-.33-1.96c.22-1.41.33-2.61.54-3.91.22-1.19.65-2.28,1.63-4.67.87-1.85,1.52-3.69,2.61-5.32l.22-.33c1.3-3.04,3.15-6.52,4.89-9.23.76-1.2,1.3-2.28,1.96-3.48.76-1.2,1.41-2.5,2.17-3.69.43-.65.65-.87.87-1.09.33-.33.76-.54,1.2-.65.65-.33,1.52,0,1.85.54.22.22.43.54.76,1.2,0,.22.11.43,0,.65-.11.43-.22.98-.43,1.3-1.2,2.39-2.17,4.46-3.37,6.74-.98,1.74-2.06,4.13-3.04,5.87-1.09,1.96-1.96,3.91-3.04,5.87-.98,1.96-1.63,3.26-2.06,4.56s-.65,2.72-.98,4.02c-.22.54-.22,1.19-.11,2.17,0,.44.43.87.87.87.87.11,1.41.11,1.74-.22,1.3-.76,2.72-1.74,4.24-3.15,3.04-2.93,4.45-4.35,5.97-6.19.33-.33.54-.65.87-1.09.65-.65,1.2-1.41,1.85-2.06.76-.65,1.41-1.41,2.28-2.61.87-1.3,1.63-2.61,2.5-3.8,1.41-1.85,2.17-3.58,3.58-5.32.54-.76.98-1.63,1.52-2.39.33-.43.76-1.2,1.09-1.96.22-.54.54-1.09,1.41-2.39.54-.87,1.52-1.63,2.72-2.06.33-.22.76-.11,1.09-.11s.65.22.76.54c.33.65.43.98.43,1.3.11.98,0,2.06-.43,3.15-.54,1.09-1.09,1.85-1.63,2.83-.87.87-1.3,1.96-1.96,2.93-.87,1.3-1.52,2.39-3.69,6.52-.76,1.41-1.41,2.93-2.17,4.35-.33.54-.43,1.09-.65,1.63-.22.76-.33,1.41-.54,2.06-.33,1.3-.54,2.5-.54,3.48-.11.33-.11.65-.11,1.74-.11.54,0,1.2.22,2.06.11.65,1.09,1.2,2.17,1.2.98-.11,1.74-.44,2.17-.87,1.96-1.3,2.93-2.06,4.02-3.15.33-.43.76-.76,1.09-1.19.65-.54,1.2-1.09,2.17-2.17.33-.33,1.09-1.41,1.3-1.63,2.06-2.39,3.15-4.13,4.78-6.52.76-.76.76-1.74,1.41-2.39.65-.76,1.09-1.63,1.52-2.28.22-.33.76-.54,1.3-.54.11,0,.65-.11.76,0,.22.11.65,0,1.09.33.43.33.54.54.54,1.63,0,.22-.87,2.39-1.41,3.48-1.3,1.96-1.63,3.15-3.15,4.78-.87,1.85-1.85,3.26-3.91,5.54-.33.54-.87,1.09-2.28,2.39-.33.76-1.19,1.3-1.52,1.74-.54.33-.98.54-.98.76-1.3,1.09-2.28,1.96-3.26,2.61-.98.65-3.15,1.3-4.02,1.74-2.93.65-5.21.33-6.74-1.09-2.5-2.17-2.61-2.39-2.93-5.65v-2.06c0-.33-.11-.43-.33-.43-.33,0-1.09.43-1.52.87l-2.28,2.28c-1.63,2.28-3.26,3.48-4.78,4.78-1.2.76-2.28,1.2-3.26,1.3l-2.5.33c-1.74-.33-3.15-.98-5.21-2.61Z"/><path class="cls-1" d="m447.37,147.8c-.76-.22-1.41-.76-2.06-1.3-.87-.87-1.74-1.85-2.61-2.82-.54-.65-.87-1.41-.98-2.28-.11-.22-.11-.43-.11-.65-.43-1.2-.65-2.5-.54-3.8,0-1.19,0-2.28.22-3.48.22-.65.22-1.41.33-2.06.43-.87.76-1.74,1.09-2.61.76-2.06,1.96-4.67,3.15-6.41.22-.33.33-.65.43-.98l.54-.98c.87-1.19,1.85-2.39,2.83-3.58,1.19-1.63,2.61-2.93,4.45-3.91,1.74-1.3,3.69-1.96,5.65-2.83.33-.11.65-.22.98-.22l2.83-.54c1.09-.22,2.06.11,3.04.65.76.54,1.52,1.09,2.17,1.74.87.65,1.41,1.63,1.52,2.72.11.65.22,1.41.22,2.17-.11.98-.43,1.85-.76,2.82l-.65,1.63c-.22.54-.76,1.09-.98,1.63-.22.43-1.09,1.52-1.3,1.85l-.54.98c-.65,1.09-1.63,1.96-2.39,3.04-.11.11-.33.22-.54.33-.54.43-1.2.87-1.63,1.3-1.63,1.52-3.48,2.72-6.41,3.8l-4.56,1.09c-.98.11-3.58.33-4.35.33,0,.11,0,.65-.11.76-.22,2.28,0,3.26.98,5.32.22.43.54.87.98,1.09q2.17,1.09,4.67,1.2c.98,0,1.85,0,2.72-.43.43-.22.98-.22,1.41-.33.33-.11,1.52-.76,1.85-.87,1.63-.98,4.89-2.82,6.08-3.91.33-.43.76-.76,1.09-1.2.76-.54,1.41-1.3,2.06-1.96.33-.33,1.09-1.3,1.3-1.52,2.06-2.17,3.15-3.8,4.78-5.97.65-.65.87-1.63,1.41-2.17.65-.76,1.09-1.52,1.52-2.06.33-.43.87-.54,1.2-.54.11,0,.54-.11.65,0,.22.11.65,0,.98.33.43.22.65.44.43,1.41,0,.33-1.09,2.72-1.41,3.26-1.3,1.74-1.63,2.93-3.15,4.35-1.09,1.96-2.06,3.26-3.8,5.11-.54.76-1.41,1.52-2.17,2.28-.54.65-1.3,1.2-1.63,1.52-.54.33-3.37,2.5-4.24,3.04-.54.43-1.63,1.2-2.28,1.52-2.93,1.74-6.19,2.61-9.67,2.83-1.85.11-2.93-.22-4.67-.65Zm7.06-18.9c2.06-.98,5.65-4.45,6.95-5.76,1.09-1.3,2.06-2.61,2.72-4.13.54-1.09.76-2.17.65-3.37,0-.98-1.09-1.74-1.96-1.52-.76.22-1.63.43-2.39.76-1.74.65-3.37,1.52-4.56,3.04-.33.33-.76.65-1.09.87-1.74,1.63-3.48,3.15-4.89,6.19-.33.76-.76,1.41-1.2,2.17-.22.43-.33.87-.43,1.19-.22.65-.43,1.52-.33,1.74,3.04,0,4.78-.43,6.52-1.19Zm-.54-21.84c-.11,0-.22-.11-.22-.22-.11-.76-.33-1.52-.22-2.39,0-.22.22-.44.43-.54.54-.43,1.09-.65,1.63-1.09,1.09-.76,2.28-1.3,3.48-1.74l1.96-.98c1.63-.87,3.26-1.74,4.89-2.39,1.41-.54,2.93-1.41,4.24-2.5.98-.87,2.17-1.41,3.26-1.85.98-.22,1.74-.22,2.39.22.54.33.98.76,1.3,1.3.22.33.33.65.43.87.11.76.54,1.41,1.09,1.96,1.09,1.2,1.74,2.72,2.5,4.13.11.76.43,1.41.43,2.28,0,.33-.11.65-.11.87-.11.33-.22.54-.22.76-.33.65-1.41,1.2-1.96.98-.43-.22-.87-.43-1.09-.76-.98-1.2-1.85-2.5-2.82-3.8-.54-1.09-1.2-2.28-2.06-3.15-.11-.22-.65-.22-.87-.11-.22.11-.33.11-.43.11-.22.22-.43.33-.65.43-1.41.87-2.82,1.74-4.35,2.39-.76.33-1.41.87-1.96,1.19-.87.33-1.63.87-2.5,1.3-.54.33-1.2.87-1.85,1.3-.43.22-.87.54-1.41.76-1.09.54-2.28,1.09-3.48,1.52-.22.22-.65.22-.98,0-.22-.22-.65-.54-.87-.87Z"/><path class="cls-1" d="m510.16,124.77c0,.33-1.2,2.93-1.52,3.48-1.41,1.96-1.85,3.15-3.48,4.78-1.09,2.06-2.17,3.48-4.13,5.54-.54.76-1.52,1.63-2.39,2.39-.43.76-1.3,1.3-1.63,1.74-.54.33-1.09.54-1.09.76-1.3,1.09-2.39,1.96-3.37,2.61-.98.65-3.26,1.3-4.13,1.74-1.74.54-1.85.54-3.8.65-2.72-.22-3.8-1.3-4.13-1.41-.87.65-3.04,1.3-5.98,1.3-.76,0-2.17-.43-2.72-.98-1.09-.76-1.3-1.09-2.28-1.85-.54-.54-1.3-2.06-1.19-3.04-.33-.54-.22-.98-.33-1.85.22-.43,0-1.96.43-2.17.33-.43.54-.76,1.09-1.3.98-.87,1.2-1.41,2.28-1.41.54-.22.54.11,1.09.22,1.09.65,2.5,2.82,3.04,3.69.65.54,2.83,1.96,4.13,2.39,1.09-.22,2.28-1.2,2.82-1.85,1.3-1.09,2.17-2.83,2.83-4.24.22-.43.65-.98.76-1.52.54-1.74.54-2.5.43-4.45l-.22-2.39c-.11-.98-.33-1.2-.54-2.72-.22-1.09-.33-2.17-.76-3.26,0-.65-.33-1.09-.33-1.63.11-.76-.11-1.52-.33-2.28-.33.43-.76.98-.98,1.63-.33.54-2.17,4.13-2.5,4.78-.54,1.09-2.61,3.37-3.26,4.56-.87,1.41-2.5,2.06-3.26,1.2l-.98-1.2c-.33-.33.33-1.41,2.17-4.56.98-1.63,1.2-1.63,2.17-3.15.65-1.41,2.06-3.26,2.5-4.02.87-1.74,1.85-3.48,2.61-4.78-.33-1.41-.65-2.72.11-5.21.65-1.74,2.83-4.13,4.35-4.67.54-.33,1.96-.43,2.72-.33.33.11.65,0,1.09.33.33.11.87.22,1.09.65.33.43.65.76.54,1.2.33.22.54.54.43.98.22,1.2,0,2.06-.33,3.26-.11.54-.22.87-.65,1.52-.76.98-1.09,1.74-1.85,2.61l-1.74,2.17c.54,1.41.43,1.96.87,3.58.43,2.06.98,4.24,1.2,6.19.43,1.3.65,2.72.76,4.02,0,.87.22.76,0,1.74.43.98.11,1.96-.22,3.15,0,1.3-.11,2.5-.98,3.58-.22,1.63-1.52,2.93-2.61,4.24-.33.54-2.17,1.96-1.74,2.06.76,0,1.3-.11,2.5-.54.87-.33,3.48-1.96,4.67-3.15.33-.43.87-.76,1.2-1.19.87-.65,1.52-1.41,2.28-2.17.33-.33,1.2-1.41,1.41-1.63,2.17-2.39,3.37-4.13,5.11-6.52.76-.76.87-1.74,1.52-2.39.65-.76,1.2-1.63,1.63-2.28.33-.43.98-.54,1.3-.54.11,0,.65-.11.76,0,.22.11.65,0,1.09.33.43.33.54.54.43,1.63Z"/><path class="cls-1" d="m200.64,24.91c-.1-.04-.16-.1-.18-.19-.02-.08,0-.17.05-.28.06-.1.15-.19.3-.27.46-.26.77-.5.92-.71.15-.21.17-.53.06-.96l-2.35-9.46c-.11-.46-.28-.76-.5-.9-.22-.14-.6-.21-1.14-.19-.34,0-.53-.1-.59-.32-.02-.08,0-.17.07-.25.07-.08.17-.14.31-.18.53-.13,1.07-.24,1.62-.33.73-.15,1.24-.26,1.53-.33,1.7-.42,3.2-.82,4.47-1.18.43-.11.79-.22,1.08-.35.29-.12.46-.19.5-.2.11-.03.23-.02.36.01.13.04.21.12.26.25.09.26.25.64.46,1.14.3.72.48,1.21.54,1.48.03.12.03.23-.01.31-.04.08-.09.13-.16.15-.18.04-.34-.03-.48-.23-.07-.09-.18-.24-.35-.46s-.31-.4-.42-.54c-.11-.13-.23-.24-.35-.31-.54-.32-1.09-.41-1.66-.27l-1.56.39c-.3.08-.55.22-.73.45-.18.22-.24.47-.17.75l.98,3.93c.08.33.3.46.64.37l1.83-.45c.33-.08.55-.24.66-.48.11-.24.19-.59.23-1.06.02-.28.12-.45.32-.5.07-.02.14,0,.22.08s.12.17.15.32c.12.71.23,1.28.33,1.7.14.58.3,1.14.48,1.67l.06.16c.06.25.02.39-.14.43-.1.02-.2,0-.32-.08-.11-.08-.21-.18-.29-.33-.24-.41-.46-.7-.67-.87s-.45-.22-.71-.15l-1.93.48c-.35.09-.48.29-.4.61l.98,3.95c.1.4.26.67.48.8.22.13.52.15.9.05l1.79-.44c.67-.17,1.15-.45,1.47-.85.31-.4.57-1.05.77-1.96.06-.19.17-.31.33-.35.07-.02.13,0,.18.08.05.07.09.16.12.27.06.25.09.55.09.91,0,.36-.02.82-.06,1.37-.02.21-.03.4-.04.56,0,.09-.05.17-.13.24-.08.07-.17.12-.26.14-.57.14-1.12.27-1.65.39-2.92.68-4.64,1.08-5.15,1.21-.46.11-.93.25-1.42.42-.66.19-1.13.33-1.42.4-.12.03-.24.03-.33-.02Z"/><path class="cls-1" d="m215.08,20.89c-.25-.1-.43-.24-.53-.43-.19-.34-.37-.78-.53-1.32-.16-.54-.28-1.1-.35-1.68-.03-.18.09-.3.37-.35.13-.02.22-.02.28,0s.13.08.2.17c.5,1.03,1.12,1.8,1.85,2.33.73.52,1.5.71,2.3.57.62-.11,1.07-.4,1.36-.88.28-.48.38-.98.29-1.52-.08-.44-.23-.79-.45-1.06-.22-.27-.52-.5-.88-.69s-.89-.4-1.57-.62c-.88-.31-1.58-.59-2.11-.84-.52-.25-1-.62-1.42-1.1-.43-.47-.71-1.09-.84-1.85-.14-.8-.05-1.55.27-2.24s.82-1.28,1.51-1.75c.68-.47,1.49-.79,2.42-.95.49-.09.99-.12,1.49-.11.5.01.93.06,1.3.14.18.04.32.1.41.17.09.07.18.21.28.41.29.65.52,1.45.69,2.42.01.07-.01.14-.07.21-.06.07-.15.11-.26.13-.13.02-.25.01-.37-.03-.12-.04-.2-.11-.24-.21-.39-.8-.85-1.38-1.39-1.73-.54-.35-1.15-.47-1.82-.35-1.31.23-1.85.98-1.62,2.25.08.45.38.84.9,1.17.52.33,1.33.69,2.43,1.09,1.26.49,2.18,1.01,2.76,1.58s.95,1.32,1.12,2.26c.25,1.41,0,2.54-.78,3.41-.77.87-1.93,1.44-3.49,1.72-1.28.23-2.44.13-3.49-.3Z"/><path class="cls-1" d="m230.25,19.08c-.11-.05-.17-.11-.18-.2-.02-.23.13-.39.46-.5.55-.19.94-.39,1.15-.6.21-.22.3-.54.25-.96l-.91-8.8c-.08-.77-.16-1.26-.23-1.49-.07-.23-.18-.37-.31-.41-.18-.07-.52-.08-1.01-.02l-.47.05c-.44.05-.86.2-1.25.45-.39.25-.69.57-.89.93-.18.33-.36.61-.53.84-.17.23-.35.35-.53.37-.2.02-.31-.1-.34-.35-.02-.21,0-.39.07-.55.23-.58.38-1.07.46-1.47.08-.4.12-.84.11-1.33,0-.37.16-.58.48-.61.07,0,.15.03.24.13.09.09.14.15.16.18.13.15.25.26.36.35.14.09.37.14.7.18s.62.03.87,0l8.01-.83c.33-.03.62-.1.87-.19s.44-.19.56-.28c.09-.08.23-.21.41-.39.08-.09.16-.18.25-.25s.19-.12.29-.13c.16-.02.25.1.27.34.01.1.01.25,0,.45-.04.26-.08.44-.1.53,0,.09-.04.32-.09.69-.05.37-.07.71-.03,1.03l.04.41c.05.53-.04.8-.28.83-.13.01-.24-.04-.34-.16-.1-.12-.21-.33-.34-.63-.22-.51-.51-.86-.84-1.07-.34-.2-.8-.27-1.4-.21l-1.11.11c-.27.03-.47.1-.6.22-.13.12-.21.34-.24.67s-.01.82.05,1.47l.89,8.58c.04.4.19.68.43.86.25.18.66.31,1.25.41.18.04.31.08.4.13.09.05.14.13.15.24.01.1-.02.18-.1.25s-.18.1-.31.12c-.53.05-1.09.09-1.69.11-.77.05-1.29.09-1.56.12-.28.03-.79.1-1.53.2-.58.1-1.13.18-1.65.24-.11.01-.23,0-.34-.05Z"/><path class="cls-1" d="m241.83,18.21c-.35-.32-.54-.71-.57-1.18-.03-.48.12-.91.43-1.28s.71-.57,1.18-.59c.5-.03.93.12,1.29.44.36.32.56.73.58,1.23.03.47-.12.88-.44,1.24-.32.35-.73.55-1.23.57-.47.03-.88-.12-1.24-.43Z"/><path class="cls-1" d="m264.09,17.89c-.15-.01-.37-.02-.67-.03-1.34-.09-2.49-.15-3.44-.17-.63-.02-1.65-.02-3.06-.01h-.45c-.06,0-.14-.03-.25-.11-.11-.08-.17-.17-.17-.25,0-.1.03-.19.08-.27.05-.08.11-.14.19-.2l3.21-3.39c.79-.84,1.38-1.66,1.76-2.48.38-.82.59-1.71.61-2.68.02-.61-.13-1.12-.43-1.53s-.73-.62-1.27-.63c-.46-.01-.91.11-1.36.35-.45.25-.86.56-1.22.93-.26.29-.5.44-.7.43-.2,0-.3-.18-.29-.52,0-.33.23-.74.67-1.25.44-.5,1.02-.94,1.73-1.31.71-.37,1.45-.54,2.22-.52.71.02,1.33.19,1.84.53s.9.78,1.16,1.33c.26.55.38,1.15.36,1.81-.01.57-.21,1.22-.57,1.95s-.78,1.33-1.23,1.82c-.34.38-.83.86-1.49,1.44-.66.58-1.06.94-1.21,1.08-.8.74-1.21,1.12-1.21,1.15,0,.06.1.1.32.14.46.07,1.1.11,1.92.13.71.02,1.35,0,1.91-.04.49-.03.88-.14,1.19-.33s.56-.49.77-.9c.06-.11.14-.22.25-.32.11-.1.23-.14.36-.14.1,0,.17.05.21.13.04.09.04.19.01.3-.23.59-.45,1.21-.66,1.86s-.32,1.06-.34,1.24c-.02.14-.08.26-.19.35s-.2.13-.27.13c-.04,0-.14,0-.29-.02Z"/><path class="cls-1" d="m270.86,17.53c-.7-.73-1.19-1.62-1.47-2.69s-.38-2.15-.28-3.26c.1-1.17.39-2.27.86-3.3.47-1.03,1.13-1.86,1.98-2.48.85-.62,1.86-.88,3.02-.77,1.07.09,1.95.51,2.65,1.24s1.2,1.62,1.48,2.69.38,2.14.29,3.22c-.1,1.15-.39,2.25-.86,3.3-.47,1.05-1.13,1.88-1.99,2.51-.85.63-1.86.89-3.03.79-1.08-.1-1.97-.51-2.66-1.24Zm4.64-1.19c.41-1.05.69-2.4.83-4.05.09-1.02.08-2.01-.02-2.97-.1-.96-.3-1.74-.6-2.36-.3-.62-.69-.95-1.17-1-.64-.06-1.16.44-1.55,1.48-.39,1.04-.66,2.39-.81,4.06-.15,1.63-.07,3.09.22,4.35.29,1.27.8,1.93,1.52,1.99.64.06,1.16-.44,1.57-1.49Z"/><path class="cls-1" d="m283.38,19.52c-.07-.07-.1-.14-.08-.23.04-.23.19-.35.47-.38.5-.05.88-.11,1.14-.16.26-.05.48-.15.65-.3.17-.15.28-.37.33-.66l1.18-7.66c.07-.45-.04-.79-.32-1.01-.28-.22-.71-.43-1.29-.62-.36-.13-.51-.32-.47-.57.02-.16.11-.27.25-.34.14-.07.3-.1.49-.09.83.07,1.58.05,2.27-.05.69-.1,1.4-.29,2.14-.57.09-.03.17-.04.24-.03.1.02.19.05.28.11.08.06.12.11.11.17-.01.08-.05.25-.12.5-.13.54-.2.89-.22,1.03l-1.49,9.63c-.06.38.05.68.33.9.28.22.78.49,1.51.82.12.06.21.13.26.2s.07.17.05.28c-.03.2-.15.28-.36.25-.32-.05-.94-.16-1.83-.33-.87-.16-1.45-.27-1.73-.31-.3-.04-.86-.12-1.68-.22-.68-.06-1.3-.14-1.85-.22-.1-.02-.18-.06-.25-.13Z"/><path class="cls-1" d="m297.22,22.41c-.08-.15-.1-.32-.06-.52.02-.11.2-.32.51-.63l.29-.31,7.05-7.88s.06-.08.07-.14c.02-.1-.06-.17-.24-.21l-4.68-1.05c-.35-.08-.64-.08-.87-.02-.23.06-.49.23-.77.49-.05.05-.17.15-.33.31-.17.16-.33.29-.5.4-.16.11-.31.15-.43.12-.08-.02-.15-.07-.21-.16-.05-.09-.07-.18-.05-.27.02-.11.1-.28.22-.51.12-.23.2-.37.23-.42.07-.17.14-.33.21-.48.07-.15.13-.27.18-.38.41-.9.66-1.54.75-1.89.03-.14.1-.23.21-.26.11-.03.21-.03.31,0,.07.02.15.04.24.08.09.03.18.07.27.1.59.24,1.08.4,1.47.5l3.52.83c1.38.31,2.49.53,3.34.66.06.01.09.07.11.18.02.11.02.21,0,.31-.02.07-.08.17-.2.3-.12.13-.25.27-.4.43l-.48.48-8.74,9.65c-.12.13-.24.26-.37.39-.13.12-.22.18-.26.17-.18-.04-.31-.14-.4-.29Z"/></svg>