<?xml version="1.0" encoding="UTF-8"?><svg id="Layer_1" xmlns="http://www.w3.org/2000/svg" viewBox="0 0 510.2 242.69"><defs><style>.cls-1{letter-spacing:0em;}.cls-2{letter-spacing:0em;}.cls-3{letter-spacing:.03em;}.cls-4{font-family:Espiritu-Script, Espiritu;font-size:108.64px;}.cls-5{stroke-width:0px;}</style></defs><path class="cls-5" d="m139.18,236.91c-.54-.04-.97-.05-1.28-.05l-1.19.02c-.62.02-1.07.04-1.35.04-.1,0-.18-.02-.25-.07s-.11-.11-.11-.18c0-.2.13-.33.38-.38.47-.1.78-.22.94-.38.16-.16.24-.42.24-.79v-8.17c0-.4-.08-.67-.23-.83s-.47-.29-.95-.4c-.25-.06-.38-.19-.38-.38,0-.08.04-.15.11-.2s.16-.07.25-.07c.44,0,.89.02,1.33.05.58.02.98.04,1.22.04.2,0,.76-.02,1.67-.07.82-.06,1.48-.09,2-.09,1.2,0,2.29.25,3.27.74.98.49,1.75,1.18,2.3,2.07.56.89.84,1.89.84,3.01s-.26,2.11-.77,3.05c-.52.94-1.26,1.7-2.24,2.27-.98.57-2.12.85-3.43.85-.58,0-1.37-.02-2.38-.07Zm4.85-2.12c.63-.85.95-2.02.95-3.49,0-1.07-.15-2-.46-2.81-.31-.8-.75-1.43-1.34-1.87-.59-.44-1.28-.67-2.09-.67-.66,0-1.12.04-1.37.12s-.38.27-.38.57v7.85c0,.58.16.98.49,1.22.32.24.81.36,1.46.36,1.2,0,2.12-.43,2.75-1.28Z"/><path class="cls-5" d="m149.44,236.66c0-.11.04-.19.11-.25.07-.06.18-.11.32-.14.73-.22,1.23-.62,1.49-1.21,1.08-2.51,2.12-5.15,3.13-7.92.14-.4.25-.73.32-1.01.07-.28.11-.43.13-.45.44-.11.85-.23,1.22-.36.32-.13.62-.34.88-.63.06-.04.11-.05.14-.05.07,0,.12.04.14.11.08.18.14.34.18.49.79,2.54,1.84,5.8,3.15,9.77.2.65.7,1.07,1.49,1.26.14.04.25.08.32.14.07.06.11.14.11.23,0,.08-.03.15-.1.2-.07.05-.15.07-.26.07l-1.37-.04c-.55-.04-1.07-.05-1.55-.05-.23,0-.67.01-1.31.04-.67.02-1.13.04-1.39.04-.11,0-.2-.02-.28-.06-.08-.04-.12-.1-.12-.19,0-.18.14-.31.43-.38.42-.08.73-.19.92-.32.19-.13.29-.3.29-.51,0-.05-.01-.13-.04-.25l-.32-1.3-.25-.95c-.02-.1-.06-.17-.11-.21s-.12-.06-.22-.06h-3.19c-.08,0-.15.02-.2.07-.05.05-.08.13-.11.23-.32.98-.53,1.65-.63,2-.04.12-.05.24-.05.36,0,.24.09.43.27.58.18.14.48.26.9.36.29.06.43.19.43.38,0,.17-.14.25-.41.25l-.97-.02c-.41-.02-.74-.04-.99-.04-.17,0-.36,0-.57.03-.21.02-.36.03-.46.03-.34.04-.68.05-1.04.05-.31,0-.47-.1-.47-.29Zm7.15-4.97c.18,0,.27-.04.27-.13,0-.02-.01-.08-.04-.18l-1.21-4.07c-.04-.13-.07-.2-.11-.2-.01,0-.05.07-.13.2l-1.42,4.07s-.04.1-.04.14c0,.11.11.16.32.16h2.34Z"/><path class="cls-5" d="m166.02,236.88c-.1-.05-.14-.12-.14-.21,0-.18.18-.31.54-.38.44-.08.76-.24.95-.48.19-.23.28-.55.28-.95v-2.48c0-.37-.05-.69-.14-.95-.1-.26-.23-.55-.41-.86l-2.32-3.58c-.2-.32-.41-.59-.62-.81s-.47-.37-.78-.45c-.16-.06-.27-.11-.33-.16-.07-.05-.1-.13-.1-.23,0-.07.04-.13.11-.18s.16-.07.27-.07c.49,0,.97.02,1.44.05.16.01.38.02.68.04s.56.02.79.02c.37,0,.74-.02,1.1-.05.12-.01.3-.02.53-.04.23-.01.44-.02.62-.02.12,0,.23.02.33.07.1.05.15.11.15.18,0,.1-.05.17-.15.23-.1.06-.22.11-.37.14-.35.08-.59.17-.72.26s-.2.23-.2.42c0,.18.07.39.2.63l1.85,3.19c.1.22.2.32.32.32.1,0,.2-.11.32-.32.53-.91,1.06-1.92,1.58-3.02.14-.26.22-.51.22-.74,0-.22-.1-.38-.29-.5-.19-.12-.42-.19-.68-.22-.13-.02-.26-.07-.38-.14-.12-.07-.18-.16-.18-.25,0-.07.05-.13.15-.17.1-.04.23-.06.37-.06.23,0,.55.01.95.04.38.02.68.04.88.04s.38,0,.52-.02c.14-.01.27-.02.38-.04.38-.05.7-.07.94-.07.16,0,.29.02.39.07.1.05.15.12.15.22s-.04.17-.13.21c-.08.04-.23.1-.43.17-.65.17-1.17.58-1.57,1.22-.4.64-.65,1.04-.76,1.22-.46.71-.93,1.48-1.42,2.32-.17.29-.29.57-.38.84-.08.27-.13.57-.13.91v2.65c0,.43.09.75.26.95s.5.36.98.48c.18.05.31.1.4.14s.13.12.13.22c0,.08-.04.15-.13.21-.09.05-.2.08-.33.08-.29,0-.76-.02-1.4-.07-.18-.01-.38-.02-.59-.04-.22-.01-.44-.02-.68-.02s-.65.02-1.28.07-1.07.07-1.35.07c-.16,0-.28-.03-.38-.08Z"/><path class="cls-5" d="m179.81,236.36c-1.03-.5-1.85-1.2-2.46-2.1-.61-.9-.91-1.93-.91-3.1,0-1.1.3-2.14.9-3.1.6-.96,1.45-1.73,2.56-2.3,1.1-.58,2.38-.86,3.82-.86,1.04,0,2.14.2,3.29.61.24.11.38.28.41.52.1.72.14,1.44.14,2.16,0,.1-.03.17-.09.23-.06.05-.13.08-.22.08-.19,0-.32-.1-.4-.31-.1-.35-.2-.64-.32-.89s-.28-.46-.49-.66c-.58-.55-1.42-.83-2.54-.83-.8,0-1.51.22-2.12.67-.61.44-1.09,1.04-1.42,1.77-.34.74-.5,1.53-.5,2.38,0,1.66.35,2.99,1.06,4,.71,1.01,1.72,1.52,3.02,1.52.88,0,1.59-.18,2.14-.55.55-.37,1.02-.95,1.4-1.75.05-.1.11-.17.18-.22s.14-.08.22-.08.13.03.19.08c.05.05.08.13.08.22,0,.54-.13,1.22-.4,2.05-.05.14-.11.25-.18.33-.07.08-.17.15-.31.21-1,.43-2.22.65-3.67.65-1.24,0-2.37-.25-3.4-.75Z"/><path class="cls-5" d="m190.26,236.66c0-.11.04-.19.11-.25.07-.06.18-.11.32-.14.73-.22,1.23-.62,1.49-1.21,1.08-2.51,2.12-5.15,3.13-7.92.14-.4.25-.73.32-1.01.07-.28.11-.43.13-.45.44-.11.85-.23,1.22-.36.32-.13.62-.34.88-.63.06-.04.11-.05.14-.05.07,0,.12.04.14.11.08.18.14.34.18.49.79,2.54,1.84,5.8,3.15,9.77.2.65.7,1.07,1.49,1.26.14.04.25.08.32.14.07.06.11.14.11.23,0,.08-.03.15-.1.2-.07.05-.15.07-.26.07l-1.37-.04c-.55-.04-1.07-.05-1.55-.05-.23,0-.67.01-1.31.04-.67.02-1.13.04-1.39.04-.11,0-.2-.02-.28-.06s-.12-.1-.12-.19c0-.18.14-.31.43-.38.42-.08.73-.19.92-.32.19-.13.29-.3.29-.51,0-.05-.01-.13-.04-.25l-.32-1.3-.25-.95c-.02-.1-.06-.17-.11-.21s-.12-.06-.22-.06h-3.19c-.08,0-.15.02-.2.07s-.08.13-.11.23c-.32.98-.53,1.65-.63,2-.04.12-.05.24-.05.36,0,.24.09.43.27.58.18.14.48.26.9.36.29.06.43.19.43.38,0,.17-.14.25-.41.25l-.97-.02c-.41-.02-.74-.04-.99-.04-.17,0-.36,0-.57.03-.21.02-.36.03-.46.03-.34.04-.68.05-1.04.05-.31,0-.47-.1-.47-.29Zm7.15-4.97c.18,0,.27-.04.27-.13,0-.02-.01-.08-.04-.18l-1.21-4.07c-.04-.13-.07-.2-.11-.2-.01,0-.05.07-.13.2l-1.42,4.07s-.04.1-.04.14c0,.11.11.16.32.16h2.34Z"/><path class="cls-5" d="m214.45,236.81c-.5-.28-.96-.69-1.37-1.23-.44-.56-.84-1.12-1.18-1.66s-.7-1.18-1.07-1.93c-.12-.26-.28-.45-.49-.56-.21-.12-.41-.18-.61-.18-.13,0-.2.12-.2.36v3.44c0,.37.1.64.3.81.2.17.55.31,1.07.41.13.02.23.06.3.12.07.05.1.13.1.24,0,.18-.11.27-.34.27-.46,0-.95-.02-1.48-.05-.65-.02-1.09-.04-1.31-.04s-.65.01-1.28.04c-.47.04-.92.05-1.35.05-.1,0-.18-.02-.25-.07s-.11-.11-.11-.18c0-.2.13-.33.38-.38.47-.1.79-.22.95-.39.17-.16.25-.43.25-.8v-8.08c0-.43-.07-.74-.21-.91-.14-.17-.43-.3-.87-.39-.28-.05-.41-.17-.41-.38,0-.07.04-.14.11-.19.07-.05.17-.08.29-.08.41,0,.86.02,1.37.07.1,0,.25,0,.45.03.2.02.41.03.61.03.23,0,.55-.02.95-.07.62-.06,1.13-.09,1.53-.09,1.42,0,2.5.24,3.25.73.75.49,1.12,1.21,1.12,2.17,0,.73-.22,1.33-.67,1.78-.44.46-.99.79-1.64,1.01-.08.04-.09.11-.02.22.6.91,1.15,1.7,1.66,2.36.5.66,1.03,1.24,1.57,1.75.35.34.72.55,1.11.64.39.09.86.13,1.41.13.18,0,.27.11.27.32,0,.37-.2.65-.58.83-.39.18-.92.27-1.58.27-.85,0-1.53-.14-2.03-.42Zm-2.71-6.78c.35-.43.53-1,.53-1.71,0-1.67-.66-2.5-1.98-2.5-.28,0-.47.11-.58.33-.11.22-.16.66-.16,1.32-.01.36-.02,1.21-.02,2.54,0,.24.06.41.17.51.11.1.29.15.51.15.66,0,1.17-.22,1.52-.65Z"/><path class="cls-5" d="m220.83,236.86c-.07-.05-.11-.12-.11-.19s.03-.14.1-.22c.07-.07.17-.13.3-.16.43-.12.73-.25.89-.4.16-.14.24-.4.24-.77v-8.19c0-.4-.08-.67-.22-.84-.15-.16-.45-.29-.89-.39-.28-.06-.41-.19-.41-.38,0-.07.04-.14.11-.19s.17-.08.29-.08c.46,0,.92.02,1.39.05.62.02,1.06.04,1.31.04,1.48,0,2.77-.02,3.89-.05.37,0,.69-.02.95-.06.26-.04.41-.06.45-.06.1,0,.19.03.29.08.1.05.15.14.16.26.02.23.07.57.14,1.03.1.65.14,1.09.14,1.31,0,.11-.02.19-.07.25-.05.06-.1.09-.16.09-.16,0-.27-.1-.34-.29-.04-.08-.1-.23-.19-.45s-.17-.39-.23-.52c-.07-.13-.14-.24-.22-.32-.37-.37-.8-.56-1.3-.56h-1.35c-.26,0-.49.07-.68.22-.19.14-.29.34-.29.58v3.4c0,.29.15.43.45.43h1.58c.29,0,.5-.09.64-.26s.27-.45.41-.82c.07-.23.19-.34.36-.34.06,0,.11.04.16.11.05.07.07.17.05.29-.05.6-.07,1.09-.07,1.46,0,.5.02.99.05,1.46l.02.14c0,.22-.07.32-.2.32-.08,0-.17-.04-.24-.13s-.13-.19-.17-.32c-.11-.38-.23-.67-.37-.85-.14-.18-.32-.27-.55-.27h-1.67c-.3,0-.45.14-.45.41v3.42c0,.35.08.6.23.75.16.15.4.22.72.22h1.55c.58,0,1.03-.13,1.37-.4s.68-.74,1.03-1.44c.08-.14.2-.22.34-.22.06,0,.1.03.13.1.03.07.04.15.04.24,0,.22-.04.47-.11.77-.07.29-.18.66-.32,1.11-.06.17-.11.32-.14.45-.02.07-.07.13-.15.17s-.16.06-.24.06c-.49,0-.97,0-1.42-.02-2.52-.04-4-.05-4.45-.05-.4,0-.81.02-1.24.05-.58.02-.99.04-1.24.04-.11,0-.2-.03-.27-.08Z"/><path class="cls-5" d="m240.81,236.84c-.49-.2-.89-.5-1.21-.9-.31-.4-.47-.87-.47-1.42,0-.72.25-1.41.76-2.08s1.2-1.21,2.09-1.63l.36-.18-.14-.16s-.17-.17-.4-.41-.42-.51-.58-.82c-.16-.31-.23-.63-.23-.95,0-.42.14-.8.41-1.13.28-.34.66-.6,1.16-.8s1.06-.3,1.68-.3c.54,0,1.02.09,1.44.26s.75.41.99.71.36.63.36.99c0,.52-.16.93-.48,1.24-.32.31-.79.59-1.43.83l-.4.14.36.38c.5.5,1.18,1.2,2.02,2.09l.32.36.25-.23c.34-.32.61-.67.83-1.05s.32-.67.32-.89c0-.28-.17-.47-.52-.59-.02-.01-.07-.04-.14-.07-.07-.04-.13-.08-.16-.12s-.05-.09-.05-.15c0-.11.04-.18.13-.21.09-.03.22-.04.39-.04.13,0,.38.02.74.07.43.05.76.07.99.07.26,0,.7-.07,1.3-.22.53-.12.88-.18,1.04-.18.07,0,.14.02.2.07.06.05.09.1.09.16,0,.11-.06.21-.17.31-.11.1-.25.16-.42.18-.58.1-1.13.41-1.66.94-.6.58-1.21,1.13-1.82,1.66l-.92.85.32.4c.47.56.86.98,1.17,1.25.31.27.64.41.97.41.5,0,.98-.09,1.42-.27.04-.01.1-.03.18-.06.08-.03.16-.04.23-.04.1,0,.17.02.23.05s.08.1.08.2c0,.18-.13.4-.41.66-.27.26-.63.48-1.09.67-.46.19-.94.28-1.46.28-.68,0-1.24-.12-1.66-.37-.42-.25-.88-.67-1.37-1.27l-.32-.38-.11.11c-.53.62-1.11,1.1-1.75,1.43s-1.3.5-1.98.5c-.52,0-1.02-.1-1.51-.31Zm3.86-1.55c.32-.1.61-.28.87-.54l.13-.13-.27-.34c-.9-1.09-1.72-2.05-2.45-2.86l-.22-.25-.32.18c-.6.34-.9.94-.9,1.82,0,.7.19,1.25.58,1.66.38.41.9.61,1.55.61.37,0,.72-.05,1.04-.14Zm-.1-5.67c.17-.13.29-.34.38-.64s.13-.62.13-.96c0-.37-.08-.68-.23-.94s-.38-.38-.68-.38c-.23,0-.43.09-.61.27s-.27.41-.27.68c0,.43.07.78.2,1.04s.31.51.54.75l.36.36.2-.18Z"/><path class="cls-5" d="m264.25,236.84c-.09-.05-.13-.11-.13-.18,0-.19.14-.32.43-.38.48-.11.82-.24,1.02-.41.2-.16.3-.42.3-.78v-7.43c0-.65-.02-1.07-.06-1.27s-.12-.32-.22-.37c-.14-.07-.43-.11-.85-.11h-.4c-.37,0-.73.09-1.08.27s-.62.41-.83.7c-.18.26-.35.48-.51.66-.16.17-.32.26-.48.26-.17,0-.25-.11-.25-.32,0-.18.04-.33.11-.45.24-.47.41-.86.51-1.19.1-.32.17-.69.21-1.1.04-.31.19-.47.45-.47.06,0,.12.04.19.13.07.08.1.14.12.16.1.13.19.24.27.32.11.08.3.15.57.21.27.05.51.08.73.08h6.77c.28,0,.53-.03.75-.08.22-.05.39-.12.5-.19.08-.06.21-.16.38-.29.07-.07.15-.13.23-.19.08-.05.17-.08.25-.08.13,0,.2.1.2.31,0,.08-.01.21-.04.38-.06.22-.1.36-.13.43-.01.07-.06.26-.13.57-.08.31-.12.59-.12.86v.34c0,.44-.1.67-.31.67-.11,0-.2-.05-.27-.16s-.15-.29-.23-.56c-.14-.44-.35-.77-.61-.96-.26-.2-.65-.3-1.15-.3h-.94c-.23,0-.4.04-.52.14-.12.09-.21.27-.26.54-.05.27-.08.68-.08,1.23v7.25c0,.34.1.59.29.76.19.17.53.32,1.01.45.14.05.25.1.32.14.07.05.11.12.11.22,0,.08-.04.15-.11.2-.07.05-.16.07-.27.07-.44,0-.92-.02-1.42-.05-.65-.02-1.09-.04-1.31-.04-.24,0-.67.01-1.3.04-.49.04-.96.05-1.4.05-.1,0-.19-.02-.28-.07Z"/><path class="cls-5" d="m284.71,236.81c-.5-.28-.96-.69-1.37-1.23-.44-.56-.84-1.12-1.18-1.66-.34-.54-.7-1.18-1.07-1.93-.12-.26-.28-.45-.49-.56-.2-.12-.41-.18-.61-.18-.13,0-.2.12-.2.36v3.44c0,.37.1.64.3.81s.55.31,1.07.41c.13.02.23.06.3.12.07.05.1.13.1.24,0,.18-.11.27-.34.27-.46,0-.95-.02-1.48-.05-.65-.02-1.09-.04-1.31-.04s-.65.01-1.28.04c-.47.04-.92.05-1.35.05-.1,0-.18-.02-.25-.07-.07-.05-.11-.11-.11-.18,0-.2.13-.33.38-.38.47-.1.79-.22.95-.39s.25-.43.25-.8v-8.08c0-.43-.07-.74-.21-.91s-.43-.3-.87-.39c-.28-.05-.41-.17-.41-.38,0-.07.04-.14.11-.19s.17-.08.29-.08c.41,0,.86.02,1.37.07.1,0,.25,0,.45.03.2.02.41.03.61.03.23,0,.55-.02.95-.07.62-.06,1.13-.09,1.53-.09,1.42,0,2.5.24,3.25.73.75.49,1.12,1.21,1.12,2.17,0,.73-.22,1.33-.67,1.78-.44.46-.99.79-1.64,1.01-.08.04-.09.11-.02.22.6.91,1.15,1.7,1.66,2.36.5.66,1.03,1.24,1.57,1.75.35.34.72.55,1.11.64.39.09.86.13,1.41.13.18,0,.27.11.27.32,0,.37-.2.65-.58.83-.39.18-.92.27-1.58.27-.85,0-1.53-.14-2.03-.42Zm-2.71-6.78c.35-.43.53-1,.53-1.71,0-1.67-.66-2.5-1.98-2.5-.28,0-.47.11-.58.33-.11.22-.16.66-.16,1.32-.01.36-.02,1.21-.02,2.54,0,.24.06.41.17.51.11.1.28.15.51.15.66,0,1.17-.22,1.52-.65Z"/><path class="cls-5" d="m290.67,236.66c0-.11.04-.19.11-.25.07-.06.18-.11.32-.14.73-.22,1.23-.62,1.49-1.21,1.08-2.51,2.12-5.15,3.13-7.92.14-.4.25-.73.32-1.01.07-.28.11-.43.13-.45.44-.11.85-.23,1.22-.36.32-.13.62-.34.88-.63.06-.04.11-.05.14-.05.07,0,.12.04.14.11.08.18.14.34.18.49.79,2.54,1.84,5.8,3.15,9.77.2.65.7,1.07,1.49,1.26.14.04.25.08.32.14.07.06.11.14.11.23,0,.08-.03.15-.1.2-.07.05-.15.07-.26.07l-1.37-.04c-.55-.04-1.07-.05-1.55-.05-.23,0-.67.01-1.31.04-.67.02-1.13.04-1.39.04-.11,0-.2-.02-.28-.06s-.12-.1-.12-.19c0-.18.14-.31.43-.38.42-.08.73-.19.92-.32.19-.13.29-.3.29-.51,0-.05-.01-.13-.04-.25l-.32-1.3-.25-.95c-.02-.1-.06-.17-.11-.21s-.12-.06-.22-.06h-3.19c-.08,0-.15.02-.2.07s-.08.13-.11.23c-.32.98-.53,1.65-.63,2-.04.12-.05.24-.05.36,0,.24.09.43.27.58.18.14.48.26.9.36.29.06.43.19.43.38,0,.17-.14.25-.41.25l-.97-.02c-.41-.02-.74-.04-.99-.04-.17,0-.36,0-.57.03-.21.02-.36.03-.46.03-.34.04-.68.05-1.04.05-.31,0-.47-.1-.47-.29Zm7.15-4.97c.18,0,.27-.04.27-.13,0-.02-.01-.08-.04-.18l-1.21-4.07c-.04-.13-.07-.2-.11-.2-.01,0-.05.07-.13.2l-1.42,4.07s-.04.1-.04.14c0,.11.11.16.32.16h2.34Z"/><path class="cls-5" d="m305.68,236.84c-.07-.05-.11-.11-.11-.18,0-.2.13-.33.38-.38.47-.11.79-.24.96-.39s.26-.41.26-.78v-8.17c0-.4-.08-.67-.23-.83-.16-.16-.47-.29-.95-.4-.25-.06-.38-.19-.38-.38,0-.08.04-.15.11-.2.07-.05.16-.07.25-.07.43,0,.88.02,1.35.05.6.02,1.01.04,1.24.04.2,0,.62-.01,1.24-.04.65-.02,1.11-.04,1.39-.04.23,0,.34.08.34.25,0,.11-.03.19-.09.24-.06.05-.16.1-.31.14-.48.13-.8.28-.95.44-.16.16-.23.43-.23.8v8.14c0,.35.08.6.25.76s.49.3.97.43c.13.04.23.08.29.13.06.05.09.13.09.23,0,.18-.11.27-.32.27-.43,0-.89-.02-1.39-.05-.62-.02-1.05-.04-1.28-.04-.24,0-.66.01-1.26.04-.47.04-.92.05-1.37.05-.1,0-.18-.02-.25-.07Z"/><path class="cls-5" d="m325.06,236.88c-.35-.21-.69-.53-1.03-.95-1.1-1.18-2.26-2.43-3.46-3.76l-3.47-3.74c-.12-.14-.2-.22-.23-.22-.08,0-.13.12-.13.36-.01.43,0,1.02,0,1.76.02.74.03,1.28.03,1.62.02,1.37.04,2.33.04,2.9,0,.38.12.69.35.92.23.23.59.4,1.07.5.34.07.5.19.5.36,0,.08-.04.15-.13.2s-.2.07-.32.07c-.37,0-.76-.01-1.17-.04-.34-.02-.61-.04-.83-.04-.36,0-.71.01-1.04.04-.34.02-.55.04-.63.04-.1,0-.19-.02-.29-.07s-.14-.11-.14-.18c0-.08.04-.15.12-.21.08-.05.2-.11.35-.17.55-.2.86-.7.92-1.48.1-.89.18-1.96.26-3.23.08-1.27.12-2.55.12-3.86,0-.56-.14-.99-.41-1.28s-.68-.53-1.22-.74c-.34-.1-.5-.23-.5-.4,0-.19.16-.29.47-.29.22,0,.68.01,1.4.04,1.3.04,1.99.05,2.09.05.14,0,.27.07.38.2.47.53,1.4,1.58,2.79,3.17,1.18,1.34,2.48,2.82,3.92,4.43.12.16.22.23.29.23.1,0,.14-.09.14-.27l.02-2.52c0-1.31-.02-2.47-.05-3.47-.01-.31-.13-.55-.34-.72s-.55-.31-.99-.41c-.32-.07-.49-.2-.49-.38,0-.07.04-.13.13-.18s.2-.07.31-.07l1.75.02.83-.02c.38-.02.75-.04,1.1-.04.13,0,.24.02.32.07s.13.11.13.2c0,.18-.16.3-.47.36-.43.08-.74.2-.91.36s-.27.41-.28.76c0,.54-.01,1.21-.04,2.03-.02.81-.04,1.39-.05,1.74-.06,1.4-.09,2.55-.09,3.44,0,.46.05,1.03.14,1.73l.05.65c0,.54-.17.81-.5.81-.19,0-.46-.11-.81-.31Z"/><path class="cls-5" d="m330.39,236.84c-.07-.05-.11-.11-.11-.18,0-.2.13-.33.38-.38.47-.11.79-.24.96-.39s.26-.41.26-.78v-8.17c0-.4-.08-.67-.23-.83s-.47-.29-.95-.4c-.25-.06-.38-.19-.38-.38,0-.08.04-.15.11-.2s.16-.07.25-.07c.43,0,.88.02,1.35.05.6.02,1.01.04,1.24.04.2,0,.62-.01,1.24-.04.65-.02,1.11-.04,1.39-.04.23,0,.34.08.34.25,0,.11-.03.19-.09.24-.06.05-.16.1-.31.14-.48.13-.8.28-.95.44s-.23.43-.23.8v8.14c0,.35.08.6.25.76.17.16.49.3.97.43.13.04.23.08.29.13.06.05.09.13.09.23,0,.18-.11.27-.32.27-.43,0-.89-.02-1.39-.05-.62-.02-1.05-.04-1.28-.04-.24,0-.66.01-1.26.04-.47.04-.92.05-1.37.05-.1,0-.18-.02-.25-.07Z"/><path class="cls-5" d="m349.78,236.88c-.35-.21-.69-.53-1.03-.95-1.1-1.18-2.26-2.43-3.46-3.76l-3.47-3.74c-.12-.14-.2-.22-.23-.22-.08,0-.13.12-.13.36-.01.43,0,1.02,0,1.76.02.74.03,1.28.03,1.62.02,1.37.04,2.33.04,2.9,0,.38.12.69.35.92.23.23.59.4,1.07.5.34.07.5.19.5.36,0,.08-.04.15-.13.2s-.2.07-.32.07c-.37,0-.76-.01-1.17-.04-.34-.02-.61-.04-.83-.04-.36,0-.71.01-1.04.04-.34.02-.55.04-.63.04-.1,0-.19-.02-.29-.07s-.14-.11-.14-.18c0-.08.04-.15.12-.21.08-.05.2-.11.35-.17.55-.2.86-.7.92-1.48.1-.89.18-1.96.26-3.23.08-1.27.12-2.55.12-3.86,0-.56-.14-.99-.41-1.28s-.68-.53-1.22-.74c-.34-.1-.5-.23-.5-.4,0-.19.16-.29.47-.29.22,0,.68.01,1.4.04,1.3.04,1.99.05,2.09.05.14,0,.27.07.38.2.47.53,1.4,1.58,2.79,3.17,1.18,1.34,2.48,2.82,3.92,4.43.12.16.22.23.29.23.1,0,.14-.09.14-.27l.02-2.52c0-1.31-.02-2.47-.05-3.47-.01-.31-.13-.55-.34-.72s-.55-.31-.99-.41c-.32-.07-.49-.2-.49-.38,0-.07.04-.13.13-.18s.2-.07.31-.07l1.75.02.83-.02c.38-.02.75-.04,1.1-.04.13,0,.24.02.32.07s.13.11.13.2c0,.18-.16.3-.47.36-.43.08-.74.2-.91.36s-.27.41-.28.76c0,.54-.01,1.21-.04,2.03-.02.81-.04,1.39-.05,1.74-.06,1.4-.09,2.55-.09,3.44,0,.46.05,1.03.14,1.73l.05.65c0,.54-.17.81-.5.81-.19,0-.46-.11-.81-.31Z"/><path class="cls-5" d="m358.36,236.36c-.96-.5-1.72-1.2-2.29-2.1-.56-.9-.85-1.92-.85-3.06s.28-2.15.85-3.11c.56-.96,1.36-1.73,2.39-2.31s2.21-.87,3.55-.87c.48,0,1.1.07,1.87.21.77.14,1.35.29,1.75.44.2.07.32.22.36.43.14.95.22,1.66.22,2.12,0,.12-.03.21-.08.27-.05.06-.13.09-.23.09-.13,0-.23-.03-.31-.1-.07-.07-.13-.16-.18-.28-.26-.6-.55-1.06-.86-1.39-.26-.26-.57-.47-.93-.63-.35-.16-.81-.23-1.36-.23-.84,0-1.56.22-2.17.67-.61.45-1.07,1.05-1.39,1.79-.32.74-.48,1.55-.48,2.43,0,1.67.31,2.99.93,3.96.62.97,1.5,1.46,2.65,1.46.26,0,.49-.04.68-.13.19-.08.37-.19.57-.32.12-.1.22-.25.3-.47s.12-.45.12-.7c.02-.41.04-.9.04-1.48,0-.31-.13-.52-.4-.63-.23-.13-.61-.26-1.15-.38-.11-.02-.21-.07-.3-.14s-.14-.16-.14-.25c0-.07.04-.13.13-.19.08-.05.17-.08.25-.08.44,0,.92.02,1.42.05.65.02,1.09.04,1.33.04s.6-.01,1.08-.04c.53-.02.91-.04,1.15-.04.08,0,.16.02.22.07.06.05.09.11.09.2,0,.19-.12.32-.36.38-.32.08-.55.19-.67.31s-.21.32-.26.57c-.08.41-.13.86-.13,1.35v.58c0,.08.08.2.23.36.12.14.18.27.18.38,0,.1-.03.18-.08.25-.05.07-.14.11-.26.13-.08.01-.25.08-.5.2-.53.26-1.1.49-1.71.67-.61.18-1.31.27-2.11.27-1.15,0-2.21-.25-3.17-.75Z"/><text class="cls-4" transform="translate(0 146.39)"><tspan class="cls-3" x="0" y="0">C</tspan><tspan x="76.37" y="0">lube </tspan><tspan class="cls-2" x="224.01" y="0">D</tspan><tspan class="cls-1" x="316.35" y="0">oguês</tspan></text><path class="cls-5" d="m200.64,24.91c-.1-.04-.16-.1-.18-.19-.02-.08,0-.17.05-.28.06-.1.15-.19.3-.27.46-.26.77-.5.92-.71.15-.21.17-.53.06-.96l-2.35-9.46c-.11-.46-.28-.76-.5-.9-.22-.14-.6-.21-1.14-.19-.34,0-.53-.1-.59-.32-.02-.08,0-.17.07-.25.07-.08.17-.14.31-.18.53-.13,1.07-.24,1.62-.33.73-.15,1.24-.26,1.53-.33,1.7-.42,3.2-.82,4.47-1.18.43-.11.79-.22,1.08-.35.29-.12.46-.19.5-.2.11-.03.23-.02.36.01.13.04.21.12.26.25.09.26.25.64.46,1.14.3.72.48,1.21.54,1.48.03.12.03.23-.01.31-.04.08-.09.13-.16.15-.18.04-.34-.03-.48-.23-.07-.09-.18-.24-.35-.46s-.31-.4-.42-.54c-.11-.13-.23-.24-.35-.31-.54-.32-1.09-.41-1.66-.27l-1.56.39c-.3.08-.55.22-.73.45-.18.22-.24.47-.17.75l.98,3.93c.08.33.3.46.64.37l1.83-.45c.33-.08.55-.24.66-.48.11-.24.19-.59.23-1.06.02-.28.12-.45.32-.5.07-.02.14,0,.22.08s.12.17.15.32c.12.71.23,1.28.33,1.7.14.58.3,1.14.48,1.67l.06.16c.06.25.02.39-.14.43-.1.02-.2,0-.32-.08-.11-.08-.21-.18-.29-.33-.24-.41-.46-.7-.67-.87s-.45-.22-.71-.15l-1.93.48c-.35.09-.48.29-.4.61l.98,3.95c.1.4.26.67.48.8.22.13.52.15.9.05l1.79-.44c.67-.17,1.15-.45,1.47-.85.31-.4.57-1.05.77-1.96.06-.19.17-.31.33-.35.07-.02.13,0,.18.08.05.07.09.16.12.27.06.25.09.55.09.91,0,.36-.02.82-.06,1.37-.02.21-.03.4-.04.56,0,.09-.05.17-.13.24-.08.07-.17.12-.26.14-.57.14-1.12.27-1.65.39-2.92.68-4.64,1.08-5.15,1.21-.46.11-.93.25-1.42.42-.66.19-1.13.33-1.42.4-.12.03-.24.03-.33-.02Z"/><path class="cls-5" d="m215.08,20.89c-.25-.1-.43-.24-.53-.43-.19-.34-.37-.78-.53-1.32-.16-.54-.28-1.1-.35-1.68-.03-.18.09-.3.37-.35.13-.02.22-.02.28,0s.13.08.2.17c.5,1.03,1.12,1.8,1.85,2.33.73.52,1.5.71,2.3.57.62-.11,1.07-.4,1.36-.88.28-.48.38-.98.29-1.52-.08-.44-.23-.79-.45-1.06-.22-.27-.52-.5-.88-.69s-.89-.4-1.57-.62c-.88-.31-1.58-.59-2.11-.84-.52-.25-1-.62-1.42-1.1-.43-.47-.71-1.09-.84-1.85-.14-.8-.05-1.55.27-2.24s.82-1.28,1.51-1.75c.68-.47,1.49-.79,2.42-.95.49-.09.99-.12,1.49-.11.5.01.93.06,1.3.14.18.04.32.1.41.17.09.07.18.21.28.41.29.65.52,1.45.69,2.42.01.07-.01.14-.07.21-.06.07-.15.11-.26.13-.13.02-.25.01-.37-.03-.12-.04-.2-.11-.24-.21-.39-.8-.85-1.38-1.39-1.73-.54-.35-1.15-.47-1.82-.35-1.31.23-1.85.98-1.62,2.25.08.45.38.84.9,1.17.52.33,1.33.69,2.43,1.09,1.26.49,2.18,1.01,2.76,1.58s.95,1.32,1.12,2.26c.25,1.41,0,2.54-.78,3.41-.77.87-1.93,1.44-3.49,1.72-1.28.23-2.44.13-3.49-.3Z"/><path class="cls-5" d="m230.25,19.08c-.11-.05-.17-.11-.18-.2-.02-.23.13-.39.46-.5.55-.19.94-.39,1.15-.6.21-.22.3-.54.25-.96l-.91-8.8c-.08-.77-.16-1.26-.23-1.49-.07-.23-.18-.37-.31-.41-.18-.07-.52-.08-1.01-.02l-.47.05c-.44.05-.86.2-1.25.45-.39.25-.69.57-.89.93-.18.33-.36.61-.53.84-.17.23-.35.35-.53.37-.2.02-.31-.1-.34-.35-.02-.21,0-.39.07-.55.23-.58.38-1.07.46-1.47.08-.4.12-.84.11-1.33,0-.37.16-.58.48-.61.07,0,.15.03.24.13.09.09.14.15.16.18.13.15.25.26.36.35.14.09.37.14.7.18s.62.03.87,0l8.01-.83c.33-.03.62-.1.87-.19s.44-.19.56-.28c.09-.08.23-.21.41-.39.08-.09.16-.18.25-.25s.19-.12.29-.13c.16-.02.25.1.27.34.01.1.01.25,0,.45-.04.26-.08.44-.1.53,0,.09-.04.32-.09.69-.05.37-.07.71-.03,1.03l.04.41c.05.53-.04.8-.28.83-.13.01-.24-.04-.34-.16-.1-.12-.21-.33-.34-.63-.22-.51-.51-.86-.84-1.07-.34-.2-.8-.27-1.4-.21l-1.11.11c-.27.03-.47.1-.6.22-.13.12-.21.34-.24.67s-.01.82.05,1.47l.89,8.58c.04.4.19.68.43.86.25.18.66.31,1.25.41.18.04.31.08.4.13.09.05.14.13.15.24.01.1-.02.18-.1.25s-.18.1-.31.12c-.53.05-1.09.09-1.69.11-.77.05-1.29.09-1.56.12-.28.03-.79.1-1.53.2-.58.1-1.13.18-1.65.24-.11.01-.23,0-.34-.05Z"/><path class="cls-5" d="m241.83,18.21c-.35-.32-.54-.71-.57-1.18-.03-.48.12-.91.43-1.28s.71-.57,1.18-.59c.5-.03.93.12,1.29.44.36.32.56.73.58,1.23.03.47-.12.88-.44,1.24-.32.35-.73.55-1.23.57-.47.03-.88-.12-1.24-.43Z"/><path class="cls-5" d="m264.09,17.89c-.15-.01-.37-.02-.67-.03-1.34-.09-2.49-.15-3.44-.17-.63-.02-1.65-.02-3.06-.01h-.45c-.06,0-.14-.03-.25-.11-.11-.08-.17-.17-.17-.25,0-.1.03-.19.08-.27.05-.08.11-.14.19-.2l3.21-3.39c.79-.84,1.38-1.66,1.76-2.48.38-.82.59-1.71.61-2.68.02-.61-.13-1.12-.43-1.53s-.73-.62-1.27-.63c-.46-.01-.91.11-1.36.35-.45.25-.86.56-1.22.93-.26.29-.5.44-.7.43-.2,0-.3-.18-.29-.52,0-.33.23-.74.67-1.25.44-.5,1.02-.94,1.73-1.31.71-.37,1.45-.54,2.22-.52.71.02,1.33.19,1.84.53s.9.78,1.16,1.33c.26.55.38,1.15.36,1.81-.01.57-.21,1.22-.57,1.95s-.78,1.33-1.23,1.82c-.34.38-.83.86-1.49,1.44-.66.58-1.06.94-1.21,1.08-.8.74-1.21,1.12-1.21,1.15,0,.06.1.1.32.14.46.07,1.1.11,1.92.13.71.02,1.35,0,1.91-.04.49-.03.88-.14,1.19-.33s.56-.49.77-.9c.06-.11.14-.22.25-.32.11-.1.23-.14.36-.14.1,0,.17.05.21.13.04.09.04.19.01.3-.23.59-.45,1.21-.66,1.86s-.32,1.06-.34,1.24c-.02.14-.08.26-.19.35s-.2.13-.27.13c-.04,0-.14,0-.29-.02Z"/><path class="cls-5" d="m270.86,17.53c-.7-.73-1.19-1.62-1.47-2.69s-.38-2.15-.28-3.26c.1-1.17.39-2.27.86-3.3.47-1.03,1.13-1.86,1.98-2.48.85-.62,1.86-.88,3.02-.77,1.07.09,1.95.51,2.65,1.24s1.2,1.62,1.48,2.69.38,2.14.29,3.22c-.1,1.15-.39,2.25-.86,3.3-.47,1.05-1.13,1.88-1.99,2.51-.85.63-1.86.89-3.03.79-1.08-.1-1.97-.51-2.66-1.24Zm4.64-1.19c.41-1.05.69-2.4.83-4.05.09-1.02.08-2.01-.02-2.97-.1-.96-.3-1.74-.6-2.36-.3-.62-.69-.95-1.17-1-.64-.06-1.16.44-1.55,1.48-.39,1.04-.66,2.39-.81,4.06-.15,1.63-.07,3.09.22,4.35.29,1.27.8,1.93,1.52,1.99.64.06,1.16-.44,1.57-1.49Z"/><path class="cls-5" d="m283.38,19.52c-.07-.07-.1-.14-.08-.23.04-.23.19-.35.47-.38.5-.05.88-.11,1.14-.16.26-.05.48-.15.65-.3.17-.15.28-.37.33-.66l1.18-7.66c.07-.45-.04-.79-.32-1.01-.28-.22-.71-.43-1.29-.62-.36-.13-.51-.32-.47-.57.02-.16.11-.27.25-.34.14-.07.3-.1.49-.09.83.07,1.58.05,2.27-.05.69-.1,1.4-.29,2.14-.57.09-.03.17-.04.24-.03.1.02.19.05.28.11.08.06.12.11.11.17-.01.08-.05.25-.12.5-.13.54-.2.89-.22,1.03l-1.49,9.63c-.06.38.05.68.33.9.28.22.78.49,1.51.82.12.06.21.13.26.2s.07.17.05.28c-.03.2-.15.28-.36.25-.32-.05-.94-.16-1.83-.33-.87-.16-1.45-.27-1.73-.31-.3-.04-.86-.12-1.68-.22-.68-.06-1.3-.14-1.85-.22-.1-.02-.18-.06-.25-.13Z"/><path class="cls-5" d="m297.22,22.41c-.08-.15-.1-.32-.06-.52.02-.11.2-.32.51-.63l.29-.31,7.05-7.88s.06-.08.07-.14c.02-.1-.06-.17-.24-.21l-4.68-1.05c-.35-.08-.64-.08-.87-.02-.23.06-.49.23-.77.49-.05.05-.17.15-.33.31-.17.16-.33.29-.5.4-.16.11-.31.15-.43.12-.08-.02-.15-.07-.21-.16-.05-.09-.07-.18-.05-.27.02-.11.1-.28.22-.51.12-.23.2-.37.23-.42.07-.17.14-.33.21-.48.07-.15.13-.27.18-.38.41-.9.66-1.54.75-1.89.03-.14.1-.23.21-.26.11-.03.21-.03.31,0,.07.02.15.04.24.08.09.03.18.07.27.1.59.24,1.08.4,1.47.5l3.52.83c1.38.31,2.49.53,3.34.66.06.01.09.07.11.18.02.11.02.21,0,.31-.02.07-.08.17-.2.3-.12.13-.25.27-.4.43l-.48.48-8.74,9.65c-.12.13-.24.26-.37.39-.13.12-.22.18-.26.17-.18-.04-.31-.14-.4-.29Z"/></svg>