<?xml version="1.0" encoding="UTF-8"?><svg id="Layer_1" xmlns="http://www.w3.org/2000/svg" viewBox="0 0 510.2 315.21"><defs><style>.cls-1{fill:#033228;stroke-width:0px;}</style></defs><path class="cls-1" d="m200.58,308.29c-.09-.06-.13-.14-.13-.22s.04-.17.12-.26c.08-.09.2-.15.35-.19.51-.14.87-.3,1.06-.47.19-.17.29-.48.29-.92v-9.74c0-.47-.09-.8-.27-1-.18-.19-.53-.35-1.06-.46-.33-.07-.49-.22-.49-.45,0-.08.04-.16.13-.22.09-.06.2-.1.34-.1.54,0,1.09.02,1.65.06.74.03,1.26.04,1.56.04,1.76,0,3.3-.02,4.63-.06.44,0,.82-.02,1.13-.07.31-.05.49-.08.54-.08.11,0,.23.03.34.1.11.06.18.17.19.31.03.27.09.68.17,1.22.11.77.17,1.29.17,1.56,0,.13-.03.23-.09.3s-.12.11-.19.11c-.19,0-.32-.11-.41-.34-.04-.1-.12-.28-.22-.54-.11-.26-.2-.46-.28-.62-.08-.16-.17-.29-.27-.39-.44-.44-.96-.66-1.54-.66h-1.61c-.31,0-.59.09-.81.26-.23.17-.34.4-.34.69v4.05c0,.34.18.51.54.51h1.88c.34,0,.6-.1.76-.31s.32-.53.48-.97c.09-.27.23-.41.43-.41.07,0,.14.04.19.13.06.09.08.2.06.34-.06.71-.09,1.29-.09,1.73,0,.6.02,1.18.06,1.73l.02.17c0,.26-.08.39-.24.39-.1,0-.2-.05-.29-.15-.09-.1-.16-.23-.2-.39-.13-.46-.27-.79-.44-1.01-.16-.21-.38-.32-.65-.32h-1.99c-.36,0-.54.17-.54.49v4.07c0,.41.09.71.28.89.19.18.47.27.86.27h1.84c.69,0,1.23-.16,1.63-.47.4-.31.81-.89,1.22-1.71.1-.17.24-.26.41-.26.07,0,.12.04.16.12s.05.17.05.29c0,.26-.04.56-.13.91s-.21.79-.39,1.32c-.07.2-.13.38-.17.54-.03.08-.09.15-.18.2-.09.05-.19.08-.29.08-.59,0-1.15,0-1.69-.02-3-.04-4.76-.06-5.29-.06-.47,0-.96.02-1.48.06-.69.03-1.18.04-1.48.04-.13,0-.24-.03-.32-.1Z"/><path class="cls-1" d="m215.78,307.68c-.23-.14-.38-.31-.45-.51-.13-.37-.22-.83-.29-1.39-.06-.56-.08-1.13-.05-1.71,0-.19.14-.28.43-.28.13,0,.22.02.28.05.06.04.11.1.17.2.31,1.1.78,1.97,1.41,2.61.63.64,1.35.96,2.16.96.63,0,1.12-.21,1.49-.63.36-.42.55-.9.55-1.45,0-.44-.09-.82-.26-1.12-.17-.31-.42-.58-.75-.83-.33-.25-.81-.55-1.43-.89-.81-.46-1.46-.86-1.93-1.2s-.87-.79-1.21-1.33c-.34-.54-.5-1.2-.5-1.97,0-.81.22-1.53.65-2.16.44-.63,1.03-1.11,1.79-1.46s1.61-.51,2.55-.51c.5,0,1,.05,1.49.15.49.1.91.22,1.25.36.17.07.3.15.37.24.08.08.15.24.2.45.17.69.26,1.52.26,2.51,0,.07-.04.14-.11.19-.07.06-.16.09-.28.09-.13,0-.25-.03-.35-.1s-.18-.15-.2-.25c-.24-.86-.6-1.51-1.07-1.95-.47-.44-1.05-.66-1.73-.66-1.33,0-1.99.64-1.99,1.93,0,.46.23.89.69,1.31.46.41,1.19.91,2.21,1.5,1.16.7,1.97,1.38,2.44,2.03.47.66.71,1.46.71,2.42,0,1.43-.45,2.5-1.36,3.22-.91.72-2.15,1.08-3.74,1.08-1.3,0-2.43-.3-3.38-.9Z"/><path class="cls-1" d="m231.28,308.25c-.11-.06-.16-.13-.16-.21,0-.23.17-.38.51-.45.57-.13.97-.29,1.21-.48.24-.19.35-.5.35-.93v-8.84c0-.77-.02-1.27-.07-1.51-.05-.24-.14-.38-.27-.44-.17-.09-.51-.13-1.01-.13h-.47c-.44,0-.87.11-1.29.32s-.74.49-.98.83c-.21.31-.42.58-.61.78-.19.21-.38.31-.57.31-.2,0-.3-.13-.3-.38,0-.21.04-.39.13-.54.29-.56.49-1.03.61-1.41.12-.38.2-.82.25-1.31.04-.37.22-.56.54-.56.07,0,.15.05.22.15.08.1.12.16.14.19.11.16.22.29.32.39.13.1.35.18.67.25.32.06.61.1.87.1h8.05c.33,0,.62-.03.89-.1.26-.06.46-.14.59-.22.1-.07.25-.19.45-.34.09-.08.18-.16.28-.22.1-.06.2-.1.3-.1.16,0,.24.12.24.36,0,.1-.01.25-.04.45-.07.26-.12.43-.15.51-.01.09-.07.31-.16.67-.09.36-.14.7-.14,1.02v.41c0,.53-.12.79-.36.79-.13,0-.24-.06-.32-.19-.09-.13-.18-.35-.28-.66-.17-.53-.41-.91-.73-1.15-.31-.24-.77-.35-1.37-.35h-1.11c-.27,0-.48.05-.62.16-.14.11-.25.32-.31.64-.06.32-.1.81-.1,1.47v8.63c0,.4.11.7.34.9.23.2.63.38,1.2.54.17.06.3.11.39.17.09.06.13.14.13.26,0,.1-.04.18-.13.24-.09.06-.19.09-.32.09-.53,0-1.09-.02-1.69-.06-.77-.03-1.29-.04-1.56-.04-.29,0-.8.01-1.54.04-.59.04-1.14.06-1.67.06-.11,0-.22-.03-.33-.09Z"/><path class="cls-1" d="m243.05,308.42c-.34-.34-.5-.74-.5-1.21s.17-.9.5-1.25c.33-.35.74-.52,1.21-.52.5,0,.92.17,1.26.51.34.34.51.76.51,1.26,0,.47-.17.87-.51,1.21-.34.33-.76.5-1.26.5-.47,0-.87-.17-1.21-.5Z"/><path class="cls-1" d="m265.64,308.35c-.15,0-.38-.01-.67-.01-1.34-.06-2.49-.09-3.45-.09-.63,0-1.65.02-3.06.06l-.45.02c-.06,0-.14-.04-.26-.12s-.17-.16-.17-.25c0-.1.02-.19.08-.27.05-.08.11-.15.18-.2l3.13-3.47c.77-.86,1.34-1.7,1.7-2.53.36-.83.55-1.73.55-2.7,0-.61-.16-1.12-.47-1.52-.31-.4-.74-.6-1.28-.6-.46,0-.91.13-1.35.39s-.84.58-1.2.96c-.26.3-.49.45-.69.45s-.3-.17-.3-.51.21-.75.64-1.26.99-.96,1.69-1.35c.7-.39,1.44-.58,2.21-.58.71,0,1.33.16,1.85.48.52.32.92.75,1.19,1.3s.41,1.14.41,1.8c0,.57-.17,1.22-.52,1.96-.35.74-.75,1.35-1.19,1.85-.33.38-.81.88-1.46,1.48-.64.6-1.04.97-1.18,1.11-.79.76-1.18,1.15-1.18,1.18,0,.06.11.1.32.13.46.06,1.1.09,1.93.09.71,0,1.35-.03,1.91-.09.49-.04.88-.16,1.18-.36s.55-.51.75-.92c.06-.11.14-.22.25-.32.11-.1.22-.15.35-.15.1,0,.17.04.21.13.04.09.05.19.02.3-.21.6-.42,1.22-.61,1.87-.19.65-.3,1.07-.31,1.25-.01.14-.08.26-.18.35s-.2.14-.27.14c-.04,0-.14,0-.29-.01Z"/><path class="cls-1" d="m272.59,307.58c-.76-.66-1.32-1.51-1.7-2.55s-.57-2.11-.57-3.22c0-1.17.19-2.29.57-3.36.38-1.07.96-1.95,1.76-2.64.79-.69,1.77-1.04,2.94-1.04,1.07,0,1.99.33,2.75,1,.76.66,1.33,1.51,1.71,2.55s.57,2.09.57,3.18c0,1.16-.19,2.28-.57,3.36s-.96,1.98-1.76,2.68c-.79.7-1.77,1.05-2.94,1.05-1.08,0-2.01-.33-2.76-1Zm4.52-1.59c.31-1.08.47-2.46.47-4.11,0-1.03-.09-2.01-.28-2.96-.19-.94-.45-1.71-.8-2.3-.35-.59-.77-.89-1.25-.89-.64,0-1.11.54-1.41,1.61-.3,1.07-.45,2.44-.45,4.11s.2,3.08.6,4.32c.4,1.23.96,1.85,1.69,1.85.64,0,1.12-.54,1.43-1.63Z"/><path class="cls-1" d="m285.47,308.25c-.08-.06-.12-.13-.12-.21,0-.23.14-.38.41-.45.49-.13.85-.24,1.1-.33.25-.09.45-.22.6-.4.15-.17.23-.41.23-.71v-7.75c0-.46-.16-.77-.47-.95s-.77-.32-1.37-.42c-.37-.07-.56-.24-.56-.49,0-.16.06-.28.19-.38s.29-.15.47-.16c.83-.06,1.57-.19,2.24-.4.66-.21,1.34-.5,2.02-.89.09-.04.16-.06.24-.06.1,0,.2.02.29.06s.14.09.14.15c0,.09-.01.26-.04.51-.04.56-.06.91-.06,1.05v9.74c0,.39.15.66.46.83.31.17.85.36,1.62.58.13.04.22.1.29.16s.1.15.1.27c0,.2-.11.3-.32.3-.33,0-.95-.01-1.86-.04-.89-.03-1.47-.04-1.76-.04-.3,0-.86.01-1.69.04-.69.04-1.31.06-1.86.06-.1,0-.19-.03-.27-.09Z"/><path class="cls-1" d="m299.85,308.73c-.11-.13-.17-.29-.17-.49,0-.11.12-.36.36-.73l.21-.36,5.16-9.23s.04-.09.04-.15c0-.1-.09-.15-.28-.15h-4.8c-.36,0-.64.06-.86.17-.21.12-.43.33-.64.64-.04.06-.13.18-.26.38s-.26.36-.4.5c-.14.14-.27.21-.4.21-.09,0-.16-.04-.24-.11-.07-.07-.11-.16-.11-.26,0-.11.04-.3.11-.55.07-.25.11-.4.13-.46.03-.19.06-.36.1-.51s.07-.29.1-.41c.2-.97.31-1.64.32-2.01,0-.14.05-.24.15-.3.1-.06.2-.08.3-.06.07,0,.15,0,.25.02.09.01.19.03.29.04.63.1,1.14.16,1.54.17l3.62.04c1.41,0,2.55-.03,3.4-.08.06,0,.11.05.15.15.04.1.06.2.06.3,0,.07-.04.18-.13.33-.09.15-.19.32-.3.5l-.36.58-6.42,11.33c-.09.16-.18.31-.28.46-.1.15-.17.22-.21.22-.19,0-.34-.06-.45-.19Z"/><path class="cls-1" d="m37.81,238.09c-.43,0-1.09-.22-1.3-.54l-1.96-.98c-1.3-.43-2.39-1.19-3.69-1.52-.11,0-.43-.11-.65-.22-.43-.54-1.2-.98-1.74-1.3-.65-.43-1.09-.76-1.63-.98-.98-.98-2.17-1.63-2.93-2.83l-.98-.87c0-.11-.22-.22-.43-.43-.11-.11-.22-.33-.33-.54-.54-1.09-1.63-1.74-2.06-2.93-.22-.54-.65-1.2-.98-1.74-.33-1.09-.98-1.74-1.41-2.72-.33-.76-.54-1.63-.87-2.5l-.65-1.52c0-.22-.22-.43-.22-.65,0-1.3-.65-2.5-.76-3.91,0-1.41-.11-2.72-.33-4.02-.11-.87-.11-1.52.22-2.39l.33-3.26c.11-.98.33-1.96.54-2.72.22-.98.43-1.74.87-2.61.43-1.2,1.09-2.39,1.2-3.69.11-.22.22-.54.33-.65.65-1.09,1.09-1.96,1.3-3.26.11-.22.33-.54.54-.76.65-.98,1.3-1.96,1.63-3.04.22-.43.43-.65.76-1.09.43-.65.87-1.3,1.19-2.06.11-.22.22-.54.43-.87,1.2-1.3,2.28-2.83,3.48-4.24.54-.54.98-1.2,1.63-1.63.33-.22.65-.65.98-.98.76-.87,1.52-1.85,2.5-2.72.65-.76,1.52-1.41,2.17-2.17,1.3-.87,2.39-2.06,3.91-3.15.43-.33,1.3-.76,2.06-1.2.22-.11.43-.22.54-.33.76-.33,1.3-.98,2.06-1.52.54-.43,1.41-.54,1.96-1.09.22-.11.22-.33.11-.54-.11-.11-.22-.22-.33-.22-1.09-.54-2.39-.76-3.48-1.41-1.3-.43-2.61-.98-3.91-1.2-2.06-.43-4.13-.87-6.41-.87-1.96,0-3.91,0-5.98.11-.54,0-1.19,0-1.63.11l-2.72.44c-1.19.33-2.17.65-3.26,1.19-1.2.65-2.5.98-3.48,1.85-.76.54-1.52,1.09-1.85,1.96-.22.33-.54.76-.76,1.2-.54.76-.98,1.74-1.63,2.72,0,.76,0,1.2-.11,1.63,0,.22-.11.65-.11.98-.33.65-.76,1.2-1.52,1.3-.33.11-.76.11-1.3.11-.22,0-.43-.11-.54-.22l-.98-1.3c-.33-.43-.43-.76-.43-1.3,0-.98.11-1.85.11-2.61.33-1.09.65-1.85,1.19-2.61.65-.87,1.19-1.85,1.96-2.72.22-.98,1.09-1.63,1.96-2.28.98-.76,1.96-1.63,2.93-2.28.87-.43,1.63-.87,2.39-1.2,1.3-.43,2.28-1.09,3.48-1.41,1.09-.43,2.5-.54,3.69-.76,1.63-.43,3.26-.54,5-.43h.65c2.72-.11,5.54.11,8.15.65.65.22,1.3.22,1.96.43,1.52.33,3.04.65,4.67,1.09.33.11.54.22.87.43,1.2.76,2.5.98,3.8,1.41,1.09.44,2.17,1.09,3.37,1.52.65.22,1.09.11,1.63-.22,1.41-.87,2.61-1.63,3.91-2.06,1.19-.98,2.5-1.2,3.69-1.85.65-.22,1.41-.54,2.17-.87.65-.43,1.41-.65,2.28-.87l2.5-.98c.54-.22,1.2-.54,1.96-.65,1.19-.11,2.39-.54,3.48-.98.43-.11.87-.22,1.3-.22,2.28-.22,4.45-.65,6.74-.65.76,0,1.63-.22,2.39-.11,1.41.33,2.93.22,4.35.65.98.33,1.96.33,3.04.54,1.09.33,2.39.76,3.37,1.41,1.09.54,2.06,1.2,3.26,1.85.65.33,1.09.87,1.52,1.3.76,1.19,1.63,2.17,2.28,3.48.33.54.43.98.33,1.63,0,.54-.11,1.09-.11,1.63-.22,1.3-.65,2.39-1.3,3.48-.22.11-.33.33-.43.43-.76.65-1.41,1.09-1.96,1.85-.11.22-.33.22-.54.33-.11.11-.33.11-.43.22-1.3.76-2.72,1.52-4.13,2.39-.11.11-.33.22-.65.22-1.41.11-2.61.98-4.24.98-.22,0-.54.11-.87.22-1.3.33-2.28.33-3.48.33-1.74-.11-3.37,0-5,0-1.63.11-3.26,0-4.78-.22-1.41-.33-2.72-.43-4.13-.65-2.39-.98-5-1.74-7.6-2.72-1.52-.43-2.93-.98-4.45-1.63-.98-.54-2.28-.98-3.37-1.41-.87-.11-1.74-.11-2.39.22-.43.33-.98.54-1.52.87-.11.22-.43.43-.76.54-1.41.43-2.39,1.09-3.48,2.06-.43.43-.98.65-1.41.87-1.3.76-2.61,1.52-3.58,2.61-.22.22-.43.43-.76.65-1.2.65-2.06,1.63-3.15,2.61-2.83,2.93-2.93,3.04-5.21,5.76-.43.65-.98,1.3-1.41,1.85-1.41,1.52-2.17,3.15-3.37,4.67-.11.33-.33.65-.43.98-.22.87-.76,1.85-1.09,2.83-.33.87-.87,1.63-1.19,2.39-.11.33-.11.65-.22.98-.11.22-.11.54-.22.65-.76,1.2-1.3,2.5-1.63,4.02-.11.33-.22.54-.43.87-.65,1.3-.76,2.5-.76,3.69-.11.65,0,1.3-.11,2.06-.11,1.74.22,3.48.33,5.21.54,1.63.65,2.93,1.09,4.35l.22.33c.65,1.63,1.3,3.15,2.06,4.67l1.41,2.39c.43.65.87,1.19,1.3,1.74,0,.33.22.54.54.76.65.76,1.41,1.3,2.17,1.96.43.43,1.09.87,1.74,1.19.22.22.65.44,1.09.65,1.2.65,2.39,1.2,3.8,1.85.87.54,1.63.98,2.72.87.22,0,.54.11.87.22.43.11.76.33,1.2.22.98,0,3.48-.11,4.45.11,1.96-.11,4.35-.87,6.08-1.09.98-.33,3.37-.98,3.48-.98.76-.43,1.63-.76,2.28-1.3.65-.22,1.3-.65,1.52-1.09.65-.54,1.2-.98,1.63-1.41.43-.54.98-1.09,1.52-1.52.43-.33.76-.65.87-.98.22-.11.22-.22.22-.33.22-.54.43-.76.87-1.3.11-.33.43-.76.54-.98.22-1.19.65-2.39.98-3.48v-.76c0-.87-.33-1.85-.87-2.61,0-.43-.33-.87-.54-1.41-.22-.11-.87-.76-.98-.76-.65-.33-1.41-.87-2.17-1.09-.43-.22-.87-.33-1.41-.43h-2.61c-.43,0-.98.11-1.19.22-.54.22-1.09.33-1.52.87-.22.11-.33.33-.65.44-.87.22-1.96.11-2.5-.44-.43-.43-.76-1.09-.76-2.39,0-.22.22-.43.33-.54.22-.22.22-.43.33-.54.54-.33,1.09-.76,1.3-1.41.22-.33.43-.33.76-.43,1.52-.43,3.15-.65,4.78-.65.76.11,1.41.11,2.39.11.54,0,1.09.11,1.74.33.54.22,1.41.43,2.28.65.11.11.43.22.65.43.54.22,1.09.54,1.41.87.33.11.43.11.54.33.87.98,2.06,1.74,2.61,2.83.11.54.43.98.76,1.52.22.22.22.43.33.65.22.76.33,1.63.43,2.28.22.76.33,1.41,0,2.06-.11.65-.11,1.09-.11,1.74,0,.76,0,1.3-.11,1.85,0,.11,0,.22-.22.33-.65.76-.65,1.63-1.2,2.5-.65.65-1.2,1.3-1.63,2.06-.22.65-.87,1.3-1.52,1.96q0,.11-.11.22c-1.85,1.63-3.59,3.48-5.65,4.67-.43.11-.65.33-.87.65-.33.33-.54.65-.87.87-.11.11-.33.22-.43.22-1.19.76-2.39,1.09-3.69,1.3-.87,0-1.41.33-2.28.65-.33.11-.87.33-1.2.22-.43,0-.98,0-1.2.11-.76,0-1.52.22-2.17.33-.65.11-1.3.22-2.17.22-.87.11-2.61-.11-3.48.22-.11.11-.22,0-.33,0-1.41-.11-2.93-.22-4.35-.43Zm45.3-72.03c2.17.22,4.45-.33,6.41-.98.87,0,1.52-.87,2.39-.98.33-.11.65-.22.98-.44.33-.11.65-.33.98-.43.22-.11.33-.22.43-.33.54-.33.87-.76,1.19-1.3.11-.43.33-.87.43-1.2.11-.43.11-.98-.22-1.3-.65-.65-1.3-1.3-2.06-2.28-1.09-.43-1.85-.87-2.82-1.2-1.74-.54-3.37-1.2-5.43-1.3-1.74-.22-3.48-.33-5.21-.22-2.06,0-4.02.44-6.08.87-.65.22-1.41.33-1.96.54-1.3.54-2.5.76-3.91,1.19-.98.33-2.06.76-3.04,1.41-1.09.43-2.06,1.09-3.15,1.3-.76.43-1.3.87-2.06,1.3-.11,0-.22.22-.33.43.22.22.33.33.54.43.54.22.98.33,1.52.65,1.63.65,3.26,1.2,4.89,1.63l1.85.65c.87.44,1.74.44,2.61.76.22.11.43.11.65.22,2.82.54,5.87.98,8.8.65.87-.11,1.74-.11,2.61-.11Z"/><path class="cls-1" d="m85.17,222.01c-.76-.33-1.41-.87-2.06-1.3-.22-.22-.43-.54-.43-.87-.33-.76-.54-1.63-.76-2.39,0-.22,0-.43.11-.65.22-2.61.43-5.21,1.2-7.71.22-.54.22-1.09.43-1.74.11-.43.22-.87.43-1.3.76-1.85,1.3-3.8,2.17-5.65,1.09-2.39,2.06-5.11,3.15-7.71l.54-1.85c1.3-3.15,2.17-4.89,3.91-8.04.65-1.52,1.74-3.26,2.5-4.67.87-1.52,1.96-2.93,2.5-3.8.65-1.09,1.3-2.06,2.17-3.15l2.72-4.02c.43-.54.76-.87,1.2-1.3.43-.54.98-.98,1.52-1.41,1.52-1.41,2.39-1.96,3.8-1.41.87.22,1.41.76,1.63,1.41.33.98.65,2.93-.33,5.98-.43,1.2-.76,1.96-1.41,3.15-.87,1.41-.87,3.15-3.37,6.3-1.3,2.39-2.5,3.58-3.04,4.45-.33.33-.54.76-.76,1.09-.65.87-1.41,1.63-1.96,2.61-1.09,1.09-1.96,2.06-3.48,3.48-1.96,2.17-3.69,4.24-4.89,5.54-.33.65-1.41,2.93-1.63,3.59-.87,2.06-1.63,4.24-2.28,6.3-.87,2.17-1.3,4.35-1.74,6.52-.33,1.2-.22,2.39-.22,3.58,0,1.3,1.52,1.96,2.5,1.74.22-.11.76-.22.98-.33,1.63-1.09,4.89-3.26,6.08-4.45.33-.43.87-.76,1.2-1.19.76-.65,1.41-1.41,1.96-2.17.33-.33,1.09-1.41,1.3-1.63,1.96-2.39,2.93-4.13,4.45-6.52.65-.76.98-1.74,1.63-2.39.65-.76,1.09-1.63,1.52-2.28.43-.43.98-.54,1.3-.54.11,0,.54-.11.65,0,.22.11.65,0,.98.33.33.33.54.54.33,1.63-.11.33-1.3,2.93-1.63,3.48-1.19,1.96-1.52,3.15-3.04,4.78-.98,2.06-1.85,3.48-3.48,5.54-.65.76-1.52,1.63-2.28,2.39-.54.76-1.3,1.3-1.63,1.74-.43.33-.87.54-.87.76-1.19,1.09-2.28,1.96-3.26,2.61-.87.65-3.37,1.63-4.13,2.06-2.28.76-4.24.43-6.19-.54Z"/><path class="cls-1" d="m100.81,219.94c-.22-.22-.43-.54-.76-1.2-.11-.33-.22-.54-.22-.65l-.33-1.96c.22-1.41.33-2.61.54-3.91.22-1.19.65-2.28,1.63-4.67.87-1.85,1.52-3.69,2.61-5.32l.22-.33c1.3-3.04,3.15-6.52,4.89-9.23.76-1.2,1.3-2.28,1.96-3.48.76-1.2,1.41-2.5,2.17-3.69.43-.65.65-.87.87-1.09.33-.33.76-.54,1.19-.65.65-.33,1.52,0,1.85.54.22.22.43.54.76,1.2,0,.22.11.43,0,.65-.11.43-.22.98-.43,1.3-1.19,2.39-2.17,4.46-3.37,6.74-.98,1.74-2.06,4.13-3.04,5.87-1.09,1.96-1.96,3.91-3.04,5.87-.98,1.96-1.63,3.26-2.06,4.56s-.65,2.72-.98,4.02c-.22.54-.22,1.19-.11,2.17,0,.44.43.87.87.87.87.11,1.41.11,1.74-.22,1.3-.76,2.72-1.74,4.24-3.15,3.04-2.93,4.45-4.35,5.98-6.19.33-.33.54-.65.87-1.09.65-.65,1.19-1.41,1.85-2.06.76-.65,1.41-1.41,2.28-2.61.87-1.3,1.63-2.61,2.5-3.8,1.41-1.85,2.17-3.58,3.58-5.32.54-.76.98-1.63,1.52-2.39.33-.43.76-1.2,1.09-1.96.22-.54.54-1.09,1.41-2.39.54-.87,1.52-1.63,2.72-2.06.33-.22.76-.11,1.09-.11s.65.22.76.54c.33.65.43.98.43,1.3.11.98,0,2.06-.43,3.15-.54,1.09-1.09,1.85-1.63,2.83-.87.87-1.3,1.96-1.96,2.93-.87,1.3-1.52,2.39-3.69,6.52-.76,1.41-1.41,2.93-2.17,4.35-.33.54-.43,1.09-.65,1.63-.22.76-.33,1.41-.54,2.06-.33,1.3-.54,2.5-.54,3.48-.11.33-.11.65-.11,1.74-.11.54,0,1.2.22,2.06.11.65,1.09,1.2,2.17,1.2.98-.11,1.74-.44,2.17-.87,1.96-1.3,2.93-2.06,4.02-3.15.33-.43.76-.76,1.09-1.19.65-.54,1.2-1.09,2.17-2.17.33-.33,1.09-1.41,1.3-1.63,2.06-2.39,3.15-4.13,4.78-6.52.76-.76.76-1.74,1.41-2.39.65-.76,1.09-1.63,1.52-2.28.22-.33.76-.54,1.3-.54.11,0,.65-.11.76,0,.22.11.65,0,1.09.33.43.33.54.54.54,1.63,0,.22-.87,2.39-1.41,3.48-1.3,1.96-1.63,3.15-3.15,4.78-.87,1.85-1.85,3.26-3.91,5.54-.33.54-.87,1.09-2.28,2.39-.33.76-1.2,1.3-1.52,1.74-.54.33-.98.54-.98.76-1.3,1.09-2.28,1.96-3.26,2.61-.98.65-3.15,1.3-4.02,1.74-2.93.65-5.21.33-6.74-1.09-2.5-2.17-2.61-2.39-2.93-5.65v-2.06c0-.33-.11-.43-.33-.43-.33,0-1.09.43-1.52.87l-2.28,2.28c-1.63,2.28-3.26,3.48-4.78,4.78-1.19.76-2.28,1.2-3.26,1.3l-2.5.33c-1.74-.33-3.15-.98-5.21-2.61Z"/><path class="cls-1" d="m187.29,199.19c0,.33-1.2,2.93-1.52,3.48-1.41,1.96-1.85,3.15-3.48,4.78-1.09,2.06-2.17,3.48-4.13,5.54-.54.76-1.52,1.63-2.39,2.39-.43.76-1.3,1.3-1.63,1.74-.54.33-1.09.54-1.09.76-1.3,1.09-2.39,1.96-3.37,2.61-.98.65-3.26,1.3-4.13,1.74-1.74.54-1.85.54-3.8.65-2.72-.22-3.8-1.3-4.13-1.41-.87.65-3.04,1.3-5.98,1.3-.76,0-3.37-.54-3.91-1.09-1.09-.76-1.09-1.09-2.06-1.85l-.22-.22c-.54-.87-1.3-1.74-1.96-2.5-.65-1.52-1.85-4.35-.98-5.98.43-.43.33-.43.87-.98.65-.54.87-.54.54-.76-.22-.11-.43-.22-.54-.33-.54-.43-.54-.65-.65-1.3,0-.22,0-.43-.11-.65,0-.43,0-.98.33-1.3.87-.87,1.52-1.85,1.74-3.04,1.3-2.61,2.5-5.32,3.8-7.93l1.3-2.93c.22-.65.54-1.3.87-1.85.87-1.41,1.63-2.93,2.28-4.35.54-1.2.87-2.28,1.63-3.37,1.19-2.28,2.28-3.69,3.26-5.65.22-.33.22-.65.43-.87.98-1.09,1.41-2.39,2.06-3.58.65-1.09,1.41-2.28,1.96-3.58.33-.76,2.72-4.24,3.15-4.89.76-1.09,1.85-1.63,3.26-1.63.22,0,.43-.11.65-.11,1.19.11,2.06.65,2.17,1.96-.11.43-.11.76-.11,1.09-.22.98-.33,1.85-.54,2.72-.11.22,0,.43-.11.65-.43,1.63-2.17,5.21-3.15,6.52-1.41,1.63-2.61,3.48-4.13,4.89-.54.43-.98.98-1.41,1.52-.76.76-1.63,1.3-2.17,1.85-.33.22-.54.43-.98.65-.54.87-1.2,1.63-1.74,2.61-.76,1.2-1.41,2.39-1.85,3.8,0,.22.11.43.22.65.87-.43,1.63-1.09,2.28-1.74,1.3-1.2,2.93-2.61,4.45-3.37,1.63-.76,3.26-1.3,5.11-1.41.43,0,.87-.11,1.41-.22,1.41,0,2.72.33,3.91,1.41.43.33.76.76.98,1.3l1.3,3.37c-.11.65,0,1.41-.22,2.06-.22,1.41-.54,2.72-1.09,4.46-.43,1.3-.76,2.5-1.2,3.69-.22.33-.33.65-.43.98-.43,1.85-1.41,3.48-2.06,5.21-.54,1.19-1.3,2.17-1.96,3.37-.43.76-.98,1.3-1.41,1.96-1.41,1.74-3.04,3.26-4.56,4.89-.22.22-.22.43-.22.65.33,0,.76.11,1.52.11s1.3-.11,2.5-.54c.87-.33,3.48-1.96,4.67-3.15.33-.43.87-.76,1.19-1.19.87-.65,1.52-1.41,2.28-2.17.33-.33,1.19-1.41,1.41-1.63,2.17-2.39,3.37-4.13,5.11-6.52.76-.76.87-1.74,1.52-2.39.65-.76,1.2-1.63,1.63-2.28.33-.43.98-.54,1.3-.54.11,0,.65-.11.76,0,.22.11.65,0,1.09.33.43.33.54.54.43,1.63Zm-40.31,10.76c1.52.54,2.83,1.2,3.91,2.28.43.33.76.65,1.2.87,1.2.87,2.5,1.74,3.91,2.17.54.22.98.11,1.41-.11l.54-.33c.54-.54,1.09-.87,1.63-1.41,1.09-1.2,2.5-2.17,3.37-3.58l1.09-1.41c.76-.98,1.41-2.06,1.96-3.26.65-1.52,1.41-2.93,1.96-4.45.76-2.5,1.63-5.32,2.06-7.82-.11-.87-.33-1.63-.43-2.39l-.33-.65c-.22-.65-1.3-1.3-1.96-1.2-.98.33-2.06.54-3.04.87-.87.65-1.3.87-1.96,1.3-1.3.87-2.72,2.28-4.02,3.26-.87.65-1.63,1.63-2.39,2.5-1.2,1.3-2.28,2.61-3.37,4.02-.43.65-.76,1.41-1.2,2.06l-1.19,1.85c-1.09,1.52-2.17,3.04-3.15,4.56-.22.33-.22.87,0,.87Z"/><path class="cls-1" d="m185.66,222.22c-.76-.22-1.41-.76-2.06-1.3-.87-.87-1.74-1.85-2.61-2.82-.54-.65-.87-1.41-.98-2.28-.11-.22-.11-.43-.11-.65-.43-1.2-.65-2.5-.54-3.8,0-1.19,0-2.28.22-3.48.22-.65.22-1.41.33-2.06.43-.87.76-1.74,1.09-2.61.76-2.06,1.96-4.67,3.15-6.41.22-.33.33-.65.43-.98l.54-.98c.87-1.19,1.85-2.39,2.82-3.58,1.2-1.63,2.61-2.93,4.45-3.91,1.74-1.3,3.69-1.96,5.65-2.83.33-.11.65-.22.98-.22l2.82-.54c1.09-.22,2.06.11,3.04.65.76.54,1.52,1.09,2.17,1.74.87.65,1.41,1.63,1.52,2.72.11.65.22,1.41.22,2.17-.11.98-.43,1.85-.76,2.82l-.65,1.63c-.22.54-.76,1.09-.98,1.63-.22.43-1.09,1.52-1.3,1.85l-.54.98c-.65,1.09-1.63,1.96-2.39,3.04-.11.11-.33.22-.54.33-.54.43-1.19.87-1.63,1.3-1.63,1.52-3.48,2.72-6.41,3.8l-4.56,1.09c-.98.11-3.59.33-4.35.33,0,.11,0,.65-.11.76-.22,2.28,0,3.26.98,5.32.22.43.54.87.98,1.09q2.17,1.09,4.67,1.2c.98,0,1.85,0,2.72-.43.43-.22.98-.22,1.41-.33.33-.11,1.52-.76,1.85-.87,1.63-.98,4.89-2.82,6.08-3.91.33-.43.76-.76,1.09-1.2.76-.54,1.41-1.3,2.06-1.96.33-.33,1.09-1.3,1.3-1.52,2.06-2.17,3.15-3.8,4.78-5.97.65-.65.87-1.63,1.41-2.17.65-.76,1.09-1.52,1.52-2.06.33-.43.87-.54,1.2-.54.11,0,.54-.11.65,0,.22.11.65,0,.98.33.43.22.65.44.43,1.41,0,.33-1.09,2.72-1.41,3.26-1.3,1.74-1.63,2.93-3.15,4.35-1.09,1.96-2.06,3.26-3.8,5.11-.54.76-1.41,1.52-2.17,2.28-.54.65-1.3,1.2-1.63,1.52-.54.33-3.37,2.5-4.24,3.04-.54.43-1.63,1.2-2.28,1.52-2.93,1.74-6.19,2.61-9.67,2.83-1.85.11-2.93-.22-4.67-.65Zm7.06-18.9c2.06-.98,5.65-4.45,6.95-5.76,1.09-1.3,2.06-2.61,2.72-4.13.54-1.09.76-2.17.65-3.37,0-.98-1.09-1.74-1.96-1.52-.76.22-1.63.43-2.39.76-1.74.65-3.37,1.52-4.56,3.04-.33.33-.76.65-1.09.87-1.74,1.63-3.48,3.15-4.89,6.19-.33.76-.76,1.41-1.19,2.17-.22.43-.33.87-.43,1.19-.22.65-.43,1.52-.33,1.74,3.04,0,4.78-.43,6.52-1.19Z"/><path class="cls-1" d="m268.88,238.63c-.87-.22-1.3-.22-3.37-.22-1.63,0-3.04-.22-4.67-.54-1.2-.22-2.39-.33-3.59-.54-.65-.11-1.09-.33-1.63-.54-.54-.33-.98-.65-1.41-.76-1.63-.54-3.37-1.52-5.54-3.15-.65-.65-.98-.87-1.3-1.09-.76-.22-1.2-.33-1.52-.22-.65.33-1.41.54-1.85,1.09-.33.43-.76.65-1.3.98-3.04,1.3-4.45,1.85-5.98,2.06l-1.52.54c-.76,0-1.41-.11-2.06-.11-.65-.11-1.41-.22-1.96-.43-.54-.11-1.09-.43-1.63-.43-1.3-.11-2.28-.87-3.37-1.52-.43-.11-.76-.54-1.2-1.09-.65-.76-1.19-1.52-1.74-2.39-.76-1.2-.98-2.61-.65-3.91.11-.65.33-1.2.43-1.96.87-.76,1.96-1.3,2.82-2.17,1.2-.87,2.39-1.3,3.59-1.96.33-.22,2.5-.65,3.26-.65.87,0,1.74.11,2.72.11,1.2.33,2.39,1.09,3.69,1.3.43.11.76.33,1.19.54,1.63.98,3.48,1.63,5.11,2.39.54-.11.98-.33,1.41-.76.54-.87,1.19-1.52,1.74-2.17,1.19-1.19,2.17-2.39,3.37-4.13.22-.65.65-1.2,1.63-2.17.43-.43.76-.98.98-1.74.54-.76.87-1.85,1.52-2.5.65-.87.98-1.52,1.41-2.72.22-.76.65-1.3.98-2.06.11-.43-.22-1.3-.65-1.41l-1.41-.76c-1.52-.43-2.72-1.19-4.02-1.96l-.65-.65c-.22-.22-.43-.33-.76-.65-1.52-1.3-2.82-2.72-3.69-4.24-1.19-1.63-2.17-3.26-3.26-4.78-.11-.43-.33-.76-.54-1.09-.33-1.85-1.09-3.48-1.52-5.43,0-1.2.11-2.72,0-4.13v-.76c0-.87.22-1.96.33-2.93l.43-1.52c.54-1.2,1.09-2.28,1.41-3.48.33-.98.65-1.52,1.09-2.06.87-1.74,2.06-3.15,3.04-4.67,1.63-1.85,2.93-3.8,4.89-5.11.22-.22.43-.33.54-.43.76-1.2,2.17-1.96,3.15-2.82.65-.65,1.3-1.09,1.96-1.41,2.28-1.2,4.45-2.5,6.84-3.48.33-.11.65-.33.98-.33,1.2-.33,2.28-.76,3.48-1.09.43-.11.87-.33,1.2-.43.22-.11.33-.11.76-.11,1.19-.22,2.39-.43,3.59-.54.43-.11.87-.11,2.06-.11.87-.11,1.74-.11,2.61-.22.33-.11.65-.11,1.3-.11,2.06.11,4.02.11,6.08.22.98,0,1.96,0,2.93.43,1.09.22,2.17.54,3.26.87.54.22,1.09.33,1.63.33,2.28.22,4.35,1.3,6.41,2.06l2.28,1.3c.43.22.76.43,1.19.76,1.96,1.41,3.91,2.93,5.87,4.24.76.43,1.09,1.09,1.74,1.63.98.65,1.41,1.2,1.63,1.63.11.43.33.65.65.76,1.2.87,1.74,2.06,2.5,3.15.76.98,1.19,2.06,1.52,3.26.33,1.3.65,2.39,1.09,3.58.22.98.54,1.96.65,2.93,0,.76.11,1.63.33,2.28.33.76.33,1.52.43,2.28,0,1.3.11,2.72.11,4.02.11.22,0,.65-.11,1.3-.22,1.74-.33,2.72-.22,3.69.11.65,0,1.52-.11,2.61l-.43,2.39v.65c-.76,2.28-.98,4.56-2.06,6.74-.22.43-.33.98-.54,1.96l-.65,1.52c-.87,1.63-1.63,3.37-2.5,5.11-.11.22-.33.54-.33.87-.33,1.09-.87,1.85-1.3,2.72-1.09,1.2-1.63,2.72-2.72,3.8-.54.54-.76,1.09-1.09,1.63-.65.87-1.3,1.63-1.85,1.96-.76.65-1.3,1.09-1.74,1.63-.33.54-.65.98-1.3,1.52-2.5,2.06-4.02,3.37-6.08,4.67-.87.76-2.06,1.63-3.58,2.5-.76.43-1.52,1.09-2.28,1.41-.76.22-1.3.65-2.06,1.09-1.41.87-3.04,1.3-4.67,1.85l-2.61.65c-.43.11-1.09.22-1.63.43-1.41.33-2.82.65-4.24.76-.54.22-.98.22-1.63.22-.98.11-1.74.44-2.72.44-1.52-.11-3.04,0-4.56-.22Zm-33.14-7.71c.43-.11.98-.11,1.41-.33,1.3-.43,2.61-.98,3.59-1.52.33-.33.54-.76.43-.98-.11-.11-.22-.43-.43-.54-2.61-1.3-4.67-2.17-6.74-2.83-.43-.22-.76-.22-1.63-.11-1.3.33-2.39.87-3.15,1.52-.33.22-.54.54-.76.76-.33.33-.43.54-.22.87.22.54.33.87.54,1.3l.65.65c1.52.98,2.93,1.41,4.56,1.3.43,0,1.2-.11,1.74-.11Zm38.02,2.61c2.61-.33,3.91-.43,5.32-.65.43,0,.65-.11.98-.22,1.74-.65,3.69-.98,5.43-1.41,1.09-.33,1.85-.65,2.5-1.09,2.06-.87,3.91-2.17,5.87-3.15.33-.11.65-.33.87-.54.98-.87,1.52-1.2,2.17-1.63,1.19-.76,2.17-1.85,3.37-2.72l.76-.65c.22-.22.33-.22.54-.44,1.85-2.17,3.91-4.13,5.43-6.74.76-1.09,1.41-1.96,1.96-3.15.76-1.41,1.63-3.04,2.72-5.32.87-2.17,1.41-3.69,2.17-5.98.22-.98.43-1.74.76-2.61.76-1.96,1.09-3.91,1.09-5.87-.11-1.09-.11-1.74.22-2.28.22-.33.11-.65.11-.98,0-1.09,0-1.41.11-1.74.33-1.85-.11-3.69-.11-5.65.11-.33-.11-.65-.11-.87l-.33-1.41c-.65-3.69-1.74-7.17-3.48-10.32-.98-.98-1.85-2.06-2.83-2.93-.54-.65-1.09-1.2-1.63-1.74-1.19-.54-1.96-1.52-2.93-2.28-.87-.76-1.74-1.41-2.72-1.96-1.09-.65-2.28-1.3-3.48-1.96-.65-.22-1.09-.54-1.85-.76-1.41-.54-2.93-1.2-4.35-1.52-1.63-.65-4.02-1.09-5.21-1.09-3.37-.33-5.87-.33-8.04,0-1.3.11-2.5.22-3.69.11-.76,0-1.52.11-2.39.33-.54.11-1.09.33-2.17.65-.87.11-1.74.65-2.5.76-1.09.22-1.85.65-2.72,1.3-.54.33-.87.65-1.41.87-1.85.76-3.59,1.85-5.11,3.26-1.63,1.2-2.83,2.28-3.69,3.37-1.19.76-2.06,1.96-2.93,3.15-.76,1.09-1.63,2.06-1.96,3.48-.11.43-.33.76-.87,1.85-.98,1.96-1.63,3.48-1.85,4.89-.43.87-.54,1.63-.54,3.37.11,3.37-.33,3.15,1.52,8.26l3.48,5.11c.43.54.87,1.09,1.63,1.74.33.11.65.43.98.87,1.41,1.3,3.26,2.17,5.98,2.82q.22,0,.33-.11c.33-.11.54-.33.76-.65.43-.54.76-1.09.98-1.74.33-.65.76-1.3.98-2.06.22-.98.87-1.63,1.09-2.5.11-.22.22-.43.22-.65.22-1.19.65-2.06,1.41-2.93.43-.65.65-1.3.98-2.17.22-.87.33-1.2.54-1.52.76-1.3,1.85-2.5,2.5-3.91l.54-.87c.65-.65,1.3-1.19,1.85-1.96.54-.87,1.19-1.63,1.74-2.5.22-.33.22-.43.33-.54,2.06-2.06,3.48-3.15,4.89-4.02.65-.44,1.3-.76,2.06-1.2l1.52-.43c1.74-.54,3.69-.65,6.08-.33,0,0,.11.11.22.11.76.22,1.3,1.2.98,1.85-.33.65-.54.98-.76,1.19-.22.43-.43.54-.76.54-1.52,0-2.93.43-4.24.76-.33.11-.76.22-.98.33-2.06,1.09-2.72,1.63-3.26,2.39-1.2,1.41-2.5,2.82-3.69,4.35-.54.54-.87,1.09-1.19,1.63-.22.43-.33.76-.65,1.09-.87,1.19-1.41,2.5-2.28,3.8-.65,1.2-1.2,2.5-1.96,3.91-.43.98-.76,2.28-1.41,3.26-.87,2.28-1.74,3.91-2.72,5.32-.11.22-.11.43-.22.65-.22.54.11,1.41.54,1.41,1.52,0,2.39,0,3.69.22,1.63,0,3.15-.11,4.67-.33,1.3-.33,2.39-.76,3.48-1.41.76-.54,1.74-.87,2.5-1.41.43-.22.87-.54,1.09-.87,1.3-1.3,1.74-1.74,2.28-2.06.65-.43,1.09-.87,1.41-1.41.54-.76,1.09-1.3,1.74-1.96.43-.43.98-.65,1.52-.65h1.74c.33,0,.76.33.98.65.33.43.43.87.11,1.3-.33.54-.76,1.19-.98,1.74-.11.11-.43.43-1.09,1.3-.87.65-1.3,1.2-1.74,1.96-.33.43-.65.76-.98.98-1.19.98-2.17,1.85-3.15,2.39-1.09.65-2.06,1.3-3.26,1.85-1.3.87-2.61,1.41-4.02,1.74-.43.11-1.09.11-1.52.22-1.2.54-2.5.54-3.58.65-.65,0-1.2-.11-1.74-.11-1.3.11-2.39,0-3.59-.33-.54-.11-1.3-.22-2.06-.22-.43,0-.87.22-1.09.54l-.43.65c-.54.87-.98,1.96-1.63,2.93-.65.98-1.19,2.06-1.85,3.15-1.19,2.17-2.93,4.24-4.24,6.41-.11.22-.22.33-.65.76-.98,1.2-1.85,2.5-2.93,3.58-.43.54-.87,1.09-1.19,1.63-.22.22-.22.43,0,.65,1.52,1.96,3.69,3.04,5.87,4.35.98.11,1.96.65,2.93.76.65.11,1.19.33,1.96.54.65.22,1.09.22,1.63.22.54.11,1.09.11,1.63.22,2.61.44,5.32.33,8.04.44.65,0,.76,0,.98-.11Z"/><path class="cls-1" d="m329.49,222.77c-.33,0-.65-.11-.98-.33-1.09-.65-1.96-1.41-2.82-2.39-.22-.11-.33-.33-.43-.54-.11-.33-.22-.54-.43-.87-1.09-2.17-1.41-4.56-1.19-6.95,0-.43,0-.76.11-1.3.11-.98-.11-1.96.22-3.04l.98-4.13c.65-1.63,1.19-3.26,2.28-4.67.65-.98,1.2-2.17,1.74-3.15,1.09-2.06,2.61-4.02,4.24-5.65.33-.33.65-.65,1.09-.87,1.3-.98,2.72-2.06,3.91-3.26.54-.33,1.09-.65,1.74-.98,1.41-.54,2.93-1.09,4.56-1.2.98,0,2.06-.11,3.04.11.87.11,1.74.54,2.82.87.87.98,1.85,1.74,2.61,2.72.54.54.76,1.09.65,1.85,0,.54-.11,1.09.22,1.63l.65,1.52c.22.65.33,1.3.33,1.96v2.39c0,.33-.11.76-.22,1.09-.54,1.3-.87,2.72-1.41,4.13-.43,1.41-.98,2.72-1.74,4.02-.76,1.2-1.2,2.61-1.96,3.91-.11.33,0,.87.43,1.2.22.11.76.54,2.39.43.87-.11,1.63-.11,2.28-.65,1.74-1.09,2.93-1.85,4.13-3.04.33-.44.87-.76,1.19-1.2.87-.65,1.41-1.74,2.17-2.5.11-.33.76-1.09.98-1.63,1.41-1.96,1.85-2.82,2.5-3.8.87-1.63,2.5-1.41,3.15-.87.65.54.54,1.3-.11,3.15-.65,2.06-1.52,3.48-3.04,5.54-.87.87-2.72,3.48-4.24,4.78-1.63,1.41-1.41,1.3-3.48,2.72-.98.65-2.72,1.3-3.59,1.74-.76.33-2.5.43-3.8.43-1.74-.33-2.82-1.09-4.13-1.63-.22.11-.43.11-.65.33-.98,1.19-2.17,2.17-3.04,3.48-1.09,1.09-2.28,1.96-3.48,2.72-.22.11-.43.11-.65.33-3.04,1.74-3.58,1.74-7.71,1.74-.43,0-.98,0-1.3-.11Zm4.89-4.89c.43-.33,1.09-.43,1.85-.65.54-.22,1.09-.43,1.41-.76,1.74-1.2,3.37-2.61,4.45-4.35.33-.65.76-1.2,1.41-1.96l-.33-3.8c-.11-1.63,0-3.04.54-4.46.76-3.8,1.09-4.35,3.37-7.71.33-.33.65-.76.98-1.2.87-1.41.65-2.61,0-3.8,0-.22-.22-.33-.43-.33-.33-.22-.76-.43-1.3-.43s-1.3.11-1.96,0c-1.19,0-2.28.43-3.04.87-1.09.43-1.85,1.09-2.93,1.74-.22.11-.43.22-.54.33-1.09,1.3-2.61,2.39-3.48,3.8-1.09,1.52-1.85,3.37-3.15,5-.43.87-.98,1.63-1.3,2.5q-.98,2.72-1.3,5.76l-.33,1.85c-.22,1.63,0,3.26.54,4.89.11.22.11.65.22.98.54,1.09,1.2,1.74,2.28,2.06,1.09.22,1.96.22,3.04-.33Z"/><path class="cls-1" d="m354.81,255.58c-.54,0-1.09-.22-1.52-.65-.54-.33-.98-.76-1.3-1.19-.76-.65-1.3-1.3-1.3-2.39-.65-1.41-.54-2.93-.22-4.45.43-2.06,1.52-3.69,2.82-5.21l3.48-3.91c1.3-1.41,2.5-2.83,4.13-3.8.65-.33,1.09-.87,1.63-1.3,2.06-1.74,4.45-3.15,6.84-4.45,1.2-.65,2.39-1.41,3.58-2.28.76-.54,1.74-1.09,2.61-1.74.87-.65,1.52-1.41,1.96-2.39.43-1.09.98-2.17,1.41-3.26.11-.33.11-.65-.11-.98l-.22-.11c-.98.43-1.85.98-2.72,1.63-1.2,1.2-2.82,1.74-4.35,2.17l-1.74.33c-1.2.54-2.28.33-3.48,0-1.09-.33-2.17-.65-3.04-1.3-1.52-1.52-1.96-3.37-2.61-5.11-.11-1.74-.22-3.48.43-5.21.33-.98.11-2.06.65-3.04.43-2.39,1.52-4.45,2.39-6.63.11-.33.33-.65.54-.98,1.3-2.5,2.93-4.78,4.45-7.06.43-.76.98-1.3,1.63-1.96.87-.76,1.74-1.52,2.39-2.5,1.41-1.74,3.37-2.5,5.21-3.58.22-.11.65-.22.98-.22.76-.22,1.63-.33,2.39-.33.54.11.98.11,1.41.11,1.85-.54,3.48.33,5.11.98.43.11.76.54,1.19.76.76.76,1.63,1.3,2.61,1.85.11.11.76-.11.87-.33.54-.76,1.09-1.52,1.74-2.28.22-.22.54-.33.87-.43.43.11.87.33,1.3.54.87.33,1.3.87,1.63,1.74.11.22.22.43.22.65,0,1.41-.22,2.82-1.09,4.02-.54.76-.87,1.63-1.3,2.5-.65,1.3-1.85,3.58-3.37,5.32-1.3,1.63-2.28,3.48-3.37,5.32-.54.87-.98,1.85-1.19,2.93-.65,1.85-1.41,3.69-2.28,5.54-.65,1.41-1.19,3.04-1.52,4.67,0,.22.11.44.22.54s.22.11.33,0c2.06-.87,3.91-2.17,5.65-3.48.43-.33.76-.65,1.09-.87,1.3-.98,2.93-2.39,4.35-3.58,2.72-2.72,3.58-3.69,4.02-4.35,1.52-2.28,3.15-4.46,4.78-6.52l.98-1.52c.43-.54,1.09-.65,1.96-.43.76.11,1.3.87,1.3,1.63,0,.43-.22.98-.22,1.41,0,.54-.65,1.41-.87,1.85-.54.87-.98,2.28-1.63,3.04-2.17,3.48-4.35,5.87-6.52,7.93-.22.33-.43.54-.65.76-1.85,1.63-.43.65-2.39,2.17-.98.76-2.17,1.41-3.04,2.28-.98.87-2.06,1.52-3.15,2.28-1.63.98-3.04,2.17-4.78,3.04-.33.11-.54.33-.87.54-1.63.65-3.15,1.63-4.35,2.82-.54.54-.65,1.3-.87,1.96-.33.65-.54,1.3-.87,1.96-.54,1.52-.98,3.04-1.85,4.45-.76,2.28-2.17,4.24-3.26,6.3-1.63,2.39-3.15,4.89-4.78,7.28-.22.43-.43.87-.76,1.2-.76.98-1.52,2.17-2.61,2.82-1.41.87-2.72,1.85-4.35,2.39-.43.11-.87.33-1.3.33-1.74.11-3.59,0-5.32-.22Zm4.02-4.56c.76,0,1.41-.22,2.06-.65.43-.33.87-.65,1.41-.98.98-.65,1.85-1.41,2.5-2.39,1.52-2.06,3.15-4.02,4.35-6.41.11-.44.43-.87.65-1.2,1.09-1.52,1.74-3.37,2.61-5,.33-.43.43-1.09.65-1.63.11-.22.11-.54-.11-.65-.22,0-.43,0-.65.11l-5.65,3.58c-1.2.76-2.28,1.63-3.26,2.61-1.41,1.41-2.82,2.83-4.35,4.13-.33.33-.65.76-.87,1.09l-1.96,2.5c-.54.98-.76,1.96-.54,3.04.22,1.52.87,1.63,1.74,1.74.33,0,.54,0,.87.11h.54Zm13.58-35.53c2.17-1.52,4.35-3.26,6.19-5.21,2.06-2.06,4.02-4.24,5.76-6.63.65-.87,1.3-1.85,1.74-3.04.43-1.09.87-2.06,1.52-3.15.65-1.09,1.09-2.28,1.63-3.48.33-.76.43-1.63,0-2.39-.22-.33-.33-.65-.54-.87-1.19-1.74-2.72-2.5-5-2.5-.65.11-1.41,0-2.17.11-1.09.22-2.61.43-3.37,1.2-1.63,1.2-3.15,2.93-3.48,3.26-.65.76-1.41,1.52-2.06,2.39-1.52,2.06-2.82,4.24-4.02,6.52-.98,2.06-1.74,4.13-2.5,6.19-.43,1.52-.76,3.04-.76,4.35-.11,1.52.22,2.72.98,3.91.43.65,1.09.98,1.74.87,1.52-.22,3.04-.65,4.35-1.52Z"/><path class="cls-1" d="m398.81,219.94c-.22-.22-.43-.54-.76-1.2-.11-.33-.22-.54-.22-.65l-.33-1.96c.22-1.41.33-2.61.54-3.91.22-1.19.65-2.28,1.63-4.67.87-1.85,1.52-3.69,2.61-5.32l.22-.33c1.3-3.04,3.15-6.52,4.89-9.23.76-1.2,1.3-2.28,1.96-3.48.76-1.2,1.41-2.5,2.17-3.69.43-.65.65-.87.87-1.09.33-.33.76-.54,1.2-.65.65-.33,1.52,0,1.85.54.22.22.43.54.76,1.2,0,.22.11.43,0,.65-.11.43-.22.98-.43,1.3-1.2,2.39-2.17,4.46-3.37,6.74-.98,1.74-2.06,4.13-3.04,5.87-1.09,1.96-1.96,3.91-3.04,5.87-.98,1.96-1.63,3.26-2.06,4.56s-.65,2.72-.98,4.02c-.22.54-.22,1.19-.11,2.17,0,.44.43.87.87.87.87.11,1.41.11,1.74-.22,1.3-.76,2.72-1.74,4.24-3.15,3.04-2.93,4.45-4.35,5.98-6.19.33-.33.54-.65.87-1.09.65-.65,1.2-1.41,1.85-2.06.76-.65,1.41-1.41,2.28-2.61.87-1.3,1.63-2.61,2.5-3.8,1.41-1.85,2.17-3.58,3.59-5.32.54-.76.98-1.63,1.52-2.39.33-.43.76-1.2,1.09-1.96.22-.54.54-1.09,1.41-2.39.54-.87,1.52-1.63,2.72-2.06.33-.22.76-.11,1.09-.11s.65.22.76.54c.33.65.43.98.43,1.3.11.98,0,2.06-.43,3.15-.54,1.09-1.09,1.85-1.63,2.83-.87.87-1.3,1.96-1.96,2.93-.87,1.3-1.52,2.39-3.69,6.52-.76,1.41-1.41,2.93-2.17,4.35-.33.54-.43,1.09-.65,1.63-.22.76-.33,1.41-.54,2.06-.33,1.3-.54,2.5-.54,3.48-.11.33-.11.65-.11,1.74-.11.54,0,1.2.22,2.06.11.65,1.09,1.2,2.17,1.2.98-.11,1.74-.44,2.17-.87,1.96-1.3,2.93-2.06,4.02-3.15.33-.43.76-.76,1.09-1.19.65-.54,1.19-1.09,2.17-2.17.33-.33,1.09-1.41,1.3-1.63,2.06-2.39,3.15-4.13,4.78-6.52.76-.76.76-1.74,1.41-2.39.65-.76,1.09-1.63,1.52-2.28.22-.33.76-.54,1.3-.54.11,0,.65-.11.76,0,.22.11.65,0,1.09.33.43.33.54.54.54,1.63,0,.22-.87,2.39-1.41,3.48-1.3,1.96-1.63,3.15-3.15,4.78-.87,1.85-1.85,3.26-3.91,5.54-.33.54-.87,1.09-2.28,2.39-.33.76-1.19,1.3-1.52,1.74-.54.33-.98.54-.98.76-1.3,1.09-2.28,1.96-3.26,2.61-.98.65-3.15,1.3-4.02,1.74-2.93.65-5.21.33-6.74-1.09-2.5-2.17-2.61-2.39-2.93-5.65v-2.06c0-.33-.11-.43-.33-.43-.33,0-1.09.43-1.52.87l-2.28,2.28c-1.63,2.28-3.26,3.48-4.78,4.78-1.2.76-2.28,1.2-3.26,1.3l-2.5.33c-1.74-.33-3.15-.98-5.21-2.61Z"/><path class="cls-1" d="m447.37,222.22c-.76-.22-1.41-.76-2.06-1.3-.87-.87-1.74-1.85-2.61-2.82-.54-.65-.87-1.41-.98-2.28-.11-.22-.11-.43-.11-.65-.43-1.2-.65-2.5-.54-3.8,0-1.19,0-2.28.22-3.48.22-.65.22-1.41.33-2.06.43-.87.76-1.74,1.09-2.61.76-2.06,1.96-4.67,3.15-6.41.22-.33.33-.65.43-.98l.54-.98c.87-1.19,1.85-2.39,2.82-3.58,1.19-1.63,2.61-2.93,4.45-3.91,1.74-1.3,3.69-1.96,5.65-2.83.33-.11.65-.22.98-.22l2.82-.54c1.09-.22,2.06.11,3.04.65.76.54,1.52,1.09,2.17,1.74.87.65,1.41,1.63,1.52,2.72.11.65.22,1.41.22,2.17-.11.98-.43,1.85-.76,2.82l-.65,1.63c-.22.54-.76,1.09-.98,1.63-.22.43-1.09,1.52-1.3,1.85l-.54.98c-.65,1.09-1.63,1.96-2.39,3.04-.11.11-.33.22-.54.33-.54.43-1.2.87-1.63,1.3-1.63,1.52-3.48,2.72-6.41,3.8l-4.56,1.09c-.98.11-3.58.33-4.35.33,0,.11,0,.65-.11.76-.22,2.28,0,3.26.98,5.32.22.43.54.87.98,1.09q2.17,1.09,4.67,1.2c.98,0,1.85,0,2.72-.43.43-.22.98-.22,1.41-.33.33-.11,1.52-.76,1.85-.87,1.63-.98,4.89-2.82,6.08-3.91.33-.43.76-.76,1.09-1.2.76-.54,1.41-1.3,2.06-1.96.33-.33,1.09-1.3,1.3-1.52,2.06-2.17,3.15-3.8,4.78-5.97.65-.65.87-1.63,1.41-2.17.65-.76,1.09-1.52,1.52-2.06.33-.43.87-.54,1.19-.54.11,0,.54-.11.65,0,.22.11.65,0,.98.33.43.22.65.44.43,1.41,0,.33-1.09,2.72-1.41,3.26-1.3,1.74-1.63,2.93-3.15,4.35-1.09,1.96-2.06,3.26-3.8,5.11-.54.76-1.41,1.52-2.17,2.28-.54.65-1.3,1.2-1.63,1.52-.54.33-3.37,2.5-4.24,3.04-.54.43-1.63,1.2-2.28,1.52-2.93,1.74-6.19,2.61-9.67,2.83-1.85.11-2.93-.22-4.67-.65Zm7.06-18.9c2.06-.98,5.65-4.45,6.95-5.76,1.09-1.3,2.06-2.61,2.72-4.13.54-1.09.76-2.17.65-3.37,0-.98-1.09-1.74-1.96-1.52-.76.22-1.63.43-2.39.76-1.74.65-3.37,1.52-4.56,3.04-.33.33-.76.65-1.09.87-1.74,1.63-3.48,3.15-4.89,6.19-.33.76-.76,1.41-1.2,2.17-.22.43-.33.87-.43,1.19-.22.65-.43,1.52-.33,1.74,3.04,0,4.78-.43,6.52-1.19Zm-.54-21.84c-.11,0-.22-.11-.22-.22-.11-.76-.33-1.52-.22-2.39,0-.22.22-.44.43-.54.54-.43,1.09-.65,1.63-1.09,1.09-.76,2.28-1.3,3.48-1.74l1.96-.98c1.63-.87,3.26-1.74,4.89-2.39,1.41-.54,2.93-1.41,4.24-2.5.98-.87,2.17-1.41,3.26-1.85.98-.22,1.74-.22,2.39.22.54.33.98.76,1.3,1.3.22.33.33.65.43.87.11.76.54,1.41,1.09,1.96,1.09,1.2,1.74,2.72,2.5,4.13.11.76.43,1.41.43,2.28,0,.33-.11.65-.11.87-.11.33-.22.54-.22.76-.33.65-1.41,1.2-1.96.98-.43-.22-.87-.43-1.09-.76-.98-1.2-1.85-2.5-2.82-3.8-.54-1.09-1.19-2.28-2.06-3.15-.11-.22-.65-.22-.87-.11-.22.11-.33.11-.43.11-.22.22-.43.33-.65.43-1.41.87-2.82,1.74-4.35,2.39-.76.33-1.41.87-1.96,1.19-.87.33-1.63.87-2.5,1.3-.54.33-1.2.87-1.85,1.3-.43.22-.87.54-1.41.76-1.09.54-2.28,1.09-3.48,1.52-.22.22-.65.22-.98,0-.22-.22-.65-.54-.87-.87Z"/><path class="cls-1" d="m510.16,199.19c0,.33-1.2,2.93-1.52,3.48-1.41,1.96-1.85,3.15-3.48,4.78-1.09,2.06-2.17,3.48-4.13,5.54-.54.76-1.52,1.63-2.39,2.39-.43.76-1.3,1.3-1.63,1.74-.54.33-1.09.54-1.09.76-1.3,1.09-2.39,1.96-3.37,2.61-.98.65-3.26,1.3-4.13,1.74-1.74.54-1.85.54-3.8.65-2.72-.22-3.8-1.3-4.13-1.41-.87.65-3.04,1.3-5.98,1.3-.76,0-2.17-.43-2.72-.98-1.09-.76-1.3-1.09-2.28-1.85-.54-.54-1.3-2.06-1.19-3.04-.33-.54-.22-.98-.33-1.85.22-.43,0-1.96.43-2.17.33-.43.54-.76,1.09-1.3.98-.87,1.2-1.41,2.28-1.41.54-.22.54.11,1.09.22,1.09.65,2.5,2.82,3.04,3.69.65.54,2.82,1.96,4.13,2.39,1.09-.22,2.28-1.2,2.82-1.85,1.3-1.09,2.17-2.83,2.82-4.24.22-.43.65-.98.76-1.52.54-1.74.54-2.5.43-4.45l-.22-2.39c-.11-.98-.33-1.2-.54-2.72-.22-1.09-.33-2.17-.76-3.26,0-.65-.33-1.09-.33-1.63.11-.76-.11-1.52-.33-2.28-.33.43-.76.98-.98,1.63-.33.54-2.17,4.13-2.5,4.78-.54,1.09-2.61,3.37-3.26,4.56-.87,1.41-2.5,2.06-3.26,1.2l-.98-1.2c-.33-.33.33-1.41,2.17-4.56.98-1.63,1.2-1.63,2.17-3.15.65-1.41,2.06-3.26,2.5-4.02.87-1.74,1.85-3.48,2.61-4.78-.33-1.41-.65-2.72.11-5.21.65-1.74,2.82-4.13,4.35-4.67.54-.33,1.96-.43,2.72-.33.33.11.65,0,1.09.33.33.11.87.22,1.09.65.33.43.65.76.54,1.2.33.22.54.54.43.98.22,1.2,0,2.06-.33,3.26-.11.54-.22.87-.65,1.52-.76.98-1.09,1.74-1.85,2.61l-1.74,2.17c.54,1.41.43,1.96.87,3.58.43,2.06.98,4.24,1.2,6.19.43,1.3.65,2.72.76,4.02,0,.87.22.76,0,1.74.43.98.11,1.96-.22,3.15,0,1.3-.11,2.5-.98,3.58-.22,1.63-1.52,2.93-2.61,4.24-.33.54-2.17,1.96-1.74,2.06.76,0,1.3-.11,2.5-.54.87-.33,3.48-1.96,4.67-3.15.33-.43.87-.76,1.2-1.19.87-.65,1.52-1.41,2.28-2.17.33-.33,1.2-1.41,1.41-1.63,2.17-2.39,3.37-4.13,5.11-6.52.76-.76.87-1.74,1.52-2.39.65-.76,1.19-1.63,1.63-2.28.33-.43.98-.54,1.3-.54.11,0,.65-.11.76,0,.22.11.65,0,1.09.33.43.33.54.54.43,1.63Z"/><path class="cls-1" d="m168.96,91.26c-.33-.08-.37-.27-.19-.53.39-.54.1-.82-.31-1.19-.51-.46-1.39-.76-1.02-1.78.1-.27-.26-.27-.43-.36-.81-.44-1-1.03-.58-1.84.6-1.18,1.18-2.38,1.83-3.53.25-.44.26-.63-.21-.89-.9-.51-.91-.79-.39-1.65.78-1.27,1.71-2.41,2.85-3.36.48-.4.71-.75,0-1.16-.47-.26-.56-.67-.29-1.15.56-1,1.16-1.91,2.11-2.66,1.43-1.13,2.68-2.49,4.12-3.62.38-.3.15-.74.37-1.08.44-.66.9-1.34,1.62-1.67,1.14-.53,2.02-1.4,2.97-2.16,1.28-1.03,2.71-1.77,4.12-2.57.23-.13.46-.11.7-.04.3.08.55.01.69-.28.32-.7,1.02-1.02,1.51-1.55.58-.62,1.42-.2,2.13-.37.02,0,.05.02.08.04q.72.55,1.87.07c-.31-.72-1.01-1.41-.15-2.22.16-.15-.07-.25-.2-.31-.66-.3-1-.87-1.27-1.55-.48.9-1.48,1.47-2.47,1.17-1-.3-2.06-.35-3.01-.83-.64-.32-1.08-.76-1.48-1.34-.43-.64-.73-1.36-1.34-1.89-.67-.59-.51-1.64-1.14-2.31-.4-.43-.59-.76-1.34-.45-1.69.73-3.91-.44-4.58-2.45-.42-1.26-.79-2.56-.98-3.9-.15-1.07-.82-1.96-1.43-2.82-.28-.39-.9-.23-1.37-.29-2.38-.3-4.12-1.56-4.24-4.11-.05-1.1-.51-2.22-.15-3.28.43-1.29.13-2.32-.6-3.35-.42-.6-.22-1.35-.29-2.02-.14-1.33-.08-2.68-.21-4.02-.19-2.03.17-4.06.56-6.04.37-1.9,1.05-3.77,2.24-5.33.8-1.05,1.51-1.33,3.04-1,1.74.38,2.93,1.46,4.08,2.69,1.04,1.11,2.02,2.29,3.11,3.34,1.28,1.24,2.22,2.78,3.64,3.91.84.67,1.44,1.67,2.02,2.61,1,1.62,2.26,3.06,3.31,4.65,1.27,1.91,2.94,3.56,4.04,5.55.52.93,1.15,1.86,1.72,2.72.62.95.92,2.14,1.9,2.88.53.4.69,1.14,1.08,1.7,1.04,1.5,2.21,2.75,3.85,3.61.6.32,1.3.7,1.68,1.39.2.36.51.65.91.82.16.07.3.21.45.3.74.42.73,1.74,1.57,1.73.76,0,1.57-.17,2.36-.26,1.2-.13,2.15.71,3.32.64.88-.05,1.71-.35,2.65-.05,1.1.34,2.04.87,2.88,1.61.51.45,1.07.66,1.72.44,1.14-.38,2.37-.51,3.51-.63,1.14-.13,2.49.33,3.48,1.15,2.26,1.88,4.98,2.39,7.74,2.96.88.18,1.86.5,2.69.56,1.87.14,3.61,1.04,5.63.51,2.39-.62,4.8-1.2,7.2-1.8,1.68-.42,3.52-.65,5.17-.21,1.55.42,3.13.63,4.66,1.11,1.49.47,2.98.25,4.4-.41,1.72-.8,3.3-1.91,5.17-2.37,2.18-.53,4.39-.75,6.63-.87,1.86-.1,3.34-1.09,4.87-2.09,1.89-1.24,3.63-2.76,5.82-3.52.16-.06.28,0,.42.02.32.03.81-.08.84.3.03.41-.48.34-.79.39-.61.1-1.03.49-1.53.81-1.22.78-2.07,2-3.4,2.62-.65.3-.95,1.03-1.58,1.45-1.5,1.01-2.96,2.06-4.9,2.13.68.06,1.12.44,1.56.87.4.39.94.36,1.36.16,2.01-.95,3.46-.16,4.7,1.39.86,1.07,2.02,1.86,2.77,3.03.35.55.75,1.05.59,1.82-.27,1.26-1.04,1.71-2.22,1.16-.19-.09-.37-.2-.55-.32-.76-.5-1.29-.36-1.67.42-.13.26.1.34.2.41.79.58,1.3,1.42,2.01,2.07.57.52,1.07,1.28.67,1.96-.4.67-1.12,1.3-2.12.89-.03.73.03,1.44-.9,1.67-.36.09-.4.57-.2.75,1.42,1.25,2.37,2.94,3.83,4.19q.46-1.05,1.76-.47c.02-1.1-.71-1.73-1.35-2.39-.72-.74-1.37-1.51-1.64-2.54-.15-.57-.17-1.16.43-1.4.69-.29,1.62-.83,2.16-.06.62.88,1.6,1.01,2.34,1.59.55.43.98.95,1.49,1.39,1.09.93,1.41,2.1,1.53,3.44.05.56.43,1.12.73,1.64.57,1.02.52,1.64-.36,2.43-.46.42-.12.76.12,1,.47.48.71.96.38,1.61-.21.41.07.66.32.94.8.88.45,1.76-.64,2.22-1.93.81-3.27-.32-4.68-1.25-.44-.29-.41-.77-.08-1.2.29-.38.2-.61-.25-.81-.62-.27-1.02-.83-1.4-1.36-.26-.35-.55-.62-1.15-.91.52,1.59-.78,2.72-.65,4.28.07.8-.48,1.98-1,2.79-.55.85-1.64,1.12-2.75.96-1.89-.29-3.43-1.37-5.08-2.2-.12-.06-.22-.2-.3-.32-.53-.9-1.28-1.39-2.36-1.3-.14.01-.37-.02-.41-.11-.64-1.21-2.01-1.34-3-2.03-.67-.46-1.27-1-1.9-1.5-.49-.39-1.14-.72-1.75-.78-1.25-.11-2.45-.39-3.59-.82-1.7-.63-3.43-.81-5.22-.76-.26,0-.55-.02-.79-.12-.57-.24-1.08-.5-1.51.23-.1.17-.4.1-.6.03-1.77-.62-3.26-1.63-4.24-3.27-.16-.26-.28-.59-.17-.93.24-.72-.24-1.25-.5-1.82-.16-.35-.39-.1-.55.1-.32.42-.64.36-1.11.15-.76-.34-1.38-.81-1.94-1.39-.5-.51-.51-.5-1.17-.04.67.54,1.54.81,1.64,1.96.06.72.9,1.21,1.55,1.54,1.42.72,1.39,1.42,1.07,2.75-.1.44-.08.61.27.87,1.28.94,1.45,1.64.85,3.07-.09.2-.21.39.02.65.57.63.67,1.36.27,2.13-.09.18-.17.36.03.47.78.4,1.11,1.25,1.76,1.79.62.52.64,1.7.03,2.36-.51.55-1.17.55-1.81.17-.31-.19-.44-.66-1.02-.63.41.61,1.13,1.09.96,1.72-.28,1.05-.03,2,.07,3.02.16,1.7-.44,1.86-2.19,1.73.42.51.74,1.03,1.19,1.4.63.52.71,1.24.83,1.93.11.63-.1,1.11-.89,1.07-.21-.01-.48.02-.55.24-.08.26.15.42.35.57.74.58,1.51,1.13,2.2,1.78.59.55.91,1.23.57,2.09-.27.67-.65,1.06-1.43.86-.17-.05-.38-.11-.51.06-.14.2-.08.44.08.58.37.31.48,1.19,1.29.61.06-.04.26.1.38.17.94.58,1.66,2.12,1.45,3.17-.16.8-.87.96-1.46.85-.77-.14-1.47.2-2.24.04-.78-.16-.59.87-1.06,1.23-.14.11.49.37.84.5.61.23,1.25.48,1.73.9,1.51,1.3,3.15,1.5,5.02.98,2.62-.74,5.28-.84,7.96-.2.74.18,1.56.07,2.19.64.23.21.36-.03.54-.11,1.22-.54,2.39-1.22,3.76-1.39,1.35-.17,2.45-.02,3.2,1.33.37.67,1.02,1.03,1.96.75,1.57-.46,2.92-1.32,4.37-1.99,1.25-.58,2.3-1.53,3.59-1.95,1.18-.39,2.46-.64,3.65.16,1.1.75,1.95-.16,2.7-.62,1.76-1.07,3.75-1.77,5.23-3.29.49-.5,1.16-.47,1.77-.51.57-.04.81.6.53,1.29-.7,1.76-2.14,2.72-3.75,3.52-.52.26-.93.75-1.42,1.08-1.16.77-2.47,1.22-3.75,1.73-.8.32-1.6.04-2.29-.4-.63-.4-1.1-.24-1.74.05-2.26.98-4.21,2.58-6.6,3.3-.54.16-.97.54-1.58.62-1.77.22-3.36.21-4.43-1.62-.69-1.18-1.68-1.25-3.03-.53-1,.54-2.04,1-3.15,1.28-.88.23-1.69.22-2.09-.82-.18-.46-.43-.63-.84-.22-.16.15-.34.15-.58.09-2.18-.58-4.3-.32-6.43.35-1.31.41-2.83.39-3.97-.19-1.02-.51-2.13-1.01-3.04-1.8-.92-.79-2.07-.65-3.19-.57-2.12.16-4.16.86-6.27,1.04-2.04.18-3.86-.47-5.6-1.52-1.25-.75-2.58-1.57-4.15-1.22-1.34.3-2.69.43-4.05.53-1.19.09-2.14-.39-2.92-1.27-.44-.49-.84-.89-1.66-.79-1.73.21-3.48.2-5.22.04-.66-.06-1.15-.26-1.58-.84-.98-1.35-2.39-1.28-3.84-.98-1.17.24-1.91-.25-2.19-1.41-.38-1.58-.56-1.8-2.15-1.88-1.19-.06-2.12-.81-3.24-1.05-.17-.04-.51-.23-.32-.53.21-.32.4.01.6.09,1.22.47,2.48.57,3.77.34.2-.04.22-.17.25-.31.06-.32.37-.66.15-.95-.44-.58,1.09-1.11.04-1.59-.65-.3-.87-.74-1-1.37-.05-.27-.42-.14-.64-.17-1.06-.15-1.38-.78-.95-1.72.46-.98,1.07-1.85,1.69-2.72.29-.4.68-.71,1.13-.62.65.12,1.07-.35,1.62-.46.22-.05.33-.2.19-.39-.41-.55-.21-1.02.26-1.31.52-.33,1.04-.06,1.49.3.55.44,1.16.82,1.73,1.22.6.42,1.52.38,2.31.54,1.67.35,3.33.74,5,1.04,2.07.37,4.06,1.03,6.04,1.71,1.69.58,3.34,1.3,4.96,2.05.55.25,1.02.73,1.43,1.2,1.17,1.32,2.53,1.79,4.22,1.13.27-.11.62.01.86-.33-.63-.72-1.57-.93-2.38-1.28-1.4-.6-2.63-1.5-4.05-2.05-.28-.11-.49-.36-.5-.61-.03-1.27-1.08-1.6-1.9-2.17-1.23-.85-2.42-1.74-3.64-2.6-.37-.26-.32-.7-.48-1.1-.52.23-1.07.5-1.58.1-.7-.54-.57-1.35.28-1.91.15-.1.33-.15.46-.26.14-.12-.04-.13-.09-.16-.4-.25-.26-1.27-1.07-.89-1.08.5-1.9.47-2.41-.74-.08-.2-.33-.23-.42-.02-.38.88-1.59,1.28-1.44,2.48.01.1-.05.24-.13.31-.47.43-1.15.46-1.63.98-.44.48-1.17.24-1.75-.03-.21-.1-.4-.2-.59-.07-.82.56-1.38-.06-1.91-.47-.55-.42-1.07-.88-1.67-1.23-.47-.28-.89-.68-.52-1.24.32-.49.66-1.12,1.47-.93.47.11,1.04.4,1.14-.46,0-.03.03-.07.05-.07,1.27.09,1.07-1.15,1.6-1.73.38-.41,1.01-.34,1.51-.54.18-.07.47.02.56-.21.34-.97,1.09-1.09,2.01-.93-.14-.96-1-1.65-.68-2.68.09-.29-.31-.42-.65-.48-1.66-.28-1.78-.34-1.74-2.01.02-.73-.73-1.2-.43-1.96.08-.21-.24-.18-.4-.11-.35.15-.75.23-1.03-.04-.62-.59-1.03-.23-1.45.24-1,1.09-2.41,1.55-3.63,2.3-.57.35-1.01.07-1.1-.57-.09-.66-.33-.6-.84-.39-.84.35-1.65.96-2.66.45-.19-.1-.39-.16-.53-.32-.86-.93-1.2-.92-2.05.03-.63.7-1.33,1.3-2.08,1.86-.57.43-1.06.94-1.92.49-.38-.2-.84.23-1.21.48-1.02.68-1.54.63-2.3-.3-.32-.39-.54-.39-.96-.07-.71.56-1.41,1.17-2.42,1.25-.92.08-1.16-.63-1.59-1.12-.36-.41-.13-.86.1-1.25.15-.26.47-.54.18-.78-.26-.22-.53.1-.74.31-.59.58-1.26,1.01-2.04,1.3-.98.36-1.27,1.42-2.02,2.02-.5.4-.86,1.05-1.67.74-.16-.06-.31.06-.27.24.2.93-.29,1.6-.92,2.21,1.18.51,1.16.51.69,1.76-.63,1.68-1.32,3.33-2.48,4.74-.09.11-.22.19-.34.27-.24.16-.44.4-.35.66.08.24.37.08.57.06.48-.04.77.23.89.63.21.71.17,1.42-.49,1.88-.77.54-1.38,1.26-2.1,1.86-.31.26-.59.52-.12.95.29.27.06.63-.15.89-.48.58-.98,1.15-1.47,1.72-.24.27-.55.56-.52.92.02.26.24.58.47.74.27.19.57-.04.82-.22.2-.14.25-.75.6-.34.29.34.27.87-.16,1.2-.24.18-.78.03-.77.47,0,.5.56.74.82,1.15.12.19.53.22.81-.05.87-.85,1.98-1.3,3.12-1.49,1.39-.22,2.81-.37,4.26-.18,1.85.23,3.63-.17,5.28-1.15,1.8-1.06,3.76-1.81,5.74-2.48,1.15-.38,2.21-.14,3.15.61.59.47.26.81-.2,1.12-.72.49-1.6.49-2.4.68-2.35.59-4.49,1.66-6.7,2.6-1.09.46-2.17.65-3.6.41.9.75.67,1.45.43,2.16-.24.72-.19,1.2.77,1.01.2-.04.42.02.63,0,.78-.09,1.28.21,1.47.99.12.52.21.71.9.43,1.65-.68,3.18-1.5,4.5-2.7.29-.26.55-.69.97-.43.47.29.7.83.7,1.39,0,1.22-.78,2-1.73,2.53-2.1,1.15-4.24,2.11-6.71,2.35-1.16.12-2.31.09-3.46.18-1.12.09-2.27.25-3.28.79-1.88,1.02-3.83,1.75-6,1.74-1.28,0-2.27.76-3.39,1.17-2.04.74-3.92.38-5.76-.59-.17-.09-.42-.23-.31-.48.09-.2.32-.25.55-.17.16.06.33.11.6.2-.23-.67.01-1.16.43-1.52.81-.71,1.58-1.47,2.67-1.78.33-.09.62-.11.79.21.14.27.04.5-.2.71-.94.83-1.73,1.84-2.87,2.43-.09.05-.15.17-.18.28-.01.05.12.19.13.19.65-.41,1.29.17,2-.04,1.16-.36,1.49-1.44,2.22-2.15.26-.25.08-.91.8-.74.69.16.66.66.63,1.19,1.4-.46,2.73-1,4.16-1.26.94-.18,1.68-.92,2.53-1.36,2-1.05,4.14-1.41,6.38-1.29.41.02.79.02,1-.42-.1-.16-.25-.11-.38-.08-1.89.44-2.9-.58-2.33-2.44.23-.76.23-1.02-.64-.73-.56.18-1.14.29-1.72.38-.72.11-1.01-.26-.88-.95.04-.2.2-.42-.02-.57-.19-.13-.4.03-.6.09-.69.19-1.29.97-2.1.3-.04-.03-.19,0-.24.04-1.55,1.34-3.53,1.8-5.31,2.66-1.44.7-3.1.87-4.38,1.9-1.03.83-2.06,1.64-3.24,2.28-1.47.81-2.99,1.25-4.65,1.39-.76.07-1.52.28-2.25.51-1.8.58-3.47-.04-5.17-.46-1.23-.3-2.15-1.16-3.25-1.7-.39-.19-.64-.54-.82-.94-.54-1.18-1.18-2.3-1.31-3.66-.12-1.25.89-2.96,2.22-3.83,1.52-1,3.39-1.07,4.88-2.07.17-.11.39-.11.53-.31,1.13-1.71,2.96-2.41,4.73-3.14,2.39-.99,4.79-1.94,7.22-2.8.63-.22,1.21-.43,1.68-.91.14.08.28.13.35-.07.01-.05-.08-.18-.13-.18-.2-.02-.24.11-.19.28Zm44.44,12.1c0-.12.04-.3-.02-.35-.9-.64-.59-1.27.2-2.03-1.99.02-3.69.5-5.47.69.11.25.23.41.24.58.03.98.51,1.07,1.31.77.66-.25,1.39-.16,2.08-.26.52-.08,1.21.11,1.67.59.67.69,1.35,1.43,2.43,1.31,1.33-.15,2.67-.12,4-.23,1.11-.1,2.29.03,2.95,1.25.24.45.7.69,1.41.86-1.13-.7-1.14-2.09-2.22-2.61-.08-.04-.13-.29-.1-.42.11-.54-.2-.63-.61-.63-.6,0-1.2.02-1.8.06-2.02.12-4.02.47-6.05.41Zm-45.7.98q-1.35-.79-2-.6c-1.13.34-1.66-.07-1.46-1.24.13-.76-.04-.82-.73-.64-1.26.32-1.6-.02-1.33-1.21.09-.39-.05-.44-.37-.51-.74-.16-1.09-.76-.67-1.29.44-.55.54-.94.03-1.45-.07-.07-.16-.3-.01-.3.64-.02.81-.82,1.43-.83.12,0,.31.18.33-.09,0-.1-.09-.22-.15-.32-.1-.17-.25-.14-.38-.05-1.36.9-2.94,1.46-4.03,2.8-1.37,1.69-3.11,2.85-5.27,3.45-.79.22-1.73.45-2.31,1.28-.47.66,0,1.23.05,1.82.02.24.62.1.88-.02.99-.47,1.97-.96,2.9-1.53.35-.21.67-.37.98-.17.3.19.24.6.18.92-.08.49-.48.63-.91.75-1.23.34-2.4.93-3.79.83.93,1.55,2.12,2.18,3.42,1.87.6-.15,1.02-.58,1.42-1.02.31-.34.62-.28.97-.07.43.25.17.54.12.85-.1.57-.82.5-1.01,1.13,4.34-.46,8.67-.65,11.69-4.35Zm1.61-81.71c.03.14.05.41.09.41.77.02,1.16.77,1.86.93,1.27.3,2.42.82,2.95,2.14.24.59.49.38.87.15,1.05-.67,1.63-.58,2.24.27.54.75.94.69,1.37-.2.56-1.19,1.83-1.47,2.65-.54.44.5.63-.06.9-.15.18-.06.55-.43.19-.71-.97-.76-1.21-2.03-2.09-2.84-.5-.46-1.08-.88-1.44-1.43-.46-.7-1.11-1.2-1.59-1.85-.79-1.05-1.77-1.94-2.63-2.93-.8-.92-1.51-2-2.64-2.62-.32-.17-.83-.54-.99-.12-.47,1.25-1.32,2.34-1.49,3.72-.24,1.92-.34,3.84-.24,5.78Zm104.37,29.64c-1.4-.32-6.23,1.04-7.19,1.98.6.23,1.18.46,1.76.67.25.09.49.2.77.04.95-.55,1.91-1.08,3.06-1.06.32,0,.39-.29.39-.51-.01-.74.45-.99,1.21-1.13Zm-26.49,3.77c-2.91.97-5.75,2.07-9.07,1.58.58.52.91.99,1.53.87,1-.21,2.02-.37,2.98-.69.5-.17.93-.19,1.23.16.67.77,1.61.52,2.41.77.32.1.59-.02.42-.41-.36-.87-.18-1.6.49-2.27Zm-6.4,39.54c-.21-.38.15-.77-.09-1.14-.49-.75-1.96-.74-2.38.03-.11.19.06.26.15.36.61.77,1.22,1.55,1.84,2.32.1.13.17.36.4.21.13-.08.21-.21.13-.38-.21-.46-.12-.94-.04-1.4Zm38.95-20.95c.42-.42.85-.77,1.52-.54q-1.02-2.29-3.27-1.79c.33.95,1.47,1.3,1.75,2.33Zm-89.88-22.25c-.12-.43.31-1.04-.26-1.2-1.09-.29-2.14-.78-3.39-.81.79,1.59,2.63,1.01,3.65,2.01Zm30.35,42.71c.15-.04.46.05.52-.27.07-.37-.34-.37-.49-.37-.95.02-1.82-.33-2.72-.51-.25-.05-.53-.31-.61.17-.06.33-.06.56.38.76.95.43,1.92-.08,2.92.22Zm28.92-39.33c.99-.08,1.69.37,2.49.48.43.06.49-.35.62-.62.06-.12.09-.36-.14-.33-.92.15-1.91-.38-2.97.46Zm-59.31-14.43c-.54-.15-1.07-.3-1.61-.44-.16-.04-.36-.27-.47-.08-.23.39.16.7.23,1.06.02.12.11.37.28.21.45-.43,1.21-.12,1.57-.75Zm-8.95,59.59c-.85-.03-1.51.12-2.16.26-.17.04-.39.02-.45.23-.07.26.19.34.32.5.18.22.38.19.54.02.45-.45,1.06-.62,1.75-1.02Zm62.91-18.87c.1.62.53.9,1.05,1.07.18.06.5.23.45-.13-.04-.27.37-.78-.18-.8-.44-.02-.85-.35-1.32-.15Zm-16.63-4.98c-.64-.5-1.27-.04-1.88-.14-.17-.03-.31.15-.3.27.01.1.19.23.31.26.66.19,1.29.12,1.86-.4Zm-9.93,19.8c-.5.11-.65.69-.92,1.1-.11.17.27.38.42.33.55-.18.68-.76.97-1.18.12-.18-.18-.24-.47-.25Zm-35.17,4.04c.39.84.84.94,1.66.35-.58-.12-1.11-.23-1.66-.35Zm93.15-35.95c-.12.63-.21,1.27.12,1.88.07.12.19.27.35.19.16-.08.13-.24.03-.38-.34-.51-.36-1.1-.51-1.68Zm-28.05,20.6c-.06-.29-.23-.53-.5-.59-.21-.05-.43.13-.41.37.03.34.38.34.61.43.16.06.28-.03.3-.22Zm-31.77-18.96c.45.81.93.14,1.4,0h-1.4Zm3.83-8.87c.12.37.3.6.69.56.05,0,.12-.16.1-.22-.13-.37-.42-.41-.79-.34Zm-41.27,43.95c.01-.14-.02-.23-.14-.2-.07.02-.13.1-.19.15.05.06.1.16.15.17.06,0,.13-.08.17-.11Zm34.08-50.98c-.07-.21-.17-.4-.44-.24.17.09.3.17.44.24Z"/><path class="cls-1" d="m309.54,87.56c-1.01-.93-2.1-1.57-3.53-1.76-1.5-.2-2.72-1.03-3.62-2.37-.78-1.15-2.05-1.76-3.37-2.14-.77-.22-1.88-1.55-1.84-2.34.04-.82-.53-1.42-.99-1.99-.46-.58-.56-1.11-.22-1.72.24-.44.12-.73-.16-1.12-.52-.73-.95-1.53-1.38-2.32-.19-.35-.07-.66.3-.92.54-.38.57-.78-.05-1.19-.75-.49-1.25-1.13-1.04-2.11.07-.35-.04-.71-.34-.88-.54-.3-.88-.82-1.36-1.18-.6-.45-.89-.96-.33-1.59.49-.54,1.18-.69,1.78-.29,1.13.74,2.19,1.58,3.26,2.41.5.39.98.8.99,1.54,0,.4.36.55.7.58,2.38.27,3.74,1.93,4.36,3.9.35,1.12,1.03,2.64-.15,3.91-.21.23-.17.76-.12,1.14.21,1.63-.12,2.34-1.59,3.14,1.16.69,2.6.9,3.47,2.01.98,1.25,2.5.98,3.77,1.4.72.24,1.59.13,1.94,1.07.11.3.47.21.72.31,1.91.76,3.72,1.67,5.43,2.86,1.04.72,2.31,1.14,3.55,1.58,1.37.49,2.69.08,4.01.19,1.42.12,2.84-.13,4.28.12.88.15,1.74.29,2.57.62,2.52.98,3.56,4.24,2.22,6.65-.92,1.65-2.26,2.79-3.86,3.73.25.27.52.14.69.05,2.14-1.17,4.45-.91,6.71-.73,1.19.09,2.31-.17,3.46-.29,2.16-.23,4.3-.66,6.48-.81,1.18-.08,2.37-.58,3.54-.29,1,.24,2.06.04,3.01.76,1.22.93,1.61,2.25,2,3.53.65,2.13.55,4.27-.84,6.15-1.04,1.41-2.31,2.5-3.95,3.26-1.93.89-3.92.76-5.89.78-1.45,0-2.92-.41-4.36-.73-.93-.2-1.73-.05-2.45.54-.8.66-1.8.86-2.74,1.14-1.62.49-3.28.81-4.95,1.03-.35.05-.75.05-1.07-.07-1.13-.43-2.38-.54-3.41-1.26-.19-.13-.41-.21-.68-.17-2.13.35-3.94-.32-5.75-1.45-.89-.55-1.91-1.16-3.05-1.17-.57,0-1.15.16-1.72.24-.52.08-1,0-1.48-.24-.27-.13-.43-.33-.31-.55.32-.57-.19-.99-.23-1.5-.03-.38-.51-.47-.96-.41-1.2.16-2.32-.02-3.2-.95-.08-.09-.21-.15-.25-.25-.16-.43.19-1.25-.76-1.06-.55.11-1.03-.18-1.59-.12-.93.1-1.92,0-2.81-.37-.8-.34-1.08-1.21-1.49-1.87-.5-.81-1.1-1.56-1.56-2.41-.36-.65-1.17-.19-1.69-.08-1.07.22-1.9.08-2.7-.7-.44-.43-.57-.87-.6-1.43-.07-1.24-.27-1.3-1.44-.94-1.03.32-2.11.59-3.18.61-.85.02-1.57-.69-1.98-1.38-.46-.77-.32-1.69.19-2.48.19-.3.39-.35.62-.03.11.14.25.26.38.39.96,1,1.54,1.06,2.83.43,1.4-.68,2.86-.56,4.12.26.52.34.99,1.08.89,1.87-.09.68.32.7.76.61,1.42-.3,2.75-.85,4.08-1.39.18-.07.19-.21.16-.37-.02-.12-.09-.26-.05-.35.41-.92.6-1.86.65-2.89.03-.59.63-.89,1.31-.8.56.08.79-.03.61-.74-.36-1.4.19-2,1.63-1.99.21,0,.43-.04.64-.01.52.05.8-.01.8-.69,0-.63.21-1.29,1.09-1.4.39-.05.76-.33,1.13-.5Zm17.84,6.64c.49-.39,1.02-.38,1.6-.24.28.07.6.06.89.02.28-.03.74.17.8-.15.07-.37-.27-.64-.65-.85-1.78-.99-3.8-.87-5.6-.65-3.49.42-6.65-.02-9.59-1.93-.63-.41-1.21-.88-1.85-1.27-.45-.28-.94-.61-1.44-.7-.35-.06-.36.57-.65.78-.22.16-.45.35-.7.4-.62.14-.76.37-.61,1.06.37,1.7.02,2.07-1.65,2.1-.4,0-.76.11-.67.69.07.44.13,1.02-.26,1.28-.98.66-1.49,1.59-2.01,2.62-.43.84-.57,1.01.34,1.44.76.35,1.52.7,2.27,1.09,2.23,1.15,4.36,2.71,7.12,2.11.19-.04.41.04.62.07.72.12,1.36-.1,1.73-.68.37-.57.81-.78,1.44-.92.76-.18,1.5-.17,2.25-.13,2.17.12,4.25-.17,6.19-1.22.14-.08.41-.03.4-.28,0-.19-.2-.29-.37-.36-.71-.3-1.14-.95-1.73-1.41-.26-.2-.28-.49-.03-.7.24-.2.37.04.49.21.45.61,1.22.75,1.78,1.18.78.61,1.37.35,1.94-.27.2-.22.4-.45.58-.69.24-.33.83-.63.6-1.02-.27-.47-.89-.67-1.45-.78-.35-.07-.73-.05-1.07-.13-.35-.09-.71-.22-.73-.69v.02Zm4.36,13.6c.23.1.59.3.98.4,1.4.35,1.79,1.49.9,2.62-.2.26-.36.56-.47.87-.06.18-.04.5.31.33.72-.36,1.52-.49,2.22-.94,1.44-.92,3.01-1.64,4.76-1.18,1.77.46,3.56.7,5.36.91.43.05.94.1,1.41-.1.66-.28,1.33-.5.49-1.34-.17-.17-.31-.49-.29-.73.03-.29-.08-.83.48-.75.5.06,1.09.12,1.38.57.54.86.85.96,1.77.22.85-.68.76-1.64,1.31-2.33.09-.12,0-.24-.13-.27-1.5-.3-2.48-1.54-3.81-2.13-.57-.25-.81-.8-.63-1.31.24-.64.85-.55,1.4-.33.87.33,1.76.63,2.48,1.25.15.12.32.25.48.15.18-.12.07-.34.02-.5-.32-1.09-.92-1.78-2.16-1.97-2.24-.33-4.43.13-6.65.19-1.98.06-3.97.31-5.95.18-1.3-.08-2.61-.31-3.82-.87-.39-.18-.52.09-.91.25,1.42.35,2.66.74,3.6,1.69.53.53.68,1.14.33,1.89-.51,1.08-1.43,1.63-2.49,1.69-.92.05-1.5.45-2.04,1.06-.14.15-.23.35-.33.5Z"/><path class="cls-1" d="m294.29,49.54c-.11-.84-.9-.79-1.39-.88-.83-.15-1.21-.62-1.41-1.32-.14-.5-.31-.76-.92-.74-.77.03-1.61-.03-2.05-.83-.36-.65-.95-1.29-.36-2.13.21-.3-.1-.34-.28-.41-.56-.22-1.11-.57-1.68-.61-.99-.06-1.18-.82-1.53-1.44-.25-.44.16-.62.45-.82,1.19-.84,2.56-1.06,3.95-1.24.79-.1,1.55-.35,2.48-.28-.29-.38-.52-.58-.62-.84-.42-1.07-.18-1.56.95-1.88.9-.25,1.83-.3,2.77-.32.77-.02,1.54.06,1.84-1.02.14-.53.82-.77,1.44-.77,1.58,0,3.18.19,4.74-.27.18-.05.41-.05.43.18.03.41-.2.7-.59.81-.67.18-1.34.36-2.03.45-.39.05-.45.09-.31.48.23.65-.12,1.12-.67,1.41-.9.48-1.84.87-2.9.84-.45-.01-.8,0-.59.7.23.77-.3,1.32-.98,1.58-1.25.48-2.52.89-3.82,1.34.43.78,1.05,1.44,1.03,2.38,0,.16.2.44.36.48,1.05.32,1.86.82,1.8,2.22.53-2.17,2.34-1.56,3.57-1.78.99-.18,2.22.14,2.51,1.75.48-.84,1.05-1.24,1.77-1.5.52-.19.78-.11,1.12.35.78,1.05.62,2.39,1.31,3.59.62-.81,1.45-1.28,2.39-1.64-.45-.36-.85-.67-1.24-1-1.48-1.27-1.79-3-1.72-4.79.04-1.05.77-1.45,1.78-1.11.7.24,1.2.4,1.54-.51.2-.55.76-.74,1.37-.49,1.07.44,2.24.68,2.98,1.74.17.24.71.76.78-.22.04-.55.42-1,1.05-1.09.78-.11,1.5.17,1.88.8.34.56.92.75,1.32,1.19.28.31.62.05.92-.09,1.03-.47,1.25-.25,1.73.71.33.65,1.06,1.15,1.82,1.4.95.31,1.76,1.38,1.5,2.26-.14.47-.67.84-1.21.78-.35-.04-.69-.05-.78.23-.42,1.35-1.56,1.04-2.48,1.07-.5.01-.82.06-1.26.39-.73.54-1.62.96-2.58.96-1.6-.01-2.72.84-3.58,2.02-.37.51-.79.95-1.28,1.21-.48.25-.51.38-.22.78.89,1.25.55,2.5-.08,3.72-.21.41-.39.8-.28,1.29.22.97-.43,1.9-.18,2.89.04.16-.06.37-.28.4-1.32.19-.4.77-.11,1.02.53.47.87.94.88,1.69,0,.51-.01.95-.55,1.18.27.37.63.32.93.41,1.32.37,2.18,1.17,2.21,2.58.02,1.12.69,1.89,1.24,2.73.17.25.48.46.3.77-.18.3-.57.3-.9.29-.28-.01-.65-.37-.81-.03-.15.32.14.77.4.94.87.58,1.42,1.52,2.34,2.01.83.44,1.33,1.31,2.26,1.61.16.05.2.19.4-.04.79-.93,1.54-.94,2.64-.37.92.47,1.89.1,2.77-.24.92-.35,1.74-.93,2.71-1.21.84-.24,1.12-.92.82-1.71-.2-.54-.13-.94.24-1.32.81-.86,1.51-1.78,2.46-2.56,1.02-.83,2.04-1.67,3.17-2.34,1.22-.72,1.84-2.02,2.97-2.8.18-.12.33-.45.6-.23.23.19.08.44-.05.66-.2.34-.4.68-.72.92-1.4,1.06-2.75,2.2-4.1,3.31-1.12.92-2.38,1.91-3.06,3.33-.18.38-.17.68.02,1.02.25.47.76.94.54,1.46-.35.83-.95,1.68-1.82,1.89-1.07.26-1.8,1.01-2.72,1.47-1.12.56-2.28.92-3.51,1.09-.35.05-.57.04-.69.48-.23.84-.83,1.08-1.6.67-.9-.48-1.7-1.12-2.5-1.76-1.33-1.07-2.59-2.24-4-3.19-1.18-.8-2.14-1.94-3.57-2.39-.3-.09-.41-.43-.58-.67-.86-1.28-2.36-1.94-3.21-3.21-.76-1.12-1.8-1.97-2.59-3.09-1.73-2.45-2.4-5.38-3.88-7.92-.81-1.39-1.72-2.72-2.58-4.08-.85-1.36-1-2.91-1.12-4.46-.02-.23.2-.45.51-.27.09.11.24.21.27.33.54,1.97,1.67,3.59,2.86,5.21.82,1.12,1.81,2.13,2.42,3.4,1.23,2.55,2.08,5.33,4.09,7.41,1.14,1.17,2,2.67,3.56,3.41.36.17.63.4.92.67.67.64,1.41,1.21,2.13,1.81-.48-.71-.85-1.45-.87-2.26-.03-1.06-.64-1.41-1.53-1.59-.48-.1-.88-.35-1.29-.62-.85-.56-1.03-1.33-.33-2.05.52-.54.39-.95.04-1.5-.4-.62-.86-1.18-1.14-1.9-.36-.94-.87-1.86-1.44-2.67-1.04-1.51-1.75-3.23-3.01-4.6-.6-.65-.92-1.65-2.1-1.46-.75.12-1.05-.41-1.47-.93-.73-.93-1.62-1.73-2.45-2.58-.2-.2-.43-.19-.67-.08Zm14.37-2.45c.12-.08.26-.12.31-.2.1-.18-.1-.14-.18-.17-.13-.06-.22-.01-.22.14,0,.07.05.14.09.24Z"/><path class="cls-1" d="m339.79,55.32c.63.42,1.15.46,1.68.03.34-.28.7-.49,1.15-.24.37.21.71-.11,1.04-.09,1.49.08,2.99.14,4.48.35,2.24.32,4.47.51,6.77-.09,2.06-.54,3.02-1.9,3.81-3.62.06-.14.12-.27.19-.4.43-.81.27-1.31-.56-1.62-1.66-.62-3.16-1.56-4.69-2.43-.88-.5-.68-1.26-.73-1.94-.04-.53.58-.59.94-.69.73-.2.79-1.11,1.55-1.28,1.28-.28,2.45-.98,3.81-.96,1.53.02,2.89,1.38,3.16,2.88.22,1.26.17,2.43-.25,3.62-.28.78-.58,1.5-1.29,2.02-.56.41-.78,1.09-1.08,1.7-.84,1.67-2.04,3.01-3.8,4.01,1.1.28,1.87,1.01,2.55,1.88.2.26.5.47.57.78.34,1.38,1.25,2.59,1.08,4.12-.23,1.99-1.79,3.92-4.37,2.56-.45-.24-.95-.45-1.3-.79-.48-.48-.83-.27-1.21.03-.7.57-1.51.48-2.34.61-2.28.35-4.25-.7-6.35-1.1-1.76-.33-3.41-1.24-5.15-1.76-1.36-.4-2.57-1.13-3.7-1.84-1.68-1.05-3.79-1.7-4.64-3.8-.1-.25-.35-.32-.58-.4-.69-.22-1.2-.68-1.63-1.23-.24-.31-.56-.63-.35-1.05.19-.38.64-.52,1-.5.53.03.94-.13,1.33-.44.35-.28.76-.18,1.14-.15,2.18.17,4.36.31,6.38,1.31.49.24,1.18.08,1.78.06.3,0,.61-.1.88.09.11.08.07.21-.03.31-.32.34-.61.02-.91-.04-.08-.01-.16.03-.35.07Zm2.13.5c-.05.07-.11.14-.16.21.62.21.76.83,1.1,1.16,1.02.99,2.2,1.81,3.35,2.66,1.13.84,2.49,1.22,3.78,1.71.51.19.93.47.97,1.06.04.58.53.63.74.42.46-.46.73-.15,1.06.07.41.27.86.38,1.34.48.81.17,1.65.17,2.43.55.85.42,1.4.08,1.45-.87.14-2.6-.88-5.06-3.58-6.19-.14-.06-.26-.14-.41-.12-2.89.33-5.7-.24-8.52-.73-1.17-.2-2.36-.26-3.55-.39Zm16.68-11.11s0,0,0,0c-.24,0-.49-.03-.72,0-.39.05-.37.43-.49.69-.08.17-.04.38.13.48.31.18.4-.18.58-.3.31-.21.61-.36,1-.36.25,0,.67.1.65-.27-.02-.32-.45-.2-.7-.26-.14-.03-.3,0-.45,0Zm-3.69,1.28c-.27.17-.41.32-.27.55.03.05.2.09.2.09.08-.18.17-.37.06-.64Z"/><path class="cls-1" d="m265.52,84.01c1.77-.14,3.05.73,4.45,1.07,1.15.28,2.27.69,3.41,1.04.21.07.41.02.6-.1,1.08-.64,2.13-.6,3.18.09,1.45.95,2.86,1.96,4.57,2.48.62.19.86.96,1.49,1.34.75.45,1.49,1.01,2.24,1.48,1.02.64,1.03,1.51.89,2.49-.07.46-1.56,1.56-2.09,1.44-1.11-.26-2.3-.25-3.26-1.11-.4-.36-1.09-.42-1.65-.6-.28-.09-.33.12-.42.34-.4,1.06-1.72,1.32-2.4.4-.32-.43-.78-.7-1.04-1.19-.18-.34-.59-.56-.75.07-.27,1.04-1.1.94-1.82.86-1.03-.11-2.02-.57-3.07.03-.34.2-.83-.04-1.23-.17-.6-.2-1.15-.57-1.82-.05-.29.22-.73,0-1.1-.19-1.22-.63-2.34-1.48-3.78-1.64-.32-.03-.47-.01-.68.2-.67.67-1.42.48-2.16.12-.73-.36-1.13-.91-.92-1.75.12-.46-.09-.81-.26-1.2-.32-.74-.4-1.45.41-1.97.12-.08.23-.22.27-.35.45-1.47,1.57-1.38,2.72-1.14.56.12,1.12.35.72,1.1-.22.41.1.53.27.74.24.29.38.04.59-.07.67-.32.86-.51.53-1.43-.51-1.44-.64-2.2,1.51-2.33.27-.02.54,0,.57,0Zm10.34,6.16c-.53,0-.94,0-1.35,0-.11,0-.26-.07-.27.11,0,.1.06.28.12.29.51.09,1.12.61,1.51-.4Zm-14.25-.8c.33.09.57.16.74-.08.03-.05,0-.22-.03-.23-.25-.06-.43.1-.71.3Z"/><path class="cls-1" d="m305.52,12.23c-.13,1.66-.31,2.93-.73,4.16-.7,2.05-.73,4.15-.65,6.29.04,1.04.14,2.01.6,2.96.19.39.27.89.23,1.33-.09,1.17.06,2.17.96,3.08.96.97,1.11,2.44,1.92,3.54.38.51.28,1.18-.19,1.55-.42.34-.83-.12-1.17-.4-.23-.19-.39-.43-.57-.68-.83-1.17-1.26-2.58-2.35-3.62-.73-.69-.76-1.76-.68-2.73.07-.78,0-1.51-.49-2.14-.34-.44-.33-.94-.35-1.45-.12-2.76-.29-5.52.5-8.22.42-1.42.81-2.82.49-4.31-.17-.79-.33-1.59-.52-2.37-.39-1.56.6-2.91,2.48-2.89,1.56.01,2.97.48,4.09,1.73.6.66,1.33,1.22,2.08,1.76,2.07,1.49,4.26,2.83,5.96,4.86,1.35,1.62,2.27,3.35,2.96,5.28.17.46.6.82.63,1.37.01.23.41.51-.01.68-.28.11-.55-.18-.64-.39-.42-.98-1.15-1.76-1.66-2.67-1.2-2.17-2.96-3.85-5.01-5.16-1.71-1.09-3.45-2.14-5.14-3.26-.45-.3-.84-.68-1.24-1.05-.21-.19-.41-.34-.68-.43-1.15-.37-1.39-.16-1.24.98.11.86.6,1.67.43,2.21Z"/><path class="cls-1" d="m309.64,20.2c.18-.37.33-.76.55-1.11.36-.56.9-.54,1.16.08.32.78.87.98,1.63.83.75-.14,1.1.19,1.08.92-.03,1.42.24,2.85-.2,4.25-.07.22,0,.48,0,.79.53-.2.89-.61,1.56-.35.49.19.66.36.57.77-.22,1-.02,2.04-.34,3.03-.08.23-.1.62-.29.61-.9-.05-1.69.58-2.59.38-.65-.15-.89.15-.93.75-.04.56-.04,1.07-.93.93-.29-.05-1.09.36-.75,1.08.26.54.17,1.16.69,1.84-1.07-.5-1.29-1.45-1.98-1.99-.81-.64-.41-1.55-.22-2.42.11-.48-.03-1.17-.33-1.56-.51-.7-.39-1.5-.63-2.23-.13-.42.23-.67.51-.87.47-.35.42-.6.04-1.01-1.13-1.2-1.73-2.63-1.53-4.29.06-.49.34-.95.44-1.46.17-.81-.04-1.63.19-2.44.18-.67.46-1.07,1.17-1.1.7-.03,1.04.21,1.2.98.26,1.22.08,2.36-.05,3.57Zm1.62,5.87c.36-.22.47-.38.56-.59.51-1.27-.64-3.08-2.27-3.62.39,1.44,1.91,2.41,1.72,4.21Zm2.24,1.58c.02.23.04.46.07.85.28-.4.1-.63-.07-.85Z"/><path class="cls-1" d="m326.23,20.33c-.14-1.11-.79-2.01-.6-3.34.33-2.3.97-4.56.7-6.99-.25-2.26.53-4.31,2.68-5.73.89-.59,1.74-1.6,1.72-2.92,0-.56.2-1.08.76-1.2.59-.12,1.18-.39,1.79.31,2.46,2.78,3.95,6.02,4.09,9.66.08,2.14.65,4.39-.23,6.53-.18.43-.14,1.13-.68,1.13-.56,0-.67-.67-.77-1.17-.04-.21-.07-.42-.05-.63.28-2.6-.2-5.11-.73-7.65-.36-1.74-1.36-3.07-2.27-4.49-.1-.16-.21-.35-.39-.09-.98,1.48-2.59,2.33-3.7,3.68-.69.84-.73,1.89-.67,2.83.11,1.74-.27,3.3-.95,4.89-.55,1.29-1.09,2.68-.59,4.17.1.3.15.65-.11,1Z"/><path class="cls-1" d="m329.13,27.25c-1.49-.16-2.66.97-4.08.77-.35-.05-.87.38-1.03-.24-.16-.58.04-1.01.74-1.07.35-.03.47-.27.51-.63.07-.61.48-.89,1.08-.81.71.09,1.38-.21,2.05-.24.85-.04,1.86-.35,2.55.51.35.44.87.3,1.3.48,2.06.87,3.88,2.25,5.23,3.87,1.12,1.35,2.73,2.72,2.61,4.88-.03.51.76.75.71,1.4-.02.25.08.51-.02.78-.2.54-.39,1.06-.31,1.69.07.53-.45,1.06-.87.94-.5-.14-1.26-.5-1.12-1.23.22-1.25-.31-2.23-.86-3.24-.35-.65-.19-1.39-.73-2.1-.7-.92-1.75-1.6-2.12-2.76-.03-.08-.07-.23-.11-.23-1.41-.04-1.76-1.54-2.82-2.06-.24-.12-.39-.27-.56.05-.13.25-.29.49.08.68.11.05.26.07.33.15.21.24.79.06.72.53-.07.45-.57.47-.89.45-.87-.05-1.73.24-2.6.02-.34-.08-.88.03-.89-.41,0-.47-.04-1.03.4-1.42.24-.21.57-.35.71-.75Z"/><path class="cls-1" d="m253.07,79.1c.03-1.72,1.29-2.47,2.84-1.68.93.48,2.37.28,3.2-.37.56-.44,1.23-.71,1.91-.33,2.25,1.24,3.28,3.42,1.64,5.7-.35.49-1.07,1.25-2.02,1-.19-.05-.36-.06-.52.05-1.44,1.05-2.36-.08-3.23-.89-.78-.72-1.41-1.43-2.58-1.62-.74-.12-1.36-.88-1.23-1.86Z"/><path class="cls-1" d="m332.03,11.61c.57-.41.95-.92,1.49-1.27.54-.36.73-.05.77.4.03.35-.02.73-.13,1.07-.25.76-.27,1.42.53,1.87.23.13.35.38.36.6.14,1.87.61,3.74.02,5.6-.15.48-.3.96-.7,1.34-.28.26-.53.54-.93.32-.37-.19-.73-.4-.72-.93.02-.76.09-1.51.25-2.25.04-.2.19-.45,0-.59-.26-.2-.5.07-.75.13-.3.07-.36.29-.27.56.1.31.2.61.35,1.05-.99-.4-1.41-1.27-2.08-1.84-.34-.28-.34-1.03.22-1.43.25-.18.41-.38.29-.68-.25-.61-.27-1.37-.59-1.84-.68-.99-.56-2.05-.6-3.09-.04-.89.14-1.79.26-2.68.07-.52.3-.95.94-.85.62.11,1.27.16,1.36,1.04.12,1.16.15,2.31-.07,3.47Zm1.18,3.8c-.33.03-.31.27-.27.46.06.25-.18.67.27.71.27.02.37-.33.33-.53-.05-.22.02-.57-.33-.64Z"/><path class="cls-1" d="m328.38,23.04c.01-.07-.01.02-.02.11-.09,1.78-.4,1.92-2.04,1.06-.75-.4-1.63-.28-2.45-.26-.48.01-.84.08-.77-.6.07-.7-.52-1.19-.83-1.69-.43-.7,0-.67.35-.84.77-.35,1.58-.27,2.38-.15.98.15,1.91.06,2.9-.18,1.64-.4,3.23-.09,4.46,1.25.33.35,1.55.3,1.89-.05.44-.46.83-.26,1.12.16.99,1.43,2.36,2.53,3.31,4.02.45.71.91,1.6,1.76,2.16.4.26.39,1.13.85,1.58.05.05.01.25-.05.33-.06.06-.29.09-.31.06-.22-.46-.94-.47-.98-1.11-.05-.98-.53-1.21-1.51-1.07-.5.08-1.18-.18-1.62-.68-.25-.28-.6-.56-.78-.83-.82-1.18-2.22-1.62-3.15-2.63-.33-.36-.72-.65-1.21-.76-.78-.18-1.58-.25-2.31-.67-.33-.19-1.12-.32-.99.78Z"/><path class="cls-1" d="m193.96,87.69c.14.22.24.45.4.62.34.36.42.9.2,1.17-.61.77-.53,1.9-1.43,2.5-.33.22-.6.56-.7,1.01-.24,1.06-.49,1.18-1.55.89-.96-.26-1.81-.83-2.74-1.09-.95-.26-1.1-.82-1.22-1.62-.08-.56.06-.74.59-.69.6.06,1.28.29,1.25-.75,0-.23.29-.37.53-.45.2-.06.44-.05.45-.34.03-.71.41-1.07,1.1-1.14.49-.04.36-.4.34-.68-.08-1.36.18-1.65,1.52-1.71.41-.02.9.1.72-.64-.11-.47.3-.59.66-.7,1.21-.36,2.23.32,3.31.64.29.09.26.36.23.61-.05.41-.29.72-.69.72-.73,0-1.11.17-1.28,1-.16.73-1.04.33-1.69.62Z"/><path class="cls-1" d="m336.73,36.84c.35.96-.37,1.44-.98,1.82-1.16.72-2.47,1.1-3.85,1.19-.36.02-.66-.09-.81-.46-.14-.37.11-.58.37-.74.79-.5,1.42-1.18,2.1-1.8.17-.15.33-.32.23-.54-.16-.36-.33.05-.49.03-1.52-.12-2.52,1.01-3.78,1.53-.61.25-.82.82-1.09,1.37-.14.29-.28.86-.83.59-.5-.24-.17-.7-.05-.95.75-1.48,1.33-3.08,2.85-4.03.49-.31,1.03-.32,1.56-.41.76-.13,1.51-.38,2.26-.52.87-.16,2.44,1.43,2.5,2.35.01.18,0,.36,0,.55Z"/><path class="cls-1" d="m205.86,77.79c-.02-1.21.45-1.59,1.5-1.86.91-.23,1.9-.22,2.72-.85.64-.49,1.37-.14,1.89.29.49.4.94.68,1.58.74.7.07.88.84,1.35,1.25.11.09.03.29-.1.4-.16.14-.33.09-.5,0-.68-.38-1.35-.77-2.04-1.13-.57-.3-.77-.3-.94.51-.2.96-.57,1.92-.88,2.88-.05.15-.2.3-.35.4-.73.5-2.51.18-3.01-.54-.47-.68-1.09-1.29-1.23-2.08Z"/><path class="cls-1" d="m345.65,34.19c-.09.76-.18,1.47-.26,2.19-.16,1.45.5,1.53,1.87,2.16,2.53,1.17,5.26,1.81,7.79,2.98.35.16.72.07,1.06.14.37.08.72.35.58.76-.14.42-.5.11-.77.05-1.78-.36-3.48-1.41-5.28-1.27-1.69.13-2.86-.92-4.32-1.19-.43-.08-.63-.43-.83-.78-.29-.48-.46-1.05-1.01-1.35-.18-.1-.26-.32-.27-.55-.05-1.24-.71-2.23-1.29-3.26-.34-.6-.53-1.28-.78-1.93-.06-.15-.19-.37.03-.48.18-.09.37.04.47.18.33.45.98.49,1.26,1.01.13.25.26.07.42-.03.94-.59,1.08-.52,1.26.6.04.27.05.54.07.76Z"/><path class="cls-1" d="m340.23,45.26c-.74-.22-1.33.23-1.56.6-.73,1.18-1.63.72-2.48.4-.36-.14-.73-.18-.91.01-1.01,1.07-1.97.66-2.9-.06-.69-.54-1.38-.63-2.17-.24-.27.14-.63.08-.72-.31-.08-.34.15-.47.45-.54,1.1-.26,2.15-.34,3.08.5.42.37.81.43,1.33-.03.71-.63,1.63-.75,2.5-.24.33.19.53.21.78-.04.59-.56,1.25-.97,2.03-1.25.87-.32.93-.71.41-1.52-.41-.64-.81-1.28-.47-2.1.1-.25.2-.42.51-.4.35.02.22.25.26.44.09.47.19.96.51,1.33.68.78.6,1.74.65,2.65.05.99-.8.7-1.28.8Z"/><path class="cls-1" d="m318.23,80.83c.32.37.79.4,1.18.63,1.29.78,2.07,2.07,3.14,3.04,1.02.93,1.69,1.98,2.08,3.28.17.56.01.89-.42,1.13-.46.25-.88.17-1.16-.31-.8-1.37-1.58-2.76-2.39-4.13-.58-.96-1.03-2.03-2.14-2.57-.23-.11-.38-.38-.57-.57-.1-.09-.15-.19-.04-.3.08-.08.19-.13.33-.22Z"/><path class="cls-1" d="m324.32,61.23c-.28-.41-.98.18-1.07-.56-.08-.63.39-.62.8-.83.42-.21.95-.44,1.08-1.1.12-.62,2.03-1.18,2.57-.82.22.14.32.36.27.62-.08.43-.25.9-.71.95-.92.09-1.43.74-2.05,1.27-.24.21-.57.3-.89.46Z"/><path class="cls-1" d="m197.01,81.6c.25.05.66-.04.64.48-.01.47-.25.74-.72.75-.48.02-.73-.26-.75-.72-.01-.55.41-.5.83-.51Z"/><path class="cls-1" d="m329.21,45.71c-.32.45-.41.82-.92.71-.76-.15-1.16-.64-1.43-1.32.63.59,1.4.66,2.35.61Z"/><path class="cls-1" d="m331.49,43.51c.53-.4.95-.84,1.6-.58.17.07.34.21.31.4-.01.09-.21.2-.34.23-.5.11-1.01.18-1.57-.05Z"/><path class="cls-1" d="m342.06,30.91c-.03.18-.03.43-.27.39-.33-.06-.33-.39-.35-.65-.01-.18.08-.41.3-.34.25.08.33.34.31.6Z"/><path class="cls-1" d="m326.13,45.88c-.05-.33-.23-.7.13-.98.04-.03.19-.01.21.03.21.4-.13.65-.35.96Z"/><path class="cls-1" d="m321.63,21.09c.05.06.16.13.18.22.02.2-.11.32-.31.33-.14,0-.2-.1-.17-.23.03-.14.07-.29.3-.32Z"/><path class="cls-1" d="m213.44,75.89c-.09-.23-.28-.45-.05-.71.26.24.07.48.05.71Z"/><path class="cls-1" d="m164.84,111.12s-.09-.08-.14-.12c.07-.08.14-.16.2-.23.06.05.15.09.16.15.03.13-.03.22-.23.21Z"/><path class="cls-1" d="m160.92,97.67c-.07.19-.23.3-.4.31-.15,0-.29-.12-.24-.3.05-.19.18-.32.39-.3.16.01.27.11.26.3Z"/><path class="cls-1" d="m327.39,94.19c-.07.06-.13.13-.2.19-.3.23-.57.04-.83-.07-.14-.06-.07-.24.03-.3.27-.15.51-.05.75.12.07.05.16.06.25.08,0,0,0-.02,0-.02Z"/><path class="cls-1" d="m351.54,59.32c1.36-.6,5.03,2.24,5.86,3.56-2.07-.91-3.59-2.7-5.86-3.56Z"/></svg>