<?xml version="1.0" encoding="UTF-8"?><svg id="Layer_1" xmlns="http://www.w3.org/2000/svg" viewBox="0 0 223.17 310.77"><defs><style>.cls-1{fill:none;stroke:#fff;stroke-miterlimit:10;}.cls-2{fill:#fff;stroke-width:0px;}</style></defs><path class="cls-2" d="m81.76,191.61c-.49.03-1.25-.17-1.52-.52l-2.29-.96c-1.51-.4-2.8-1.18-4.3-1.45-.12,0-.5-.09-.76-.2-.53-.58-1.43-1.02-2.07-1.35-.77-.44-1.29-.78-1.92-.99-1.18-1.04-2.59-1.69-3.54-2.99l-1.17-.91c0-.12-.26-.23-.53-.46-.13-.12-.27-.35-.41-.59-.7-1.19-1.98-1.85-2.56-3.17-.29-.6-.83-1.31-1.24-1.9-.45-1.21-1.24-1.9-1.8-2.98-.43-.84-.74-1.81-1.17-2.77l-.85-1.68c-.02-.25-.28-.48-.3-.73-.1-1.48-.92-2.79-1.15-4.38-.1-1.6-.32-3.07-.67-4.54-.19-.98-.24-1.72.07-2.73l.13-3.72c.05-1.12.23-2.24.42-3.12.17-1.13.36-2.01.79-3.02.4-1.39,1.06-2.79,1.08-4.28.11-.25.21-.63.32-.76.66-1.28,1.09-2.3,1.24-3.79.11-.26.33-.64.56-.9.67-1.16,1.33-2.32,1.62-3.57.21-.51.44-.77.78-1.29.44-.77.89-1.54,1.2-2.43.11-.26.21-.63.43-1.02,1.26-1.57,2.38-3.37,3.63-5.06.58-.66,1.02-1.43,1.73-1.97.35-.27.69-.79,1.04-1.18.8-1.04,1.59-2.21,2.63-3.27.68-.91,1.62-1.72,2.31-2.63,1.41-1.08,2.56-2.52,4.2-3.86.47-.4,1.42-.96,2.25-1.51.24-.14.48-.28.59-.41.84-.43,1.41-1.21,2.23-1.88.58-.53,1.56-.72,2.14-1.38.24-.14.22-.39.08-.63-.13-.12-.26-.23-.39-.22-1.27-.54-2.77-.69-4.05-1.35-1.51-.4-3.03-.92-4.53-1.07-2.37-.34-4.75-.68-7.34-.51-2.22.14-4.44.29-6.77.56-.62.04-1.36.09-1.84.24l-3.05.7c-1.33.46-2.42.9-3.61,1.6-1.31.83-2.76,1.29-3.81,2.35-.82.67-1.65,1.35-1.95,2.36-.22.39-.56.9-.77,1.41-.56.9-.98,2.04-1.65,3.2.06.86.09,1.36,0,1.86.02.25-.08.75-.05,1.12-.32.76-.77,1.41-1.63,1.59-.36.15-.85.18-1.47.22-.25.02-.5-.09-.63-.21l-1.21-1.41c-.4-.47-.55-.83-.59-1.45-.07-1.11-.01-2.1-.07-2.97.29-1.26.6-2.14,1.16-3.05.68-1.03,1.22-2.18,2.02-3.23.17-1.12,1.11-1.93,2.05-2.73,1.05-.93,2.1-1.99,3.16-2.8.95-.56,1.78-1.11,2.62-1.53,1.45-.59,2.51-1.4,3.84-1.86,1.2-.57,2.79-.8,4.13-1.14,1.82-.61,3.66-.86,5.64-.86l.74-.05c3.07-.32,6.29-.29,9.29.14.76.2,1.5.15,2.25.35,1.75.26,3.5.51,5.38.89.38.1.63.21,1.02.43,1.41.78,2.91.93,4.42,1.32,1.26.41,2.55,1.07,3.93,1.48.76.2,1.24.04,1.83-.37,1.54-1.09,2.84-2.04,4.29-2.63,1.28-1.2,2.75-1.54,4.05-2.37.72-.29,1.56-.72,2.4-1.15.71-.54,1.55-.84,2.52-1.15l2.76-1.29c.6-.29,1.32-.71,2.17-.88,1.35-.21,2.67-.79,3.87-1.37.48-.15.97-.31,1.46-.34,2.57-.42,5.01-1.07,7.59-1.24.86-.06,1.83-.37,2.7-.3,1.63.27,3.34.03,4.98.42,1.13.3,2.24.22,3.49.39,1.26.29,2.77.69,3.93,1.35,1.27.54,2.43,1.2,3.84,1.85.76.32,1.3.9,1.82,1.37.95,1.3,2.01,2.34,2.85,3.78.41.59.57,1.08.49,1.82.04.62-.04,1.24,0,1.86-.15,1.5-.56,2.76-1.22,4.04-.24.14-.35.39-.46.53-.82.8-1.52,1.34-2.08,2.24-.11.26-.35.27-.59.41-.12.13-.36.15-.48.28-1.42.96-2.97,1.93-4.51,3.02-.12.13-.35.27-.72.29-1.59.23-2.89,1.3-4.73,1.42-.25.02-.61.16-.97.31-1.46.47-2.57.54-3.92.63-1.98,0-3.82.25-5.67.37-1.84.24-3.7.24-5.44.11-1.63-.26-3.11-.29-4.73-.43-2.78-.93-5.8-1.6-8.83-2.52-1.76-.38-3.4-.89-5.17-1.52-1.15-.54-2.66-.94-3.93-1.35-.99-.06-1.98,0-2.7.42-.47.4-1.07.69-1.66,1.1-.11.26-.46.53-.82.67-1.57.6-2.63,1.41-3.79,2.6-.46.52-1.06.81-1.54,1.09-1.42.96-2.85,1.92-3.87,3.22-.23.26-.46.53-.82.8-1.31.83-2.22,2-3.38,3.19-2.99,3.54-3.1,3.67-5.49,6.92-.45.77-1.01,1.55-1.47,2.2-1.49,1.83-2.23,3.74-3.48,5.55-.1.38-.32.77-.42,1.14-.18,1-.73,2.15-1.02,3.29-.31,1.01-.87,1.91-1.18,2.8-.1.38-.08.75-.17,1.12-.11.26-.08.63-.2.76-.77,1.41-1.29,2.93-1.55,4.68-.1.38-.21.63-.43,1.02-.64,1.53-.68,2.89-.59,4.25-.07.75.1,1.48.03,2.35,0,1.98.5,3.93.76,5.89.74,1.81.96,3.28,1.55,4.85l.27.36c.86,1.8,1.71,3.48,2.69,5.15l1.78,2.61c.54.71,1.07,1.29,1.61,1.88.02.37.29.6.67.82.8.82,1.7,1.37,2.61,2.06.53.46,1.3.9,2.06,1.23.26.23.77.45,1.28.66,1.4.65,2.8,1.18,4.45,1.81,1.03.55,1.92.99,3.15.79.25-.02.62.08,1,.18.5.09.89.31,1.37.16,1.11-.07,3.94-.38,5.06-.2,2.21-.27,4.87-1.31,6.82-1.68,1.09-.44,3.75-1.36,3.87-1.37.83-.55,1.79-.98,2.49-1.65.72-.3,1.43-.84,1.65-1.35.7-.67,1.28-1.2,1.74-1.72.45-.65,1.03-1.3,1.61-1.84.47-.4.81-.8.91-1.17.24-.14.23-.26.22-.39.21-.63.44-.89.89-1.54.1-.38.44-.89.54-1.15.16-1.37.56-2.76.85-4.02l-.06-.86c-.06-.99-.51-2.07-1.18-2.9-.03-.49-.43-.96-.72-1.56-.25-.11-1.04-.8-1.17-.79-.76-.32-1.67-.88-2.55-1.07-.51-.21-1.01-.31-1.63-.39l-2.96.19c-.49.03-1.1.2-1.34.34-.6.29-1.21.45-1.66,1.1-.24.14-.35.39-.71.54-.97.31-2.21.27-2.87-.31-.53-.46-.94-1.18-1.04-2.66-.02-.25.21-.51.33-.64.23-.26.21-.51.33-.64.59-.41,1.18-.94,1.37-1.7.22-.39.47-.4.83-.55,1.69-.61,3.53-.97,5.38-1.09.87.07,1.61.02,2.72-.05.62-.04,1.24.04,2,.24.63.21,1.63.39,2.64.57.13.12.51.22.77.45.63.21,1.27.54,1.67.88.38.1.5.09.64.33,1.06,1.04,2.47,1.82,3.17,3.01.16.61.57,1.08.98,1.67.26.23.28.48.42.72.3.85.49,1.83.66,2.56.3.85.47,1.58.15,2.34-.08.75-.04,1.24,0,1.98.06.86.1,1.48.01,2.1,0,.12.02.25-.22.39-.68.91-.62,1.9-1.17,2.92-.69.79-1.26,1.57-1.7,2.46-.2.76-.89,1.54-1.58,2.33q0,.12-.11.26c-1.98,1.99-3.81,4.21-6.06,5.72-.49.15-.72.42-.94.8-.35.39-.57.78-.92,1.05-.12.13-.35.27-.48.28-1.3.95-2.63,1.41-4.1,1.75-.99.06-1.58.47-2.54.91-.36.15-.96.44-1.34.34-.49.03-1.11.07-1.35.21-.86.06-1.71.36-2.44.53-.73.17-1.46.34-2.45.41-.98.19-2.97.07-3.93.5-.11.13-.25.02-.37.02-1.61-.02-3.34-.03-4.96-.17Zm46.08-85.08c2.48.09,5.03-.7,7.2-1.58.99-.06,1.66-1.1,2.64-1.29.36-.15.72-.3,1.08-.57.36-.15.72-.42,1.08-.57.24-.14.35-.27.47-.4.59-.41.93-.93,1.26-1.57.09-.5.31-1.01.41-1.39.09-.5.05-1.12-.34-1.46-.79-.69-1.58-1.38-2.51-2.44-1.26-.41-2.16-.85-3.29-1.15-2.01-.49-3.91-1.11-6.26-1.08-1.99-.12-3.97-.11-5.93.14-2.34.15-4.53.79-6.84,1.44-.72.3-1.58.47-2.18.76-1.44.71-2.78,1.05-4.35,1.64-1.09.44-2.29,1.02-3.35,1.83-1.2.57-2.26,1.39-3.48,1.71-.83.55-1.42,1.08-2.25,1.63-.12,0-.23.26-.34.52.26.23.39.35.65.45.63.21,1.13.3,1.77.63,1.9.62,3.79,1.12,5.67,1.49l2.14.6c1.02.43,2,.37,3.01.67.25.11.5.09.76.2,3.24.41,6.73.68,10.03.09.98-.19,1.96-.25,2.95-.32Z"/><path class="cls-2" d="m127.29,223.82c-1-.18-1.5-.15-3.84,0-1.85.12-3.47-.02-5.34-.27-1.37-.16-2.74-.19-4.11-.35-.75-.08-1.26-.29-1.89-.5-.64-.33-1.16-.67-1.66-.76-1.89-.5-3.93-1.48-6.52-3.17-.79-.69-1.17-.91-1.56-1.14-.88-.19-1.38-.28-1.74-.13-.72.42-1.56.72-2.01,1.37-.34.52-.82.8-1.41,1.21-3.36,1.7-4.92,2.43-6.63,2.78l-1.69.73c-.86.06-1.61-.02-2.35.03-.75-.07-1.62-.14-2.25-.35-.62-.08-1.26-.41-1.88-.37-1.49-.03-2.65-.82-3.93-1.48-.5-.09-.9-.56-1.44-1.14-.8-.81-1.47-1.64-2.15-2.58-.95-1.3-1.3-2.89-1.03-4.39.07-.75.28-1.38.35-2.25.93-.93,2.12-1.62,3.04-2.67,1.29-1.07,2.62-1.66,3.92-2.48.35-.27,2.79-.93,3.65-.98.99-.06,1.98,0,3.09-.08,1.38.28,2.79,1.05,4.29,1.2.5.09.89.31,1.4.53,1.92.99,4.07,1.59,5.97,2.33.61-.16,1.09-.44,1.55-.97.55-1.03,1.24-1.81,1.81-2.59,1.27-1.44,2.29-2.87,3.52-4.93.2-.76.65-1.4,1.69-2.58.46-.53.79-1.17.98-2.05.56-.9.85-2.16,1.54-2.95.67-1.03,1-1.8,1.4-3.19.19-.88.64-1.53.96-2.42.09-.5-.34-1.46-.84-1.55l-1.66-.76c-1.76-.38-3.17-1.15-4.71-1.92l-.79-.69c-.26-.23-.52-.34-.91-.68-1.82-1.37-3.41-2.87-4.5-4.53-1.48-1.76-2.71-3.54-4.05-5.18-.16-.49-.43-.84-.7-1.19-.51-2.07-1.49-3.87-2.13-6.05-.09-1.36-.08-3.09-.3-4.68l-.06-.86c-.06-.99.1-2.24.15-3.35l.38-1.76c.53-1.4,1.06-2.67,1.35-4.05.3-1.13.63-1.77,1.08-2.42.86-2.04,2.11-3.73,3.11-5.53,1.71-2.22,3.05-4.53,5.17-6.15.23-.26.47-.4.58-.53.77-1.41,2.32-2.38,3.37-3.44.69-.79,1.4-1.33,2.11-1.75,2.5-1.52,4.87-3.16,7.51-4.45.36-.15.72-.42,1.09-.44,1.33-.46,2.53-1.03,3.86-1.49.49-.16.96-.43,1.32-.58.24-.14.36-.15.85-.18,1.34-.34,2.68-.67,4.03-.88.48-.16.98-.19,2.33-.28.98-.19,1.96-.25,2.94-.44.36-.15.73-.17,1.47-.22,2.35-.03,4.57-.17,6.92-.2,1.11-.07,2.22-.14,3.36.28,1.25.17,2.51.46,3.76.75.63.21,1.26.29,1.87.25,2.6.08,5.03,1.16,7.43,1.87l2.68,1.31c.51.21.89.44,1.41.77,2.32,1.46,4.65,3.04,6.97,4.37.89.44,1.31,1.15,2.09,1.72,1.16.67,1.69,1.25,1.97,1.73.16.49.42.72.8.82,1.42.9,2.12,2.21,3.07,3.39.94,1.05,1.51,2.25,1.97,3.59.47,1.46.92,2.66,1.5,3.99.32,1.09.76,2.18.96,3.28.06.86.24,1.84.54,2.56.43.84.48,1.7.66,2.56.1,1.48.32,3.07.42,4.55.14.24.05.74-.03,1.49-.12,1.99-.17,3.11.03,4.21.17.73.11,1.73.07,2.97l-.32,2.74c.02.25.03.49.05.74-.69,2.64-.77,5.25-1.84,7.79-.21.51-.3,1.13-.47,2.26l-.63,1.77c-.87,1.91-1.6,3.94-2.46,5.98-.11.25-.33.64-.31,1.01-.29,1.26-.85,2.16-1.28,3.18-1.14,1.44-1.65,3.2-2.8,4.51-.58.66-.78,1.29-1.11,1.93-.68,1.03-1.36,1.94-1.95,2.36-.81.8-1.4,1.33-1.85,1.98-.33.64-.67,1.16-1.37,1.82-2.68,2.53-4.31,4.12-6.56,5.75-.93.93-2.22,2-3.88,3.1-.83.55-1.65,1.34-2.48,1.77-.85.3-1.43.84-2.26,1.39-1.54,1.09-3.36,1.7-5.16,2.44l-2.91.93c-.48.16-1.22.33-1.82.61-1.58.48-3.16.95-4.75,1.18-.6.29-1.09.32-1.83.37-1.1.2-1.94.62-3.05.7-1.73-.01-3.45.23-5.19.09Zm-38.17-6.3c.49-.16,1.1-.2,1.58-.48,1.45-.59,2.89-1.3,3.96-1.99.35-.39.56-.9.42-1.14-.13-.12-.28-.48-.53-.58-3.06-1.29-5.46-2.12-7.85-2.71-.51-.22-.88-.19-1.86,0-1.46.47-2.65,1.16-3.46,1.96-.35.27-.58.66-.81.92-.35.39-.45.65-.18,1,.29.6.43.96.71,1.44l.79.69c1.8,1,3.43,1.39,5.27,1.14.49-.03,1.35-.21,1.96-.25Zm43.34.15c2.93-.56,4.41-.78,5.99-1.13.49-.03.73-.17,1.09-.32,1.92-.87,4.12-1.38,6.06-2,1.21-.45,2.05-.88,2.75-1.42,2.28-1.14,4.28-2.76,6.42-4.01.36-.15.72-.42.95-.68,1.04-1.06,1.64-1.47,2.34-2.01,1.3-.95,2.33-2.26,3.62-3.33l.81-.8c.23-.26.35-.27.58-.53,1.94-2.6,4.13-4.97,5.67-8.04.78-1.29,1.46-2.32,1.99-3.72.76-1.66,1.62-3.57,2.69-6.24.83-2.53,1.33-4.3,2.02-6.94.17-1.12.36-2,.67-3.01.72-2.28.94-4.52.8-6.74-.2-1.22-.25-1.96.08-2.6.22-.39.08-.75.05-1.12-.08-1.23-.1-1.6,0-1.98.23-2.12-.4-4.18-.54-6.4.1-.38-.17-.73-.19-.98l-.47-1.58c-1.01-4.14-2.5-8.01-4.71-11.45-1.18-1.04-2.25-2.21-3.42-3.12-.66-.7-1.32-1.28-1.98-1.85-1.4-.53-2.33-1.58-3.5-2.37-1.04-.8-2.08-1.47-3.23-2.02-1.28-.66-2.69-1.31-4.09-1.96-.76-.2-1.27-.54-2.15-.73-1.64-.51-3.42-1.14-5.04-1.41-1.9-.62-4.64-.93-6-.85-3.85-.12-6.68.06-9.12.59-1.47.22-2.82.43-4.18.4-.86.06-1.72.24-2.69.55-.61.16-1.21.45-2.42.9-.98.19-1.92.87-2.78,1.05-1.22.33-2.05.88-2.99,1.68-.59.41-.94.8-1.54,1.09-2.04,1-3.93,2.36-5.55,4.08-1.76,1.48-3.04,2.8-3.94,4.09-1.3.95-2.2,2.37-3.09,3.79-.78,1.29-1.7,2.46-1.96,4.09-.09.5-.31.89-.85,2.16-.96,2.29-1.59,4.07-1.73,5.68-.43,1.02-.5,1.89-.37,3.86.37,3.81-.14,3.6,2.34,9.26l4.32,5.54c.53.58,1.07,1.17,1.98,1.85.38.1.77.45,1.17.91,1.7,1.37,3.86,2.22,6.99,2.76q.25-.02.36-.15c.36-.15.59-.41.81-.8.45-.65.78-1.29.98-2.04.32-.76.77-1.53.96-2.41.17-1.13.87-1.91,1.05-2.92.11-.25.21-.51.2-.76.16-1.37.59-2.39,1.39-3.43.44-.77.64-1.53.95-2.54.18-1,.28-1.38.5-1.77.77-1.54,1.91-2.97,2.55-4.62l.55-1.03c.69-.79,1.39-1.45,1.95-2.36.55-1.03,1.24-1.94,1.79-2.96.22-.39.21-.51.33-.64,2.19-2.5,3.71-3.83,5.25-4.92.71-.54,1.42-.96,2.25-1.51l1.69-.61c1.93-.75,4.14-1.01,6.88-.82,0,0,.13.11.25.11.88.19,1.57,1.26,1.25,2.02-.32.76-.54,1.15-.78,1.41-.21.51-.45.65-.82.67-1.72.11-3.3.71-4.75,1.17-.36.15-.85.3-1.09.44-2.26,1.39-2.96,2.05-3.52,2.95-1.25,1.69-2.63,3.39-3.87,5.2-.58.66-.91,1.3-1.24,1.94-.21.51-.31.89-.66,1.28-.9,1.42-1.42,2.94-2.31,4.48-.65,1.4-1.17,2.92-1.93,4.58-.42,1.14-.69,2.64-1.36,3.8-.82,2.65-1.68,4.57-2.69,6.24-.11.25-.09.5-.2.76-.21.63.23,1.59.72,1.56,1.73-.11,2.71-.18,4.21-.03,1.85-.12,3.57-.36,5.28-.72,1.45-.47,2.65-1.04,3.84-1.86.82-.67,1.91-1.11,2.73-1.79.48-.28.95-.68,1.17-1.07,1.38-1.58,1.84-2.1,2.44-2.51.71-.54,1.17-1.07,1.5-1.71.56-.9,1.14-1.56,1.83-2.35.46-.53,1.06-.81,1.68-.85l1.97-.13c.37-.02.89.31,1.16.67.4.47.56.95.22,1.47-.33.64-.77,1.41-.98,2.04-.12.13-.46.53-1.14,1.56-.94.8-1.39,1.45-1.83,2.35-.34.52-.68.91-1.04,1.18-1.28,1.2-2.33,2.26-3.4,2.94-1.18.82-2.25,1.63-3.56,2.34-1.41,1.08-2.85,1.8-4.43,2.27-.48.16-1.22.2-1.71.36-1.32.71-2.79.8-4.02,1-.74.05-1.36-.03-1.98,0-1.47.22-2.71.18-4.09-.11-.62-.08-1.5-.15-2.36-.09-.49.03-.97.31-1.19.7l-.45.77c-.55,1.03-.96,2.29-1.63,3.45-.67,1.16-1.2,2.43-1.86,3.71-1.2,2.56-3.02,5.03-4.33,7.59-.11.26-.22.39-.68.91-1.02,1.43-1.91,2.97-3.06,4.28-.45.65-.91,1.3-1.23,1.94-.23.26-.21.51.05.74,1.87,2.11,4.42,3.18,6.98,4.5,1.12.05,2.27.6,3.39.65.75.08,1.38.28,2.26.47.76.2,1.25.16,1.87.12.62.08,1.24.04,1.87.13,2.99.3,6.06-.02,9.15-.1.74-.05.86-.06,1.1-.2Z"/><ellipse class="cls-1" cx="111.59" cy="155.38" rx="100.24" ry="154.88"/><ellipse class="cls-1" cx="111.59" cy="155.38" rx="111.09" ry="154.88"/><path class="cls-2" d="m110.34,42.47c-.09,0-.26,0-.61-.17-.52-.61-1.38-1.04-1.64-1.73-.17-.43-.26-.61-.26-.78,0-.43.09-.78.52-1.73.43-.61.87-1.04,1.47-1.38.26-.09.52-.09.69-.26.52-.17.87-.43,1.21-.61.52,0,.61,0,.69.09.69.09,1.47.52,2.08,1.12.43.43.61.78.78,1.64.09.09.09.43,0,.52-.17,1.04-.52,1.64-1.3,2.25-.86.61-1.73.95-2.42,1.12-.43,0-.86.09-1.21-.09Z"/><path class="cls-2" d="m110.34,279.78c-.09,0-.26,0-.61-.17-.52-.61-1.38-1.04-1.64-1.73-.17-.43-.26-.61-.26-.78,0-.43.09-.78.52-1.73.43-.61.87-1.04,1.47-1.38.26-.09.52-.09.69-.26.52-.17.87-.43,1.21-.61.52,0,.61,0,.69.09.69.09,1.47.52,2.08,1.12.43.43.61.78.78,1.64.09.09.09.43,0,.52-.17,1.04-.52,1.64-1.3,2.25-.86.61-1.73.95-2.42,1.12-.43,0-.86.09-1.21-.09Z"/></svg>