<?xml version="1.0" encoding="UTF-8"?><svg id="Layer_1" xmlns="http://www.w3.org/2000/svg" viewBox="0 0 180.8 172"><defs><style>.cls-1{stroke-width:0px;}</style></defs><path class="cls-1" d="m52.94,131.49c-.62.04-1.57-.21-1.91-.65l-2.88-1.21c-1.9-.5-3.52-1.48-5.4-1.82-.16,0-.63-.12-.95-.25-.67-.73-1.79-1.28-2.6-1.7-.97-.56-1.62-.98-2.41-1.24-1.48-1.3-3.25-2.12-4.44-3.75l-1.47-1.15c0-.15-.33-.29-.66-.58-.16-.15-.34-.44-.51-.74-.87-1.5-2.48-2.33-3.21-3.99-.36-.75-1.04-1.64-1.55-2.39-.56-1.52-1.55-2.39-2.26-3.74-.53-1.05-.93-2.27-1.47-3.48l-1.07-2.11c-.02-.31-.35-.6-.37-.91-.12-1.86-1.16-3.5-1.45-5.5-.13-2.01-.41-3.86-.84-5.7-.24-1.23-.3-2.15.09-3.42l.16-4.68c.06-1.4.28-2.82.52-3.92.22-1.41.46-2.52,1-3.8.51-1.74,1.33-3.51,1.36-5.37.13-.32.26-.79.4-.96.83-1.61,1.37-2.89,1.55-4.76.13-.32.41-.81.7-1.14.84-1.45,1.68-2.91,2.04-4.49.27-.64.56-.97.98-1.62.56-.97,1.12-1.94,1.51-3.05.14-.32.26-.79.54-1.28,1.58-1.97,2.99-4.24,4.56-6.36.72-.83,1.28-1.79,2.17-2.48.44-.34.87-.99,1.3-1.48,1-1.31,2-2.77,3.31-4.1.86-1.14,2.04-2.15,2.89-3.3,1.78-1.36,3.21-3.16,5.28-4.85.59-.5,1.79-1.2,2.83-1.89.3-.17.6-.35.74-.51,1.05-.54,1.77-1.51,2.8-2.36.73-.67,1.96-.9,2.69-1.73.3-.17.28-.48.1-.79-.17-.15-.33-.29-.48-.28-1.6-.67-3.48-.86-5.08-1.69-1.9-.5-3.81-1.15-5.68-1.34-2.98-.43-5.96-.85-9.21-.64-2.79.18-5.57.36-8.5.71-.77.05-1.7.11-2.31.31l-3.83.87c-1.67.57-3.03,1.13-4.53,2-1.64,1.04-3.47,1.62-4.78,2.95-1.03.85-2.07,1.69-2.45,2.96-.28.49-.7,1.13-.97,1.77-.7,1.14-1.23,2.57-2.07,4.02.07,1.08.11,1.7,0,2.33.02.31-.09.94-.06,1.4-.4.96-.97,1.77-2.05,2-.45.19-1.07.23-1.85.28-.31.02-.63-.11-.79-.26l-1.52-1.77c-.5-.59-.69-1.04-.74-1.82-.09-1.39-.02-2.64-.09-3.73.36-1.58.76-2.69,1.46-3.83.85-1.3,1.53-2.74,2.53-4.05.22-1.41,1.4-2.42,2.57-3.43,1.32-1.17,2.64-2.5,3.97-3.52,1.2-.7,2.24-1.39,3.3-1.93,1.82-.74,3.15-1.76,4.82-2.33,1.51-.72,3.51-1,5.19-1.43,2.28-.77,4.59-1.08,7.08-1.08l.93-.06c3.86-.41,7.9-.36,11.67.17.95.25,1.88.19,2.83.44,2.2.32,4.39.65,6.76,1.11.47.12.79.26,1.28.54,1.77.97,3.65,1.16,5.55,1.66,1.59.52,3.2,1.35,4.94,1.86.95.25,1.56.05,2.3-.46,1.93-1.37,3.56-2.56,5.38-3.3,1.61-1.51,3.45-1.93,5.09-2.98.91-.37,1.96-.9,3.01-1.44.89-.68,1.95-1.06,3.17-1.45l3.47-1.62c.75-.36,1.65-.89,2.73-1.11,1.69-.27,3.36-1,4.86-1.72.61-.19,1.22-.39,1.84-.43,3.23-.52,6.29-1.34,9.54-1.56,1.08-.07,2.3-.46,3.4-.38,2.04.33,4.2.04,6.25.53,1.42.37,2.82.28,4.38.49,1.58.36,3.48.86,4.93,1.7,1.6.67,3.05,1.51,4.82,2.33.96.4,1.63,1.14,2.29,1.72,1.2,1.63,2.52,2.94,3.57,4.74.51.74.71,1.35.61,2.29.05.77-.05,1.56,0,2.33-.19,1.88-.71,3.47-1.54,5.08-.3.17-.43.5-.58.66-1.02,1-1.91,1.68-2.61,2.81-.14.32-.44.34-.74.51-.15.16-.45.19-.6.35-1.79,1.2-3.73,2.42-5.66,3.79-.15.16-.44.34-.91.37-2,.29-3.62,1.64-5.95,1.79-.31.02-.76.2-1.22.39-1.83.59-3.22.68-4.92.79-2.49,0-4.8.31-7.12.46-2.31.31-4.64.3-6.83.13-2.04-.33-3.91-.37-5.94-.54-3.5-1.17-7.28-2.01-11.09-3.16-2.21-.48-4.27-1.12-6.5-1.91-1.44-.68-3.34-1.18-4.93-1.7-1.25-.07-2.49,0-3.39.53-.59.5-1.34.87-2.09,1.38-.14.32-.58.66-1.03.85-1.97.75-3.3,1.77-4.76,3.26-.58.66-1.33,1.02-1.93,1.37-1.79,1.2-3.57,2.41-4.87,4.05-.29.33-.58.66-1.02,1-1.64,1.04-2.79,2.51-4.25,4.01-3.75,4.44-3.9,4.61-6.9,8.69-.56.97-1.27,1.95-1.84,2.76-1.87,2.3-2.8,4.69-4.36,6.97-.12.47-.4.96-.53,1.43-.23,1.26-.91,2.7-1.29,4.13-.38,1.27-1.09,2.4-1.48,3.52-.12.47-.09.94-.22,1.41-.13.32-.1.79-.25.95-.97,1.78-1.63,3.68-1.95,5.88-.12.48-.26.79-.54,1.28-.81,1.92-.85,3.63-.74,5.33-.09.94.12,1.86.04,2.95,0,2.49.63,4.93.95,7.4.93,2.27,1.2,4.12,1.95,6.09l.34.45c1.08,2.26,2.15,4.37,3.38,6.46l2.23,3.28c.68.89,1.35,1.62,2.02,2.36.03.46.36.75.85,1.03,1,1.02,2.13,1.73,3.28,2.59.66.58,1.63,1.14,2.59,1.54.33.29.97.56,1.61.83,1.76.82,3.52,1.48,5.59,2.28,1.29.69,2.41,1.24,3.95.99.31-.02.78.1,1.26.23.63.11,1.11.39,1.72.2,1.39-.09,4.94-.48,6.36-.26,2.78-.34,6.11-1.64,8.57-2.12,1.36-.55,4.71-1.71,4.86-1.72,1.04-.69,2.25-1.24,3.13-2.07.91-.37,1.8-1.05,2.07-1.69.88-.84,1.61-1.5,2.19-2.16.57-.81,1.29-1.64,2.03-2.31.59-.5,1.02-1,1.15-1.47.3-.17.29-.33.28-.48.26-.79.55-1.12,1.12-1.94.12-.47.55-1.12.68-1.44.2-1.72.71-3.47,1.07-5.04l-.07-1.08c-.08-1.24-.64-2.6-1.48-3.64-.04-.62-.54-1.21-.9-1.96-.32-.14-1.31-1-1.46-.99-.96-.4-2.09-1.11-3.2-1.35-.64-.27-1.27-.38-2.05-.49l-3.71.24c-.62.04-1.38.25-1.68.42-.75.36-1.52.56-2.09,1.38-.3.18-.43.5-.89.68-1.22.39-2.78.34-3.6-.39-.66-.58-1.19-1.48-1.31-3.34-.02-.31.27-.64.41-.8.29-.33.27-.64.41-.81.74-.51,1.48-1.18,1.73-2.13.28-.48.59-.5,1.04-.69,2.13-.76,4.43-1.22,6.75-1.37,1.09.08,2.02.02,3.42-.07.77-.05,1.56.05,2.51.3.79.26,2.05.49,3.31.72.17.15.64.27.97.56.79.26,1.6.67,2.09,1.11.47.12.63.11.8.41,1.33,1.31,3.1,2.28,3.98,3.78.21.76.71,1.35,1.22,2.09.33.29.35.6.53.9.38,1.06.61,2.29.83,3.21.38,1.06.6,1.98.19,2.94-.09.94-.05,1.56,0,2.49.07,1.08.12,1.86.02,2.64,0,.15.02.31-.28.49-.86,1.14-.78,2.38-1.47,3.67-.87.99-1.58,1.97-2.13,3.09-.25.95-1.12,1.94-1.98,2.93q.01.16-.14.32c-2.48,2.49-4.79,5.29-7.62,7.18-.61.19-.9.52-1.18,1.01-.43.5-.71.98-1.16,1.32-.15.17-.44.34-.6.35-1.63,1.2-3.31,1.77-5.14,2.2-1.24.08-1.98.6-3.19,1.14-.46.19-1.21.55-1.68.42-.62.04-1.39.09-1.69.26-1.08.07-2.15.45-3.06.67-.92.21-1.84.43-3.08.51-1.23.23-3.73.09-4.93.63-.14.16-.31.02-.46.03-2.02-.03-4.2-.04-6.23-.22ZM110.81,24.66c3.12.11,6.32-.88,9.04-1.99,1.24-.08,2.09-1.38,3.32-1.61.45-.19.91-.37,1.35-.71.45-.18.9-.52,1.35-.71.3-.18.44-.34.59-.5.74-.52,1.17-1.16,1.58-1.97.12-.63.38-1.27.51-1.74.11-.63.06-1.4-.43-1.84-.99-.87-1.98-1.74-3.15-3.06-1.59-.52-2.71-1.07-4.14-1.44-2.53-.61-4.91-1.39-7.86-1.35-2.5-.15-4.98-.14-7.45.17-2.94.19-5.69.99-8.59,1.8-.91.37-1.98.6-2.74.96-1.81.9-3.49,1.32-5.46,2.07-1.36.56-2.87,1.28-4.2,2.3-1.51.72-2.84,1.74-4.37,2.15-1.04.69-1.78,1.36-2.82,2.05-.15.01-.29.33-.42.65.33.29.49.43.81.57.79.26,1.42.37,2.23.79,2.38.78,4.75,1.4,7.12,1.87l2.69.76c1.28.54,2.52.46,3.79.84.32.13.63.11.95.25,4.07.51,8.45.85,12.6.11,1.23-.24,2.47-.32,3.7-.4Z"/><path class="cls-1" d="m110.11,171.94c-1.26-.23-1.88-.19-4.82,0-2.32.15-4.35-.03-6.71-.34-1.72-.2-3.44-.24-5.16-.44-.94-.09-1.58-.37-2.37-.62-.8-.41-1.45-.84-2.08-.95-2.37-.62-4.94-1.85-8.19-3.98-.99-.87-1.47-1.15-1.96-1.43-1.1-.24-1.73-.35-2.19-.17-.9.53-1.96.9-2.53,1.72-.43.65-1.02,1-1.77,1.52-4.21,2.14-6.17,3.05-8.32,3.49l-2.12.92c-1.08.07-2.02-.03-2.95.04-.94-.09-2.03-.18-2.83-.44-.78-.1-1.59-.52-2.36-.47-1.87-.03-3.33-1.03-4.94-1.85-.63-.11-1.13-.7-1.8-1.44-1-1.02-1.84-2.06-2.7-3.24-1.19-1.63-1.63-3.62-1.29-5.51.09-.94.35-1.73.44-2.83,1.17-1.16,2.66-2.04,3.82-3.36,1.62-1.35,3.29-2.08,4.93-3.12.44-.34,3.5-1.16,4.58-1.23,1.24-.08,2.49,0,3.88-.1,1.73.35,3.51,1.32,5.38,1.51.63.12,1.11.39,1.75.66,2.41,1.24,5.1,2,7.5,2.93.76-.2,1.36-.56,1.94-1.21.69-1.29,1.56-2.28,2.27-3.26,1.59-1.81,2.87-3.61,4.42-6.2.25-.95.82-1.76,2.12-3.25.58-.66.99-1.46,1.23-2.57.7-1.13,1.07-2.71,1.94-3.7.85-1.3,1.25-2.26,1.76-4,.24-1.1.81-1.92,1.2-3.03.12-.63-.43-1.84-1.06-1.95l-2.08-.95c-2.21-.48-3.98-1.45-5.91-2.41l-.99-.87c-.33-.29-.65-.42-1.14-.86-2.29-1.72-4.28-3.61-5.66-5.69-1.85-2.21-3.4-4.44-5.09-6.51-.2-.61-.54-1.05-.87-1.5-.64-2.6-1.87-4.85-2.67-7.6-.11-1.7-.1-3.88-.38-5.88l-.07-1.08c-.08-1.24.13-2.81.19-4.21l.48-2.21c.66-1.75,1.34-3.35,1.69-5.09.37-1.42.79-2.23,1.36-3.04,1.08-2.56,2.65-4.68,3.9-6.94,2.15-2.78,3.83-5.69,6.49-7.73.29-.33.59-.5.73-.67.97-1.77,2.91-2.99,4.23-4.32.87-.99,1.76-1.67,2.66-2.19,3.14-1.91,6.11-3.97,9.43-5.59.45-.19.9-.53,1.36-.56,1.67-.58,3.18-1.3,4.85-1.87.61-.2,1.21-.55,1.66-.73.3-.18.45-.19,1.07-.23,1.68-.42,3.37-.84,5.06-1.11.61-.2,1.23-.24,2.93-.35,1.23-.24,2.47-.32,3.7-.55.45-.18.92-.21,1.85-.27,2.95-.04,5.74-.22,8.69-.26,1.39-.09,2.79-.18,4.22.35,1.57.21,3.15.57,4.73.94.79.26,1.58.36,2.35.31,3.27.1,6.31,1.45,9.32,2.35l3.37,1.65c.64.27,1.12.55,1.77.97,2.92,1.83,5.85,3.82,8.75,5.49,1.12.55,1.65,1.45,2.63,2.16,1.45.84,2.12,1.57,2.47,2.17.2.61.52.9,1,1.02,1.78,1.13,2.67,2.78,3.85,4.26,1.17,1.32,1.89,2.83,2.47,4.5.59,1.83,1.15,3.35,1.88,5.01.4,1.37.95,2.74,1.2,4.12.07,1.08.31,2.31.68,3.22.54,1.05.61,2.14.83,3.21.12,1.86.41,3.86.53,5.72.18.3.06.93-.03,1.87-.15,2.5-.21,3.9.03,5.28.22.92.14,2.17.09,3.72l-.4,3.45c.02.31.04.62.06.93-.87,3.32-.97,6.59-2.32,9.79-.27.64-.37,1.42-.59,2.84l-.79,2.23c-1.09,2.4-2.01,4.95-3.09,7.51-.13.32-.41.8-.38,1.27-.36,1.58-1.07,2.71-1.61,3.99-1.44,1.8-2.07,4.02-3.52,5.67-.72.83-.98,1.62-1.4,2.42-.85,1.3-1.71,2.44-2.45,2.96-1.02,1-1.76,1.67-2.33,2.48-.41.8-.84,1.45-1.72,2.29-3.37,3.17-5.42,5.17-8.24,7.22-1.17,1.16-2.79,2.51-4.88,3.89-1.04.69-2.07,1.69-3.12,2.22-1.06.38-1.8,1.05-2.84,1.74-1.93,1.37-4.21,2.14-6.49,3.06l-3.65,1.17c-.61.2-1.53.41-2.28.77-1.98.6-3.96,1.19-5.97,1.48-.75.36-1.37.4-2.3.46-1.38.25-2.44.78-3.83.87-2.18-.01-4.33.28-6.52.11Zm-47.93-7.91c.61-.2,1.38-.25,1.98-.6,1.82-.74,3.62-1.64,4.97-2.5.43-.5.7-1.14.53-1.43-.17-.15-.35-.6-.67-.73-3.84-1.62-6.86-2.66-9.86-3.4-.64-.27-1.1-.24-2.33,0-1.83.59-3.32,1.46-4.35,2.46-.44.34-.72.83-1.01,1.15-.43.5-.57.81-.23,1.26.36.75.55,1.21.9,1.81l.99.87c2.26,1.25,4.31,1.74,6.62,1.43.62-.04,1.69-.27,2.47-.32Zm54.42.18c3.68-.71,5.53-.98,7.52-1.42.62-.04.92-.21,1.37-.4,2.42-1.09,5.17-1.74,7.61-2.52,1.52-.56,2.57-1.1,3.46-1.78,2.86-1.43,5.37-3.46,8.07-5.04.45-.19.9-.52,1.19-.85,1.31-1.33,2.06-1.84,2.94-2.52,1.63-1.2,2.92-2.83,4.55-4.18l1.02-1c.29-.33.44-.34.73-.67,2.43-3.27,5.19-6.25,7.12-10.1.98-1.62,1.83-2.92,2.49-4.67.95-2.08,2.04-4.49,3.38-7.84,1.04-3.18,1.67-5.39,2.54-8.72.22-1.41.46-2.52.84-3.78.9-2.86,1.18-5.68,1-8.46-.26-1.54-.32-2.47.1-3.27.28-.49.09-.94.06-1.4-.1-1.55-.13-2.01,0-2.49.29-2.66-.5-5.25-.68-8.04.12-.47-.22-.92-.24-1.23l-.6-1.98c-1.27-5.2-3.14-10.05-5.91-14.38-1.48-1.3-2.82-2.77-4.3-3.92-.83-.88-1.66-1.6-2.48-2.33-1.75-.66-2.93-1.99-4.39-2.98-1.31-1-2.61-1.85-4.05-2.54-1.61-.83-3.37-1.65-5.14-2.46-.95-.25-1.6-.67-2.7-.91-2.06-.64-4.29-1.43-6.33-1.77-2.38-.78-5.83-1.17-7.53-1.06-4.83-.15-8.39.08-11.45.75-1.85.28-3.54.54-5.25.5-1.08.07-2.16.3-3.37.69-.76.2-1.52.56-3.04,1.13-1.23.24-2.42,1.09-3.49,1.31-1.53.41-2.57,1.1-3.75,2.11-.74.51-1.18,1.01-1.93,1.37-2.56,1.25-4.94,2.97-6.97,5.12-2.21,1.85-3.81,3.51-4.95,5.14-1.63,1.2-2.76,2.98-3.89,4.76-.98,1.62-2.13,3.09-2.46,5.13-.11.63-.39,1.11-1.07,2.71-1.21,2.88-2,5.11-2.18,7.14-.54,1.28-.62,2.37-.46,4.85.47,4.79-.17,4.52,2.93,11.62l5.43,6.95c.67.73,1.34,1.47,2.48,2.32.47.12.97.56,1.47,1.15,2.13,1.73,4.85,2.79,8.78,3.47q.31-.02.45-.18c.45-.18.74-.52,1.02-1,.57-.81.98-1.62,1.23-2.57.4-.96.96-1.93,1.2-3.03.22-1.41,1.09-2.4,1.31-3.66.13-.32.27-.64.25-.95.2-1.72.74-3,1.74-4.31.56-.97.81-1.92,1.19-3.19.23-1.26.35-1.73.63-2.22.96-1.93,2.4-3.73,3.2-5.81l.69-1.29c.87-.99,1.75-1.82,2.45-2.96.69-1.29,1.55-2.43,2.24-3.72.28-.49.27-.64.41-.8,2.75-3.13,4.66-4.81,6.59-6.18.89-.68,1.79-1.2,2.83-1.89l2.13-.76c2.43-.94,5.2-1.27,8.64-1.03,0,0,.16.14.32.13,1.1.24,1.97,1.58,1.57,2.54-.4.96-.68,1.44-.97,1.77-.27.64-.57.82-1.03.85-2.17.14-4.14.89-5.97,1.48-.45.19-1.06.38-1.36.55-2.84,1.74-3.72,2.58-4.42,3.71-1.57,2.12-3.3,4.26-4.86,6.54-.72.82-1.14,1.63-1.55,2.43-.27.64-.39,1.11-.83,1.61-1.13,1.78-1.78,3.69-2.9,5.63-.82,1.76-1.47,3.67-2.42,5.75-.53,1.43-.87,3.32-1.71,4.77-1.03,3.33-2.11,5.74-3.38,7.84-.13.32-.11.63-.25.95-.26.79.29,2,.91,1.96,2.17-.14,3.41-.22,5.28-.03,2.32-.15,4.48-.45,6.63-.9,1.83-.58,3.33-1.31,4.82-2.34,1.03-.84,2.4-1.4,3.43-2.24.6-.35,1.19-.85,1.47-1.34,1.74-1.98,2.32-2.64,3.06-3.15.89-.68,1.47-1.34,1.88-2.14.7-1.13,1.43-1.96,2.3-2.95.58-.66,1.33-1.02,2.11-1.07l2.48-.16c.46-.03,1.11.39,1.45.84.51.59.7,1.2.28,1.85-.41.8-.97,1.77-1.23,2.57-.15.17-.58.66-1.43,1.96-1.18,1.01-1.75,1.82-2.3,2.94-.42.65-.86,1.15-1.3,1.49-1.61,1.5-2.92,2.83-4.27,3.7-1.49,1.03-2.82,2.05-4.47,2.93-1.78,1.36-3.58,2.25-5.57,2.85-.61.2-1.54.26-2.15.45-1.65.89-3.51,1.01-5.05,1.26-.93.06-1.71-.04-2.49,0-1.85.27-3.41.22-5.14-.13-.78-.1-1.88-.19-2.96-.12-.62.04-1.22.39-1.5.87l-.56.97c-.69,1.29-1.21,2.88-2.05,4.33-.84,1.45-1.51,3.05-2.34,4.66-1.5,3.21-3.79,6.31-5.44,9.53-.14.32-.28.48-.86,1.14-1.28,1.79-2.4,3.73-3.85,5.38-.57.81-1.14,1.63-1.55,2.43-.29.33-.27.64.06.93,2.35,2.65,5.55,3.99,8.76,5.65,1.4.07,2.85.75,4.25.81.94.09,1.73.35,2.84.59.95.25,1.57.21,2.34.16.78.1,1.56.05,2.34.16,3.76.38,7.61-.03,11.49-.13.93-.06,1.08-.07,1.38-.25Z"/></svg>